<?xml version="1.0" encoding="UTF-8" standalone="no"?>
<!DOCTYPE svg PUBLIC "-//W3C//DTD SVG 1.1//EN"
 "http://www.w3.org/Graphics/SVG/1.1/DTD/svg11.dtd">
<!-- Generated by graphviz version 12.1.2 (20240928.0832)
 -->
<!-- Title: bug_events Pages: 1 -->
<svg width="1885pt" height="900pt"
 viewBox="0.00 0.00 1885.46 900.00" xmlns="http://www.w3.org/2000/svg" xmlns:xlink="http://www.w3.org/1999/xlink">
<g id="graph0" class="graph" transform="scale(1 1) rotate(0) translate(4 896)">
<title>bug_events</title>
<polygon fill="white" stroke="none" points="-4,4 -4,-896 1881.46,-896 1881.46,4 -4,4"/>
<!-- bug_events -->
<g id="node1" class="node">
<title>bug_events</title>
<polygon fill="#efefef" stroke="none" points="46.2,-799.8 46.2,-845.8 1341.81,-845.8 1341.81,-799.8 46.2,-799.8"/>
<polygon fill="none" stroke="black" points="46.2,-799.8 46.2,-845.8 1341.81,-845.8 1341.81,-799.8 46.2,-799.8"/>
<text text-anchor="start" x="618.38" y="-823.6" font-family="Arial Bold" font-size="18.00">bug_events</text>
<text text-anchor="start" x="700.37" y="-823.6" font-family="Arial" font-size="14.00">    </text>
<text text-anchor="start" x="731.49" y="-823.6" font-family="Arial" font-size="14.00" fill="#666666">[table]</text>
<text text-anchor="start" x="53.2" y="-809.2" font-family="Arial" font-size="14.00" fill="#333333">Append&#45;only bug lifecycle log (v19), so attempts&#45;per&#45;period metrics are computed from events rather than a running counter. Invariant: the count of &#39;entered_testing&#39; events for a bug equals bugs.fix_attempts.</text>
<polygon fill="none" stroke="black" points="46.2,-769 46.2,-799.8 1341.81,-799.8 1341.81,-769 46.2,-769"/>
<text text-anchor="start" x="53.2" y="-781.2" font-family="Arial" font-size="14.00">id </text>
<text text-anchor="start" x="67.99" y="-781.2" font-family="Arial" font-size="14.00" fill="#666666">[INTEGER]</text>
<polygon fill="none" stroke="black" points="46.2,-738.2 46.2,-769 1341.81,-769 1341.81,-738.2 46.2,-738.2"/>
<text text-anchor="start" x="53.2" y="-750.4" font-family="Arial" font-size="14.00">bug_id </text>
<text text-anchor="start" x="99.13" y="-750.4" font-family="Arial" font-size="14.00" fill="#666666">[INTEGER]</text>
<polygon fill="none" stroke="black" points="46.2,-707.4 46.2,-738.2 1341.81,-738.2 1341.81,-707.4 46.2,-707.4"/>
<text text-anchor="start" x="53.2" y="-719.6" font-family="Arial" font-size="14.00">event_type </text>
<text text-anchor="start" x="125.59" y="-719.6" font-family="Arial" font-size="14.00" fill="#666666">[TEXT]</text>
<polygon fill="none" stroke="black" points="46.2,-676.6 46.2,-707.4 1341.81,-707.4 1341.81,-676.6 46.2,-676.6"/>
<text text-anchor="start" x="53.2" y="-688.8" font-family="Arial" font-size="14.00">ts </text>
<text text-anchor="start" x="67.98" y="-688.8" font-family="Arial" font-size="14.00" fill="#666666">[TEXT]</text>
<polygon fill="none" stroke="black" points="46.2,-645.8 46.2,-676.6 1341.81,-676.6 1341.81,-645.8 46.2,-645.8"/>
<text text-anchor="start" x="53.2" y="-658" font-family="Arial" font-size="14.00">from_status </text>
<text text-anchor="start" x="130.23" y="-658" font-family="Arial" font-size="14.00" fill="#666666">[TEXT]</text>
<polygon fill="none" stroke="black" points="46.2,-615 46.2,-645.8 1341.81,-645.8 1341.81,-615 46.2,-615"/>
<text text-anchor="start" x="53.2" y="-627.2" font-family="Arial" font-size="14.00">to_status </text>
<text text-anchor="start" x="113.9" y="-627.2" font-family="Arial" font-size="14.00" fill="#666666">[TEXT]</text>
<polygon fill="none" stroke="black" stroke-width="3" points="44.7,-613.5 44.7,-847.3 1343.31,-847.3 1343.31,-613.5 44.7,-613.5"/>
</g>
<!-- bugs -->
<g id="node2" class="node">
<title>bugs</title>
<polygon fill="#efefef" stroke="none" points="157.07,-443.6 157.07,-489.6 1230.94,-489.6 1230.94,-443.6 157.07,-443.6"/>
<polygon fill="none" stroke="black" points="157.07,-443.6 157.07,-489.6 1230.94,-489.6 1230.94,-443.6 157.07,-443.6"/>
<text text-anchor="start" x="642.37" y="-467.4" font-family="Arial Bold" font-size="18.00">bugs</text>
<text text-anchor="start" x="676.38" y="-467.4" font-family="Arial" font-size="14.00">    </text>
<text text-anchor="start" x="707.5" y="-467.4" font-family="Arial" font-size="14.00" fill="#666666">[table]</text>
<text text-anchor="start" x="164.07" y="-453" font-family="Arial" font-size="14.00" fill="#333333">Source of truth for bug reports. docs/bug&#45;reports.md in each repo is a generated, LLM&#45;facing view of this table — protected fields are restored from here on every reconcile.</text>
<polygon fill="none" stroke="black" points="157.07,-412.8 157.07,-443.6 1230.94,-443.6 1230.94,-412.8 157.07,-412.8"/>
<text text-anchor="start" x="164.07" y="-425" font-family="Arial" font-size="14.00">id </text>
<text text-anchor="start" x="178.85" y="-425" font-family="Arial" font-size="14.00" fill="#666666">[INTEGER]</text>
<polygon fill="none" stroke="black" points="157.07,-382 157.07,-412.8 1230.94,-412.8 1230.94,-382 157.07,-382"/>
<text text-anchor="start" x="164.07" y="-394.2" font-family="Arial" font-size="14.00">repository_id </text>
<text text-anchor="start" x="248.11" y="-394.2" font-family="Arial" font-size="14.00" fill="#666666">[INTEGER]</text>
<polygon fill="none" stroke="black" points="157.07,-351.2 157.07,-382 1230.94,-382 1230.94,-351.2 157.07,-351.2"/>
<text text-anchor="start" x="164.07" y="-363.4" font-family="Arial" font-size="14.00">numeric_id </text>
<text text-anchor="start" x="236.43" y="-363.4" font-family="Arial" font-size="14.00" fill="#666666">[INTEGER]</text>
<text text-anchor="start" x="306.44" y="-363.4" font-family="Arial" font-size="14.00"> Per&#45;repository counter; display_id is its rendered form (B&#45;000042).</text>
<polygon fill="none" stroke="black" points="157.07,-320.4 157.07,-351.2 1230.94,-351.2 1230.94,-320.4 157.07,-320.4"/>
<text text-anchor="start" x="164.07" y="-332.6" font-family="Arial" font-size="14.00">display_id </text>
<text text-anchor="start" x="230.22" y="-332.6" font-family="Arial" font-size="14.00" fill="#666666">[TEXT]</text>
<polygon fill="none" stroke="black" points="157.07,-289.6 157.07,-320.4 1230.94,-320.4 1230.94,-289.6 157.07,-289.6"/>
<text text-anchor="start" x="164.07" y="-301.8" font-family="Arial" font-size="14.00">created_at </text>
<text text-anchor="start" x="234.11" y="-301.8" font-family="Arial" font-size="14.00" fill="#666666">[TEXT]</text>
<polygon fill="none" stroke="black" points="157.07,-258.8 157.07,-289.6 1230.94,-289.6 1230.94,-258.8 157.07,-258.8"/>
<text text-anchor="start" x="164.07" y="-271" font-family="Arial" font-size="14.00">description </text>
<text text-anchor="start" x="235.66" y="-271" font-family="Arial" font-size="14.00" fill="#666666">[TEXT]</text>
<polygon fill="none" stroke="black" points="157.07,-228 157.07,-258.8 1230.94,-258.8 1230.94,-228 157.07,-228"/>
<text text-anchor="start" x="164.07" y="-240.2" font-family="Arial" font-size="14.00">severity </text>
<text text-anchor="start" x="216.19" y="-240.2" font-family="Arial" font-size="14.00" fill="#666666">[TEXT]</text>
<polygon fill="none" stroke="black" points="157.07,-197.2 157.07,-228 1230.94,-228 1230.94,-197.2 157.07,-197.2"/>
<text text-anchor="start" x="164.07" y="-209.4" font-family="Arial" font-size="14.00">category </text>
<text text-anchor="start" x="221.65" y="-209.4" font-family="Arial" font-size="14.00" fill="#666666">[TEXT]</text>
<polygon fill="none" stroke="black" points="157.07,-166.4 157.07,-197.2 1230.94,-197.2 1230.94,-166.4 157.07,-166.4"/>
<text text-anchor="start" x="164.07" y="-178.6" font-family="Arial" font-size="14.00">status </text>
<text text-anchor="start" x="205.31" y="-178.6" font-family="Arial" font-size="14.00" fill="#666666">[TEXT]</text>
<polygon fill="none" stroke="black" points="157.07,-135.6 157.07,-166.4 1230.94,-166.4 1230.94,-135.6 157.07,-135.6"/>
<text text-anchor="start" x="164.07" y="-147.8" font-family="Arial" font-size="14.00">fix_attempts </text>
<text text-anchor="start" x="243.43" y="-147.8" font-family="Arial" font-size="14.00" fill="#666666">[INTEGER]</text>
<text text-anchor="start" x="313.44" y="-147.8" font-family="Arial" font-size="14.00"> App&#45;managed: incremented on each transition into &#39;testing&#39;. Never written by an AI agent — this is what makes the attempt history honest.</text>
<polygon fill="none" stroke="black" points="157.07,-104.8 157.07,-135.6 1230.94,-135.6 1230.94,-104.8 157.07,-104.8"/>
<text text-anchor="start" x="164.07" y="-117" font-family="Arial" font-size="14.00">comment </text>
<text text-anchor="start" x="225.53" y="-117" font-family="Arial" font-size="14.00" fill="#666666">[TEXT]</text>
<polygon fill="none" stroke="black" points="157.07,-74 157.07,-104.8 1230.94,-104.8 1230.94,-74 157.07,-74"/>
<text text-anchor="start" x="164.07" y="-86.2" font-family="Arial" font-size="14.00">confirmed_at </text>
<text text-anchor="start" x="248.89" y="-86.2" font-family="Arial" font-size="14.00" fill="#666666">[TEXT]</text>
<polygon fill="none" stroke="black" points="157.07,-43.2 157.07,-74 1230.94,-74 1230.94,-43.2 157.07,-43.2"/>
<text text-anchor="start" x="164.07" y="-55.4" font-family="Arial" font-size="14.00">archived_from_md_at </text>
<text text-anchor="start" x="303.35" y="-55.4" font-family="Arial" font-size="14.00" fill="#666666">[TEXT]</text>
<text text-anchor="start" x="346.91" y="-55.4" font-family="Arial" font-size="14.00"> v22 — set when the agent removes a confirmed row from the MD file. After that, regeneration permanently excludes the row.</text>
</g>
<!-- bug_events&#45;&gt;bugs -->
<g id="edge1" class="edge">
<title>bug_events:bug_id&#45;&gt;bugs:id</title>
<path fill="none" stroke="black" d="M1353.12,-753.07C1490.37,-738.53 1381.15,-428.2 1231.94,-428.2"/>
<polygon fill="black" stroke="black" points="1353.13,-753.07 1342.91,-749.09 1347.8,-753.34 1343.48,-753.57 1343.48,-753.57 1343.48,-753.57 1347.8,-753.34 1343.37,-758.08 1353.13,-753.07"/>
<text text-anchor="start" x="1349.81" y="-763.6" font-family="Arial" font-size="10.00">FOREIGN KEY (bug_id) REFERENCES bugs (id) ON UPDATE NO ACTION ON DELETE CASCADE MATCH NONE</text>
</g>
</g>
</svg>
