<?xml version="1.0" encoding="UTF-8" standalone="no"?>
<!DOCTYPE svg PUBLIC "-//W3C//DTD SVG 1.1//EN"
 "http://www.w3.org/Graphics/SVG/1.1/DTD/svg11.dtd">
<!-- Generated by graphviz version 12.1.2 (20240928.0832)
 -->
<!-- Title: bugs Pages: 1 -->
<svg width="1882pt" height="1623pt"
 viewBox="0.00 0.00 1882.46 1622.80" xmlns="http://www.w3.org/2000/svg" xmlns:xlink="http://www.w3.org/1999/xlink">
<g id="graph0" class="graph" transform="scale(1 1) rotate(0) translate(4 1618.8)">
<title>bugs</title>
<polygon fill="white" stroke="none" points="-4,4 -4,-1618.8 1878.46,-1618.8 1878.46,4 -4,4"/>
<!-- bugs -->
<g id="node1" class="node">
<title>bugs</title>
<polygon fill="#efefef" stroke="none" points="154.07,-1169.4 154.07,-1215.4 1227.94,-1215.4 1227.94,-1169.4 154.07,-1169.4"/>
<polygon fill="none" stroke="black" points="154.07,-1169.4 154.07,-1215.4 1227.94,-1215.4 1227.94,-1169.4 154.07,-1169.4"/>
<text text-anchor="start" x="639.37" y="-1193.2" font-family="Arial Bold" font-size="18.00">bugs</text>
<text text-anchor="start" x="673.38" y="-1193.2" font-family="Arial" font-size="14.00">    </text>
<text text-anchor="start" x="704.5" y="-1193.2" font-family="Arial" font-size="14.00" fill="#666666">[table]</text>
<text text-anchor="start" x="161.07" y="-1178.8" font-family="Arial" font-size="14.00" fill="#333333">Source of truth for bug reports. docs/bug&#45;reports.md in each repo is a generated, LLM&#45;facing view of this table — protected fields are restored from here on every reconcile.</text>
<polygon fill="none" stroke="black" points="154.07,-1138.6 154.07,-1169.4 1227.94,-1169.4 1227.94,-1138.6 154.07,-1138.6"/>
<text text-anchor="start" x="161.07" y="-1150.8" font-family="Arial" font-size="14.00">id </text>
<text text-anchor="start" x="175.85" y="-1150.8" font-family="Arial" font-size="14.00" fill="#666666">[INTEGER]</text>
<polygon fill="none" stroke="black" points="154.07,-1107.8 154.07,-1138.6 1227.94,-1138.6 1227.94,-1107.8 154.07,-1107.8"/>
<text text-anchor="start" x="161.07" y="-1120" font-family="Arial" font-size="14.00">repository_id </text>
<text text-anchor="start" x="245.11" y="-1120" font-family="Arial" font-size="14.00" fill="#666666">[INTEGER]</text>
<polygon fill="none" stroke="black" points="154.07,-1077 154.07,-1107.8 1227.94,-1107.8 1227.94,-1077 154.07,-1077"/>
<text text-anchor="start" x="161.07" y="-1089.2" font-family="Arial" font-size="14.00">numeric_id </text>
<text text-anchor="start" x="233.43" y="-1089.2" font-family="Arial" font-size="14.00" fill="#666666">[INTEGER]</text>
<text text-anchor="start" x="303.44" y="-1089.2" font-family="Arial" font-size="14.00"> Per&#45;repository counter; display_id is its rendered form (B&#45;000042).</text>
<polygon fill="none" stroke="black" points="154.07,-1046.2 154.07,-1077 1227.94,-1077 1227.94,-1046.2 154.07,-1046.2"/>
<text text-anchor="start" x="161.07" y="-1058.4" font-family="Arial" font-size="14.00">display_id </text>
<text text-anchor="start" x="227.22" y="-1058.4" font-family="Arial" font-size="14.00" fill="#666666">[TEXT]</text>
<polygon fill="none" stroke="black" points="154.07,-1015.4 154.07,-1046.2 1227.94,-1046.2 1227.94,-1015.4 154.07,-1015.4"/>
<text text-anchor="start" x="161.07" y="-1027.6" font-family="Arial" font-size="14.00">created_at </text>
<text text-anchor="start" x="231.11" y="-1027.6" font-family="Arial" font-size="14.00" fill="#666666">[TEXT]</text>
<polygon fill="none" stroke="black" points="154.07,-984.6 154.07,-1015.4 1227.94,-1015.4 1227.94,-984.6 154.07,-984.6"/>
<text text-anchor="start" x="161.07" y="-996.8" font-family="Arial" font-size="14.00">description </text>
<text text-anchor="start" x="232.66" y="-996.8" font-family="Arial" font-size="14.00" fill="#666666">[TEXT]</text>
<polygon fill="none" stroke="black" points="154.07,-953.8 154.07,-984.6 1227.94,-984.6 1227.94,-953.8 154.07,-953.8"/>
<text text-anchor="start" x="161.07" y="-966" font-family="Arial" font-size="14.00">severity </text>
<text text-anchor="start" x="213.19" y="-966" font-family="Arial" font-size="14.00" fill="#666666">[TEXT]</text>
<polygon fill="none" stroke="black" points="154.07,-923 154.07,-953.8 1227.94,-953.8 1227.94,-923 154.07,-923"/>
<text text-anchor="start" x="161.07" y="-935.2" font-family="Arial" font-size="14.00">category </text>
<text text-anchor="start" x="218.65" y="-935.2" font-family="Arial" font-size="14.00" fill="#666666">[TEXT]</text>
<polygon fill="none" stroke="black" points="154.07,-892.2 154.07,-923 1227.94,-923 1227.94,-892.2 154.07,-892.2"/>
<text text-anchor="start" x="161.07" y="-904.4" font-family="Arial" font-size="14.00">status </text>
<text text-anchor="start" x="202.31" y="-904.4" font-family="Arial" font-size="14.00" fill="#666666">[TEXT]</text>
<polygon fill="none" stroke="black" points="154.07,-861.4 154.07,-892.2 1227.94,-892.2 1227.94,-861.4 154.07,-861.4"/>
<text text-anchor="start" x="161.07" y="-873.6" font-family="Arial" font-size="14.00">fix_attempts </text>
<text text-anchor="start" x="240.43" y="-873.6" font-family="Arial" font-size="14.00" fill="#666666">[INTEGER]</text>
<text text-anchor="start" x="310.44" y="-873.6" font-family="Arial" font-size="14.00"> App&#45;managed: incremented on each transition into &#39;testing&#39;. Never written by an AI agent — this is what makes the attempt history honest.</text>
<polygon fill="none" stroke="black" points="154.07,-830.6 154.07,-861.4 1227.94,-861.4 1227.94,-830.6 154.07,-830.6"/>
<text text-anchor="start" x="161.07" y="-842.8" font-family="Arial" font-size="14.00">comment </text>
<text text-anchor="start" x="222.53" y="-842.8" font-family="Arial" font-size="14.00" fill="#666666">[TEXT]</text>
<polygon fill="none" stroke="black" points="154.07,-799.8 154.07,-830.6 1227.94,-830.6 1227.94,-799.8 154.07,-799.8"/>
<text text-anchor="start" x="161.07" y="-812" font-family="Arial" font-size="14.00">confirmed_at </text>
<text text-anchor="start" x="245.89" y="-812" font-family="Arial" font-size="14.00" fill="#666666">[TEXT]</text>
<polygon fill="none" stroke="black" points="154.07,-769 154.07,-799.8 1227.94,-799.8 1227.94,-769 154.07,-769"/>
<text text-anchor="start" x="161.07" y="-781.2" font-family="Arial" font-size="14.00">archived_from_md_at </text>
<text text-anchor="start" x="300.35" y="-781.2" font-family="Arial" font-size="14.00" fill="#666666">[TEXT]</text>
<text text-anchor="start" x="343.91" y="-781.2" font-family="Arial" font-size="14.00"> v22 — set when the agent removes a confirmed row from the MD file. After that, regeneration permanently excludes the row.</text>
<polygon fill="none" stroke="black" stroke-width="3" points="152.57,-767.5 152.57,-1216.9 1229.44,-1216.9 1229.44,-767.5 152.57,-767.5"/>
</g>
<!-- repositories -->
<g id="node3" class="node">
<title>repositories</title>
<polygon fill="#efefef" stroke="none" points="75.47,-597.6 75.47,-643.6 1306.54,-643.6 1306.54,-597.6 75.47,-597.6"/>
<polygon fill="none" stroke="black" points="75.47,-597.6 75.47,-643.6 1306.54,-643.6 1306.54,-597.6 75.47,-597.6"/>
<text text-anchor="start" x="614.39" y="-621.4" font-family="Arial Bold" font-size="18.00">repositories</text>
<text text-anchor="start" x="698.37" y="-621.4" font-family="Arial" font-size="14.00">    </text>
<text text-anchor="start" x="729.48" y="-621.4" font-family="Arial" font-size="14.00" fill="#666666">[table]</text>
<text text-anchor="start" x="434.98" y="-607" font-family="Arial" font-size="14.00" fill="#333333">A repository belonging to at most one project. May be GitHub&#45;backed or local&#45;only.</text>
<polygon fill="none" stroke="black" points="75.47,-566.8 75.47,-597.6 1306.54,-597.6 1306.54,-566.8 75.47,-566.8"/>
<text text-anchor="start" x="82.47" y="-579" font-family="Arial" font-size="14.00">id </text>
<text text-anchor="start" x="97.26" y="-579" font-family="Arial" font-size="14.00" fill="#666666">[INTEGER]</text>
<polygon fill="none" stroke="black" points="75.47,-536 75.47,-566.8 1306.54,-566.8 1306.54,-536 75.47,-536"/>
<text text-anchor="start" x="82.47" y="-548.2" font-family="Arial" font-size="14.00">project_id </text>
<text text-anchor="start" x="147.07" y="-548.2" font-family="Arial" font-size="14.00" fill="#666666">[INTEGER]</text>
<text text-anchor="start" x="217.07" y="-548.2" font-family="Arial" font-size="14.00"> ON DELETE SET NULL — the only non&#45;cascading FK in the schema. Deleting a project orphans its repositories rather than destroying them.</text>
<polygon fill="none" stroke="black" points="75.47,-505.2 75.47,-536 1306.54,-536 1306.54,-505.2 75.47,-505.2"/>
<text text-anchor="start" x="82.47" y="-517.4" font-family="Arial" font-size="14.00">github_name </text>
<text text-anchor="start" x="167.31" y="-517.4" font-family="Arial" font-size="14.00" fill="#666666">[TEXT]</text>
<text text-anchor="start" x="210.87" y="-517.4" font-family="Arial" font-size="14.00"> UNIQUE, and nullable since v13 so local&#45;only repos (never pushed to GitHub) can exist. The last path segment is the canonical folder name used for all cross&#45;repo doc folders.</text>
<polygon fill="none" stroke="black" points="75.47,-474.4 75.47,-505.2 1306.54,-505.2 1306.54,-474.4 75.47,-474.4"/>
<text text-anchor="start" x="82.47" y="-486.6" font-family="Arial" font-size="14.00">github_url </text>
<text text-anchor="start" x="147.85" y="-486.6" font-family="Arial" font-size="14.00" fill="#666666">[TEXT]</text>
<polygon fill="none" stroke="black" points="75.47,-443.6 75.47,-474.4 1306.54,-474.4 1306.54,-443.6 75.47,-443.6"/>
<text text-anchor="start" x="82.47" y="-455.8" font-family="Arial" font-size="14.00">role </text>
<text text-anchor="start" x="109.71" y="-455.8" font-family="Arial" font-size="14.00" fill="#666666">[TEXT]</text>
<text text-anchor="start" x="153.27" y="-455.8" font-family="Arial" font-size="14.00"> &#39;microservice&#39; is still legal here but is legacy: v12 NULLed every such row when microservice became a project type rather than a repo role.</text>
<polygon fill="none" stroke="black" points="75.47,-412.8 75.47,-443.6 1306.54,-443.6 1306.54,-412.8 75.47,-412.8"/>
<text text-anchor="start" x="82.47" y="-425" font-family="Arial" font-size="14.00">description </text>
<text text-anchor="start" x="154.07" y="-425" font-family="Arial" font-size="14.00" fill="#666666">[TEXT]</text>
<polygon fill="none" stroke="black" points="75.47,-382 75.47,-412.8 1306.54,-412.8 1306.54,-382 75.47,-382"/>
<text text-anchor="start" x="82.47" y="-394.2" font-family="Arial" font-size="14.00">language </text>
<text text-anchor="start" x="143.98" y="-394.2" font-family="Arial" font-size="14.00" fill="#666666">[TEXT]</text>
<polygon fill="none" stroke="black" points="75.47,-351.2 75.47,-382 1306.54,-382 1306.54,-351.2 75.47,-351.2"/>
<text text-anchor="start" x="82.47" y="-363.4" font-family="Arial" font-size="14.00">last_pushed_at </text>
<text text-anchor="start" x="181.33" y="-363.4" font-family="Arial" font-size="14.00" fill="#666666">[DATETIME]</text>
<polygon fill="none" stroke="black" points="75.47,-320.4 75.47,-351.2 1306.54,-351.2 1306.54,-320.4 75.47,-320.4"/>
<text text-anchor="start" x="82.47" y="-332.6" font-family="Arial" font-size="14.00">added_at </text>
<text text-anchor="start" x="144.75" y="-332.6" font-family="Arial" font-size="14.00" fill="#666666">[DATETIME]</text>
<polygon fill="none" stroke="black" points="75.47,-289.6 75.47,-320.4 1306.54,-320.4 1306.54,-289.6 75.47,-289.6"/>
<text text-anchor="start" x="82.47" y="-301.8" font-family="Arial" font-size="14.00">updated_at </text>
<text text-anchor="start" x="156.43" y="-301.8" font-family="Arial" font-size="14.00" fill="#666666">[DATETIME]</text>
<polygon fill="none" stroke="black" points="75.47,-258.8 75.47,-289.6 1306.54,-289.6 1306.54,-258.8 75.47,-258.8"/>
<text text-anchor="start" x="82.47" y="-271" font-family="Arial" font-size="14.00">local_path </text>
<text text-anchor="start" x="150.19" y="-271" font-family="Arial" font-size="14.00" fill="#666666">[TEXT]</text>
<polygon fill="none" stroke="black" points="75.47,-228 75.47,-258.8 1306.54,-258.8 1306.54,-228 75.47,-228"/>
<text text-anchor="start" x="82.47" y="-240.2" font-family="Arial" font-size="14.00">github_id </text>
<text text-anchor="start" x="143.19" y="-240.2" font-family="Arial" font-size="14.00" fill="#666666">[INTEGER]</text>
<text text-anchor="start" x="213.2" y="-240.2" font-family="Arial" font-size="14.00"> Stable GitHub identifier — the basis of rename detection.</text>
<polygon fill="none" stroke="black" points="75.47,-197.2 75.47,-228 1306.54,-228 1306.54,-197.2 75.47,-197.2"/>
<text text-anchor="start" x="82.47" y="-209.4" font-family="Arial" font-size="14.00">deploy_target </text>
<text text-anchor="start" x="171.2" y="-209.4" font-family="Arial" font-size="14.00" fill="#666666">[TEXT]</text>
<text text-anchor="start" x="214.76" y="-209.4" font-family="Arial" font-size="14.00"> Matches templates.language_key.</text>
<polygon fill="none" stroke="black" points="75.47,-166.4 75.47,-197.2 1306.54,-197.2 1306.54,-166.4 75.47,-166.4"/>
<text text-anchor="start" x="82.47" y="-178.6" font-family="Arial" font-size="14.00">sort_order </text>
<text text-anchor="start" x="150.17" y="-178.6" font-family="Arial" font-size="14.00" fill="#666666">[INTEGER]</text>
<polygon fill="none" stroke="black" points="75.47,-135.6 75.47,-166.4 1306.54,-166.4 1306.54,-135.6 75.47,-135.6"/>
<text text-anchor="start" x="82.47" y="-147.8" font-family="Arial" font-size="14.00">bugs_migrated_at </text>
<text text-anchor="start" x="198.44" y="-147.8" font-family="Arial" font-size="14.00" fill="#666666">[TEXT]</text>
<text text-anchor="start" x="242" y="-147.8" font-family="Arial" font-size="14.00"> Lazy&#45;migration marker (v18); NULL means the repo&#39;s MD has never been imported.</text>
<polygon fill="none" stroke="black" points="75.47,-104.8 75.47,-135.6 1306.54,-135.6 1306.54,-104.8 75.47,-104.8"/>
<text text-anchor="start" x="82.47" y="-117" font-family="Arial" font-size="14.00">tasks_migrated_at </text>
<text text-anchor="start" x="200.75" y="-117" font-family="Arial" font-size="14.00" fill="#666666">[TEXT]</text>
<text text-anchor="start" x="244.31" y="-117" font-family="Arial" font-size="14.00"> Lazy&#45;migration marker (v21). While NULL, the first task sync suppresses &#39;created&#39; events so backfilling legacy files doesn&#39;t flood the timeline.</text>
<polygon fill="none" stroke="black" points="75.47,-74 75.47,-104.8 1306.54,-104.8 1306.54,-74 75.47,-74"/>
<text text-anchor="start" x="82.47" y="-86.2" font-family="Arial" font-size="14.00">deploy_repo_config </text>
<text text-anchor="start" x="208.57" y="-86.2" font-family="Arial" font-size="14.00" fill="#666666">[TEXT]</text>
<text text-anchor="start" x="252.13" y="-86.2" font-family="Arial" font-size="14.00"> v25 — JSON map of repo&#45;wide (not per&#45;environment) deploy placeholder values.</text>
<polygon fill="none" stroke="black" points="75.47,-43.2 75.47,-74 1306.54,-74 1306.54,-43.2 75.47,-43.2"/>
<text text-anchor="start" x="82.47" y="-55.4" font-family="Arial" font-size="14.00">autocommit_branch </text>
<text text-anchor="start" x="209.31" y="-55.4" font-family="Arial" font-size="14.00" fill="#666666">[TEXT]</text>
<text text-anchor="start" x="252.87" y="-55.4" font-family="Arial" font-size="14.00"> v28 — NULL means auto&#45;commit is off for this repo.</text>
</g>
<!-- bugs&#45;&gt;repositories -->
<g id="edge2" class="edge">
<title>bugs:repository_id&#45;&gt;repositories:id</title>
<path fill="none" stroke="black" d="M1239.16,-1121.92C1354.72,-1092.99 1425.58,-582.2 1307.54,-582.2"/>
<polygon fill="black" stroke="black" points="1239.2,-1121.92 1228.72,-1118.69 1233.9,-1122.58 1229.61,-1123.12 1229.61,-1123.12 1229.61,-1123.12 1233.9,-1122.58 1229.83,-1127.62 1239.2,-1121.92"/>
<text text-anchor="start" x="1235.94" y="-1133.2" font-family="Arial" font-size="10.00">FOREIGN KEY (repository_id) REFERENCES repositories (id) ON UPDATE NO ACTION ON DELETE CASCADE MATCH NONE</text>
</g>
<!-- bug_events -->
<g id="node2" class="node">
<title>bug_events</title>
<polygon fill="#efefef" stroke="none" points="43.2,-1525.6 43.2,-1571.6 1338.81,-1571.6 1338.81,-1525.6 43.2,-1525.6"/>
<polygon fill="none" stroke="black" points="43.2,-1525.6 43.2,-1571.6 1338.81,-1571.6 1338.81,-1525.6 43.2,-1525.6"/>
<text text-anchor="start" x="615.38" y="-1549.4" font-family="Arial Bold" font-size="18.00">bug_events</text>
<text text-anchor="start" x="697.37" y="-1549.4" font-family="Arial" font-size="14.00">    </text>
<text text-anchor="start" x="728.49" y="-1549.4" font-family="Arial" font-size="14.00" fill="#666666">[table]</text>
<text text-anchor="start" x="50.2" y="-1535" font-family="Arial" font-size="14.00" fill="#333333">Append&#45;only bug lifecycle log (v19), so attempts&#45;per&#45;period metrics are computed from events rather than a running counter. Invariant: the count of &#39;entered_testing&#39; events for a bug equals bugs.fix_attempts.</text>
<polygon fill="none" stroke="black" points="43.2,-1494.8 43.2,-1525.6 1338.81,-1525.6 1338.81,-1494.8 43.2,-1494.8"/>
<text text-anchor="start" x="50.2" y="-1507" font-family="Arial" font-size="14.00">id </text>
<text text-anchor="start" x="64.99" y="-1507" font-family="Arial" font-size="14.00" fill="#666666">[INTEGER]</text>
<polygon fill="none" stroke="black" points="43.2,-1464 43.2,-1494.8 1338.81,-1494.8 1338.81,-1464 43.2,-1464"/>
<text text-anchor="start" x="50.2" y="-1476.2" font-family="Arial" font-size="14.00">bug_id </text>
<text text-anchor="start" x="96.13" y="-1476.2" font-family="Arial" font-size="14.00" fill="#666666">[INTEGER]</text>
<polygon fill="none" stroke="black" points="43.2,-1433.2 43.2,-1464 1338.81,-1464 1338.81,-1433.2 43.2,-1433.2"/>
<text text-anchor="start" x="50.2" y="-1445.4" font-family="Arial" font-size="14.00">event_type </text>
<text text-anchor="start" x="122.59" y="-1445.4" font-family="Arial" font-size="14.00" fill="#666666">[TEXT]</text>
<polygon fill="none" stroke="black" points="43.2,-1402.4 43.2,-1433.2 1338.81,-1433.2 1338.81,-1402.4 43.2,-1402.4"/>
<text text-anchor="start" x="50.2" y="-1414.6" font-family="Arial" font-size="14.00">ts </text>
<text text-anchor="start" x="64.98" y="-1414.6" font-family="Arial" font-size="14.00" fill="#666666">[TEXT]</text>
<polygon fill="none" stroke="black" points="43.2,-1371.6 43.2,-1402.4 1338.81,-1402.4 1338.81,-1371.6 43.2,-1371.6"/>
<text text-anchor="start" x="50.2" y="-1383.8" font-family="Arial" font-size="14.00">from_status </text>
<text text-anchor="start" x="127.23" y="-1383.8" font-family="Arial" font-size="14.00" fill="#666666">[TEXT]</text>
<polygon fill="none" stroke="black" points="43.2,-1340.8 43.2,-1371.6 1338.81,-1371.6 1338.81,-1340.8 43.2,-1340.8"/>
<text text-anchor="start" x="50.2" y="-1353" font-family="Arial" font-size="14.00">to_status </text>
<text text-anchor="start" x="110.9" y="-1353" font-family="Arial" font-size="14.00" fill="#666666">[TEXT]</text>
</g>
<!-- bug_events&#45;&gt;bugs -->
<g id="edge1" class="edge">
<title>bug_events:bug_id&#45;&gt;bugs:id</title>
<path fill="none" stroke="black" d="M1350.12,-1478.87C1487.37,-1464.33 1378.15,-1154 1228.94,-1154"/>
<polygon fill="black" stroke="black" points="1350.13,-1478.87 1339.91,-1474.89 1344.8,-1479.14 1340.48,-1479.37 1340.48,-1479.37 1340.48,-1479.37 1344.8,-1479.14 1340.37,-1483.88 1350.13,-1478.87"/>
<text text-anchor="start" x="1346.81" y="-1489.4" font-family="Arial" font-size="10.00">FOREIGN KEY (bug_id) REFERENCES bugs (id) ON UPDATE NO ACTION ON DELETE CASCADE MATCH NONE</text>
</g>
</g>
</svg>
