<?xml version="1.0" encoding="UTF-8" standalone="no"?>
<!DOCTYPE svg PUBLIC "-//W3C//DTD SVG 1.1//EN"
 "http://www.w3.org/Graphics/SVG/1.1/DTD/svg11.dtd">
<!-- Generated by graphviz version 12.1.2 (20240928.0832)
 -->
<!-- Title: deploy_environments Pages: 1 -->
<svg width="2918pt" height="1592pt"
 viewBox="0.00 0.00 2917.64 1592.00" xmlns="http://www.w3.org/2000/svg" xmlns:xlink="http://www.w3.org/1999/xlink">
<g id="graph0" class="graph" transform="scale(1 1) rotate(0) translate(4 1588)">
<title>deploy_environments</title>
<polygon fill="white" stroke="none" points="-4,4 -4,-1588 2913.64,-1588 2913.64,4 -4,4"/>
<!-- deploy_environments -->
<g id="node1" class="node">
<title>deploy_environments</title>
<polygon fill="#efefef" stroke="none" points="935.6,-1107.8 935.6,-1153.8 1876.41,-1153.8 1876.41,-1107.8 935.6,-1107.8"/>
<polygon fill="none" stroke="black" points="935.6,-1107.8 935.6,-1153.8 1876.41,-1153.8 1876.41,-1107.8 935.6,-1107.8"/>
<text text-anchor="start" x="1293.39" y="-1131.6" font-family="Arial Bold" font-size="18.00">deploy_environments</text>
<text text-anchor="start" x="1449.36" y="-1131.6" font-family="Arial" font-size="14.00">    </text>
<text text-anchor="start" x="1480.48" y="-1131.6" font-family="Arial" font-size="14.00" fill="#666666">[table]</text>
<text text-anchor="start" x="942.6" y="-1117.2" font-family="Arial" font-size="14.00" fill="#333333">One deploy environment (prod / staging / any custom name) for a repository; 1:N per repo since v20, which replaced the single deploy_manifests row.</text>
<polygon fill="none" stroke="black" points="935.6,-1077 935.6,-1107.8 1876.41,-1107.8 1876.41,-1077 935.6,-1077"/>
<text text-anchor="start" x="942.6" y="-1089.2" font-family="Arial" font-size="14.00">id </text>
<text text-anchor="start" x="957.39" y="-1089.2" font-family="Arial" font-size="14.00" fill="#666666">[INTEGER]</text>
<polygon fill="none" stroke="black" points="935.6,-1046.2 935.6,-1077 1876.41,-1077 1876.41,-1046.2 935.6,-1046.2"/>
<text text-anchor="start" x="942.6" y="-1058.4" font-family="Arial" font-size="14.00">repository_id </text>
<text text-anchor="start" x="1026.64" y="-1058.4" font-family="Arial" font-size="14.00" fill="#666666">[INTEGER]</text>
<polygon fill="none" stroke="black" points="935.6,-1015.4 935.6,-1046.2 1876.41,-1046.2 1876.41,-1015.4 935.6,-1015.4"/>
<text text-anchor="start" x="942.6" y="-1027.6" font-family="Arial" font-size="14.00">name </text>
<text text-anchor="start" x="981.51" y="-1027.6" font-family="Arial" font-size="14.00" fill="#666666">[TEXT]</text>
<polygon fill="none" stroke="black" points="935.6,-984.6 935.6,-1015.4 1876.41,-1015.4 1876.41,-984.6 935.6,-984.6"/>
<text text-anchor="start" x="942.6" y="-996.8" font-family="Arial" font-size="14.00">workflow_name </text>
<text text-anchor="start" x="1043.75" y="-996.8" font-family="Arial" font-size="14.00" fill="#666666">[TEXT]</text>
<polygon fill="none" stroke="black" points="935.6,-953.8 935.6,-984.6 1876.41,-984.6 1876.41,-953.8 935.6,-953.8"/>
<text text-anchor="start" x="942.6" y="-966" font-family="Arial" font-size="14.00">image_tag </text>
<text text-anchor="start" x="1011.87" y="-966" font-family="Arial" font-size="14.00" fill="#666666">[TEXT]</text>
<polygon fill="none" stroke="black" points="935.6,-923 935.6,-953.8 1876.41,-953.8 1876.41,-923 935.6,-923"/>
<text text-anchor="start" x="942.6" y="-935.2" font-family="Arial" font-size="14.00">compose_service </text>
<text text-anchor="start" x="1055.43" y="-935.2" font-family="Arial" font-size="14.00" fill="#666666">[TEXT]</text>
<polygon fill="none" stroke="black" points="935.6,-892.2 935.6,-923 1876.41,-923 1876.41,-892.2 935.6,-892.2"/>
<text text-anchor="start" x="942.6" y="-904.4" font-family="Arial" font-size="14.00">domain </text>
<text text-anchor="start" x="992.41" y="-904.4" font-family="Arial" font-size="14.00" fill="#666666">[TEXT]</text>
<polygon fill="none" stroke="black" points="935.6,-861.4 935.6,-892.2 1876.41,-892.2 1876.41,-861.4 935.6,-861.4"/>
<text text-anchor="start" x="942.6" y="-873.6" font-family="Arial" font-size="14.00">deploy_branch </text>
<text text-anchor="start" x="1038.34" y="-873.6" font-family="Arial" font-size="14.00" fill="#666666">[TEXT]</text>
<polygon fill="none" stroke="black" points="935.6,-830.6 935.6,-861.4 1876.41,-861.4 1876.41,-830.6 935.6,-830.6"/>
<text text-anchor="start" x="942.6" y="-842.8" font-family="Arial" font-size="14.00">sort_order </text>
<text text-anchor="start" x="1010.3" y="-842.8" font-family="Arial" font-size="14.00" fill="#666666">[INTEGER]</text>
<polygon fill="none" stroke="black" points="935.6,-799.8 935.6,-830.6 1876.41,-830.6 1876.41,-799.8 935.6,-799.8"/>
<text text-anchor="start" x="942.6" y="-812" font-family="Arial" font-size="14.00">extras </text>
<text text-anchor="start" x="984.61" y="-812" font-family="Arial" font-size="14.00" fill="#666666">[TEXT]</text>
<text text-anchor="start" x="1028.17" y="-812" font-family="Arial" font-size="14.00"> JSON map of environment&#45;scope placeholder values. Repo&#45;wide ones live in repositories.deploy_repo_config.</text>
<polygon fill="none" stroke="black" points="935.6,-769 935.6,-799.8 1876.41,-799.8 1876.41,-769 935.6,-769"/>
<text text-anchor="start" x="942.6" y="-781.2" font-family="Arial" font-size="14.00">updated_at </text>
<text text-anchor="start" x="1016.56" y="-781.2" font-family="Arial" font-size="14.00" fill="#666666">[TEXT]</text>
<polygon fill="none" stroke="black" stroke-width="3" points="934.1,-767.5 934.1,-1155.3 1877.91,-1155.3 1877.91,-767.5 934.1,-767.5"/>
</g>
<!-- repositories -->
<g id="node5" class="node">
<title>repositories</title>
<polygon fill="#efefef" stroke="none" points="790.47,-597.6 790.47,-643.6 2021.54,-643.6 2021.54,-597.6 790.47,-597.6"/>
<polygon fill="none" stroke="black" points="790.47,-597.6 790.47,-643.6 2021.54,-643.6 2021.54,-597.6 790.47,-597.6"/>
<text text-anchor="start" x="1329.39" y="-621.4" font-family="Arial Bold" font-size="18.00">repositories</text>
<text text-anchor="start" x="1413.37" y="-621.4" font-family="Arial" font-size="14.00">    </text>
<text text-anchor="start" x="1444.48" y="-621.4" font-family="Arial" font-size="14.00" fill="#666666">[table]</text>
<text text-anchor="start" x="1149.99" y="-607" font-family="Arial" font-size="14.00" fill="#333333">A repository belonging to at most one project. May be GitHub&#45;backed or local&#45;only.</text>
<polygon fill="none" stroke="black" points="790.47,-566.8 790.47,-597.6 2021.54,-597.6 2021.54,-566.8 790.47,-566.8"/>
<text text-anchor="start" x="797.47" y="-579" font-family="Arial" font-size="14.00">id </text>
<text text-anchor="start" x="812.26" y="-579" font-family="Arial" font-size="14.00" fill="#666666">[INTEGER]</text>
<polygon fill="none" stroke="black" points="790.47,-536 790.47,-566.8 2021.54,-566.8 2021.54,-536 790.47,-536"/>
<text text-anchor="start" x="797.47" y="-548.2" font-family="Arial" font-size="14.00">project_id </text>
<text text-anchor="start" x="862.07" y="-548.2" font-family="Arial" font-size="14.00" fill="#666666">[INTEGER]</text>
<text text-anchor="start" x="932.07" y="-548.2" font-family="Arial" font-size="14.00"> ON DELETE SET NULL — the only non&#45;cascading FK in the schema. Deleting a project orphans its repositories rather than destroying them.</text>
<polygon fill="none" stroke="black" points="790.47,-505.2 790.47,-536 2021.54,-536 2021.54,-505.2 790.47,-505.2"/>
<text text-anchor="start" x="797.47" y="-517.4" font-family="Arial" font-size="14.00">github_name </text>
<text text-anchor="start" x="882.31" y="-517.4" font-family="Arial" font-size="14.00" fill="#666666">[TEXT]</text>
<text text-anchor="start" x="925.87" y="-517.4" font-family="Arial" font-size="14.00"> UNIQUE, and nullable since v13 so local&#45;only repos (never pushed to GitHub) can exist. The last path segment is the canonical folder name used for all cross&#45;repo doc folders.</text>
<polygon fill="none" stroke="black" points="790.47,-474.4 790.47,-505.2 2021.54,-505.2 2021.54,-474.4 790.47,-474.4"/>
<text text-anchor="start" x="797.47" y="-486.6" font-family="Arial" font-size="14.00">github_url </text>
<text text-anchor="start" x="862.85" y="-486.6" font-family="Arial" font-size="14.00" fill="#666666">[TEXT]</text>
<polygon fill="none" stroke="black" points="790.47,-443.6 790.47,-474.4 2021.54,-474.4 2021.54,-443.6 790.47,-443.6"/>
<text text-anchor="start" x="797.47" y="-455.8" font-family="Arial" font-size="14.00">role </text>
<text text-anchor="start" x="824.71" y="-455.8" font-family="Arial" font-size="14.00" fill="#666666">[TEXT]</text>
<text text-anchor="start" x="868.27" y="-455.8" font-family="Arial" font-size="14.00"> &#39;microservice&#39; is still legal here but is legacy: v12 NULLed every such row when microservice became a project type rather than a repo role.</text>
<polygon fill="none" stroke="black" points="790.47,-412.8 790.47,-443.6 2021.54,-443.6 2021.54,-412.8 790.47,-412.8"/>
<text text-anchor="start" x="797.47" y="-425" font-family="Arial" font-size="14.00">description </text>
<text text-anchor="start" x="869.07" y="-425" font-family="Arial" font-size="14.00" fill="#666666">[TEXT]</text>
<polygon fill="none" stroke="black" points="790.47,-382 790.47,-412.8 2021.54,-412.8 2021.54,-382 790.47,-382"/>
<text text-anchor="start" x="797.47" y="-394.2" font-family="Arial" font-size="14.00">language </text>
<text text-anchor="start" x="858.98" y="-394.2" font-family="Arial" font-size="14.00" fill="#666666">[TEXT]</text>
<polygon fill="none" stroke="black" points="790.47,-351.2 790.47,-382 2021.54,-382 2021.54,-351.2 790.47,-351.2"/>
<text text-anchor="start" x="797.47" y="-363.4" font-family="Arial" font-size="14.00">last_pushed_at </text>
<text text-anchor="start" x="896.33" y="-363.4" font-family="Arial" font-size="14.00" fill="#666666">[DATETIME]</text>
<polygon fill="none" stroke="black" points="790.47,-320.4 790.47,-351.2 2021.54,-351.2 2021.54,-320.4 790.47,-320.4"/>
<text text-anchor="start" x="797.47" y="-332.6" font-family="Arial" font-size="14.00">added_at </text>
<text text-anchor="start" x="859.76" y="-332.6" font-family="Arial" font-size="14.00" fill="#666666">[DATETIME]</text>
<polygon fill="none" stroke="black" points="790.47,-289.6 790.47,-320.4 2021.54,-320.4 2021.54,-289.6 790.47,-289.6"/>
<text text-anchor="start" x="797.47" y="-301.8" font-family="Arial" font-size="14.00">updated_at </text>
<text text-anchor="start" x="871.43" y="-301.8" font-family="Arial" font-size="14.00" fill="#666666">[DATETIME]</text>
<polygon fill="none" stroke="black" points="790.47,-258.8 790.47,-289.6 2021.54,-289.6 2021.54,-258.8 790.47,-258.8"/>
<text text-anchor="start" x="797.47" y="-271" font-family="Arial" font-size="14.00">local_path </text>
<text text-anchor="start" x="865.19" y="-271" font-family="Arial" font-size="14.00" fill="#666666">[TEXT]</text>
<polygon fill="none" stroke="black" points="790.47,-228 790.47,-258.8 2021.54,-258.8 2021.54,-228 790.47,-228"/>
<text text-anchor="start" x="797.47" y="-240.2" font-family="Arial" font-size="14.00">github_id </text>
<text text-anchor="start" x="858.19" y="-240.2" font-family="Arial" font-size="14.00" fill="#666666">[INTEGER]</text>
<text text-anchor="start" x="928.2" y="-240.2" font-family="Arial" font-size="14.00"> Stable GitHub identifier — the basis of rename detection.</text>
<polygon fill="none" stroke="black" points="790.47,-197.2 790.47,-228 2021.54,-228 2021.54,-197.2 790.47,-197.2"/>
<text text-anchor="start" x="797.47" y="-209.4" font-family="Arial" font-size="14.00">deploy_target </text>
<text text-anchor="start" x="886.2" y="-209.4" font-family="Arial" font-size="14.00" fill="#666666">[TEXT]</text>
<text text-anchor="start" x="929.76" y="-209.4" font-family="Arial" font-size="14.00"> Matches templates.language_key.</text>
<polygon fill="none" stroke="black" points="790.47,-166.4 790.47,-197.2 2021.54,-197.2 2021.54,-166.4 790.47,-166.4"/>
<text text-anchor="start" x="797.47" y="-178.6" font-family="Arial" font-size="14.00">sort_order </text>
<text text-anchor="start" x="865.17" y="-178.6" font-family="Arial" font-size="14.00" fill="#666666">[INTEGER]</text>
<polygon fill="none" stroke="black" points="790.47,-135.6 790.47,-166.4 2021.54,-166.4 2021.54,-135.6 790.47,-135.6"/>
<text text-anchor="start" x="797.47" y="-147.8" font-family="Arial" font-size="14.00">bugs_migrated_at </text>
<text text-anchor="start" x="913.44" y="-147.8" font-family="Arial" font-size="14.00" fill="#666666">[TEXT]</text>
<text text-anchor="start" x="957" y="-147.8" font-family="Arial" font-size="14.00"> Lazy&#45;migration marker (v18); NULL means the repo&#39;s MD has never been imported.</text>
<polygon fill="none" stroke="black" points="790.47,-104.8 790.47,-135.6 2021.54,-135.6 2021.54,-104.8 790.47,-104.8"/>
<text text-anchor="start" x="797.47" y="-117" font-family="Arial" font-size="14.00">tasks_migrated_at </text>
<text text-anchor="start" x="915.76" y="-117" font-family="Arial" font-size="14.00" fill="#666666">[TEXT]</text>
<text text-anchor="start" x="959.31" y="-117" font-family="Arial" font-size="14.00"> Lazy&#45;migration marker (v21). While NULL, the first task sync suppresses &#39;created&#39; events so backfilling legacy files doesn&#39;t flood the timeline.</text>
<polygon fill="none" stroke="black" points="790.47,-74 790.47,-104.8 2021.54,-104.8 2021.54,-74 790.47,-74"/>
<text text-anchor="start" x="797.47" y="-86.2" font-family="Arial" font-size="14.00">deploy_repo_config </text>
<text text-anchor="start" x="923.57" y="-86.2" font-family="Arial" font-size="14.00" fill="#666666">[TEXT]</text>
<text text-anchor="start" x="967.13" y="-86.2" font-family="Arial" font-size="14.00"> v25 — JSON map of repo&#45;wide (not per&#45;environment) deploy placeholder values.</text>
<polygon fill="none" stroke="black" points="790.47,-43.2 790.47,-74 2021.54,-74 2021.54,-43.2 790.47,-43.2"/>
<text text-anchor="start" x="797.47" y="-55.4" font-family="Arial" font-size="14.00">autocommit_branch </text>
<text text-anchor="start" x="924.31" y="-55.4" font-family="Arial" font-size="14.00" fill="#666666">[TEXT]</text>
<text text-anchor="start" x="967.87" y="-55.4" font-family="Arial" font-size="14.00"> v28 — NULL means auto&#45;commit is off for this repo.</text>
</g>
<!-- deploy_environments&#45;&gt;repositories -->
<g id="edge4" class="edge">
<title>deploy_environments:repository_id&#45;&gt;repositories:id</title>
<path fill="none" stroke="black" d="M1887.79,-1061.25C2104.47,-1046.74 2241.67,-582.2 2022.54,-582.2"/>
<polygon fill="black" stroke="black" points="1887.74,-1061.25 1877.59,-1057.09 1882.41,-1061.43 1878.08,-1061.58 1878.08,-1061.58 1878.08,-1061.58 1882.41,-1061.43 1877.89,-1066.09 1887.74,-1061.25"/>
<text text-anchor="start" x="1884.41" y="-1071.6" font-family="Arial" font-size="10.00">FOREIGN KEY (repository_id) REFERENCES repositories (id) ON UPDATE NO ACTION ON DELETE CASCADE MATCH NONE</text>
</g>
<!-- deploy_secrets -->
<g id="node2" class="node">
<title>deploy_secrets</title>
<polygon fill="#efefef" stroke="none" points="43.2,-1494.8 43.2,-1540.8 868.81,-1540.8 868.81,-1494.8 43.2,-1494.8"/>
<polygon fill="none" stroke="black" points="43.2,-1494.8 43.2,-1540.8 868.81,-1540.8 868.81,-1494.8 43.2,-1494.8"/>
<text text-anchor="start" x="367.9" y="-1518.6" font-family="Arial Bold" font-size="18.00">deploy_secrets</text>
<text text-anchor="start" x="474.86" y="-1518.6" font-family="Arial" font-size="14.00">    </text>
<text text-anchor="start" x="505.98" y="-1518.6" font-family="Arial" font-size="14.00" fill="#666666">[table]</text>
<text text-anchor="start" x="50.2" y="-1504.2" font-family="Arial" font-size="14.00" fill="#333333">Per&#45;environment per&#45;secret flags: which role the secret plays and whether it is included or overridden. Values are NOT stored here.</text>
<polygon fill="none" stroke="black" points="43.2,-1464 43.2,-1494.8 868.81,-1494.8 868.81,-1464 43.2,-1464"/>
<text text-anchor="start" x="50.2" y="-1476.2" font-family="Arial" font-size="14.00">id </text>
<text text-anchor="start" x="64.99" y="-1476.2" font-family="Arial" font-size="14.00" fill="#666666">[INTEGER]</text>
<polygon fill="none" stroke="black" points="43.2,-1433.2 43.2,-1464 868.81,-1464 868.81,-1433.2 43.2,-1433.2"/>
<text text-anchor="start" x="50.2" y="-1445.4" font-family="Arial" font-size="14.00">deploy_env_id </text>
<text text-anchor="start" x="144.39" y="-1445.4" font-family="Arial" font-size="14.00" fill="#666666">[INTEGER]</text>
<polygon fill="none" stroke="black" points="43.2,-1402.4 43.2,-1433.2 868.81,-1433.2 868.81,-1402.4 43.2,-1402.4"/>
<text text-anchor="start" x="50.2" y="-1414.6" font-family="Arial" font-size="14.00">secret_name </text>
<text text-anchor="start" x="135.02" y="-1414.6" font-family="Arial" font-size="14.00" fill="#666666">[TEXT]</text>
<polygon fill="none" stroke="black" points="43.2,-1371.6 43.2,-1402.4 868.81,-1402.4 868.81,-1371.6 43.2,-1371.6"/>
<text text-anchor="start" x="50.2" y="-1383.8" font-family="Arial" font-size="14.00">role </text>
<text text-anchor="start" x="77.43" y="-1383.8" font-family="Arial" font-size="14.00" fill="#666666">[TEXT]</text>
<text text-anchor="start" x="120.99" y="-1383.8" font-family="Arial" font-size="14.00"> build / deploy / runtime — decides where the secret is injected.</text>
<polygon fill="none" stroke="black" points="43.2,-1340.8 43.2,-1371.6 868.81,-1371.6 868.81,-1340.8 43.2,-1340.8"/>
<text text-anchor="start" x="50.2" y="-1353" font-family="Arial" font-size="14.00">included </text>
<text text-anchor="start" x="106.24" y="-1353" font-family="Arial" font-size="14.00" fill="#666666">[INTEGER]</text>
<text text-anchor="start" x="176.25" y="-1353" font-family="Arial" font-size="14.00"> 0 excludes the secret from this environment without deleting its configuration.</text>
<polygon fill="none" stroke="black" points="43.2,-1310 43.2,-1340.8 868.81,-1340.8 868.81,-1310 43.2,-1310"/>
<text text-anchor="start" x="50.2" y="-1322.2" font-family="Arial" font-size="14.00">override_enabled </text>
<text text-anchor="start" x="162.28" y="-1322.2" font-family="Arial" font-size="14.00" fill="#666666">[INTEGER]</text>
<polygon fill="none" stroke="black" points="43.2,-1279.2 43.2,-1310 868.81,-1310 868.81,-1279.2 43.2,-1279.2"/>
<text text-anchor="start" x="50.2" y="-1291.4" font-family="Arial" font-size="14.00">sort_order </text>
<text text-anchor="start" x="117.9" y="-1291.4" font-family="Arial" font-size="14.00" fill="#666666">[INTEGER]</text>
</g>
<!-- deploy_secrets&#45;&gt;deploy_environments -->
<g id="edge1" class="edge">
<title>deploy_secrets:deploy_env_id&#45;&gt;deploy_environments:id</title>
<path fill="none" stroke="black" d="M880,-1446.33C941.64,-1415.99 857.92,-1092.4 934.6,-1092.4"/>
<polygon fill="black" stroke="black" points="879.9,-1446.35 869.16,-1444.14 874.69,-1447.51 870.46,-1448.45 870.46,-1448.45 870.46,-1448.45 874.69,-1447.51 871.12,-1452.92 879.9,-1446.35"/>
<text text-anchor="start" x="876.81" y="-1458.6" font-family="Arial" font-size="10.00">FOREIGN KEY (deploy_env_id) REFERENCES deploy_environments (id) ON UPDATE NO ACTION ON DELETE CASCADE MATCH NONE</text>
</g>
<!-- deploy_events -->
<g id="node3" class="node">
<title>deploy_events</title>
<polygon fill="#efefef" stroke="none" points="973.31,-1479.4 973.31,-1525.4 1838.7,-1525.4 1838.7,-1479.4 973.31,-1479.4"/>
<polygon fill="none" stroke="black" points="973.31,-1479.4 973.31,-1525.4 1838.7,-1525.4 1838.7,-1479.4 973.31,-1479.4"/>
<text text-anchor="start" x="1319.39" y="-1503.2" font-family="Arial Bold" font-size="18.00">deploy_events</text>
<text text-anchor="start" x="1423.37" y="-1503.2" font-family="Arial" font-size="14.00">    </text>
<text text-anchor="start" x="1454.48" y="-1503.2" font-family="Arial" font-size="14.00" fill="#666666">[table]</text>
<text text-anchor="start" x="980.31" y="-1488.8" font-family="Arial" font-size="14.00" fill="#333333">Log of deploy operations (template render, GitHub secret set/delete). deploy_env_id is nullable so repo&#45;level actions can be recorded too.</text>
<polygon fill="none" stroke="black" points="973.31,-1448.6 973.31,-1479.4 1838.7,-1479.4 1838.7,-1448.6 973.31,-1448.6"/>
<text text-anchor="start" x="980.31" y="-1460.8" font-family="Arial" font-size="14.00">id </text>
<text text-anchor="start" x="995.09" y="-1460.8" font-family="Arial" font-size="14.00" fill="#666666">[INTEGER]</text>
<polygon fill="none" stroke="black" points="973.31,-1417.8 973.31,-1448.6 1838.7,-1448.6 1838.7,-1417.8 973.31,-1417.8"/>
<text text-anchor="start" x="980.31" y="-1430" font-family="Arial" font-size="14.00">deploy_env_id </text>
<text text-anchor="start" x="1074.49" y="-1430" font-family="Arial" font-size="14.00" fill="#666666">[INTEGER]</text>
<polygon fill="none" stroke="black" points="973.31,-1387 973.31,-1417.8 1838.7,-1417.8 1838.7,-1387 973.31,-1387"/>
<text text-anchor="start" x="980.31" y="-1399.2" font-family="Arial" font-size="14.00">repository_id </text>
<text text-anchor="start" x="1064.35" y="-1399.2" font-family="Arial" font-size="14.00" fill="#666666">[INTEGER]</text>
<polygon fill="none" stroke="black" points="973.31,-1356.2 973.31,-1387 1838.7,-1387 1838.7,-1356.2 973.31,-1356.2"/>
<text text-anchor="start" x="980.31" y="-1368.4" font-family="Arial" font-size="14.00">action </text>
<text text-anchor="start" x="1021.56" y="-1368.4" font-family="Arial" font-size="14.00" fill="#666666">[TEXT]</text>
<polygon fill="none" stroke="black" points="973.31,-1325.4 973.31,-1356.2 1838.7,-1356.2 1838.7,-1325.4 973.31,-1325.4"/>
<text text-anchor="start" x="980.31" y="-1337.6" font-family="Arial" font-size="14.00">ts </text>
<text text-anchor="start" x="995.09" y="-1337.6" font-family="Arial" font-size="14.00" fill="#666666">[TEXT]</text>
<polygon fill="none" stroke="black" points="973.31,-1294.6 973.31,-1325.4 1838.7,-1325.4 1838.7,-1294.6 973.31,-1294.6"/>
<text text-anchor="start" x="980.31" y="-1306.8" font-family="Arial" font-size="14.00">details </text>
<text text-anchor="start" x="1024.67" y="-1306.8" font-family="Arial" font-size="14.00" fill="#666666">[TEXT]</text>
</g>
<!-- deploy_events&#45;&gt;deploy_environments -->
<g id="edge2" class="edge">
<title>deploy_events:deploy_env_id&#45;&gt;deploy_environments:id</title>
<path fill="none" stroke="black" d="M1848.37,-1427.57C1883.11,-1383.26 1912.61,-1092.4 1877.41,-1092.4"/>
<polygon fill="black" stroke="black" points="1848.37,-1427.57 1837.53,-1429.24 1843.9,-1430.48 1840.26,-1432.84 1840.26,-1432.84 1840.26,-1432.84 1843.9,-1430.48 1842.44,-1436.79 1848.37,-1427.57"/>
<text text-anchor="start" x="1525.45" y="-1417.2" font-family="Arial" font-size="10.00">FOREIGN KEY (deploy_env_id) REFERENCES deploy_environments (id) ON UPDATE NO ACTION ON DELETE CASCADE MATCH NONE</text>
</g>
<!-- deploy_secret_values -->
<g id="node4" class="node">
<title>deploy_secret_values</title>
<polygon fill="#efefef" stroke="none" points="1943.57,-1479.4 1943.57,-1525.4 2866.44,-1525.4 2866.44,-1479.4 1943.57,-1479.4"/>
<polygon fill="none" stroke="black" points="1943.57,-1479.4 1943.57,-1525.4 2866.44,-1525.4 2866.44,-1479.4 1943.57,-1479.4"/>
<text text-anchor="start" x="2292.91" y="-1503.2" font-family="Arial Bold" font-size="18.00">deploy_secret_values</text>
<text text-anchor="start" x="2447.85" y="-1503.2" font-family="Arial" font-size="14.00">    </text>
<text text-anchor="start" x="2478.97" y="-1503.2" font-family="Arial" font-size="14.00" fill="#666666">[table]</text>
<text text-anchor="start" x="1950.57" y="-1488.8" font-family="Arial" font-size="14.00" fill="#333333">v27 — persisted deploy secret values, encrypted at rest with AES&#45;256&#45;GCM. The data key lives in the OS keyring; no plaintext value is ever stored.</text>
<polygon fill="none" stroke="black" points="1943.57,-1448.6 1943.57,-1479.4 2866.44,-1479.4 2866.44,-1448.6 1943.57,-1448.6"/>
<text text-anchor="start" x="1950.57" y="-1460.8" font-family="Arial" font-size="14.00">id </text>
<text text-anchor="start" x="1965.35" y="-1460.8" font-family="Arial" font-size="14.00" fill="#666666">[INTEGER]</text>
<polygon fill="none" stroke="black" points="1943.57,-1417.8 1943.57,-1448.6 2866.44,-1448.6 2866.44,-1417.8 1943.57,-1417.8"/>
<text text-anchor="start" x="1950.57" y="-1430" font-family="Arial" font-size="14.00">deploy_env_id </text>
<text text-anchor="start" x="2044.75" y="-1430" font-family="Arial" font-size="14.00" fill="#666666">[INTEGER]</text>
<polygon fill="none" stroke="black" points="1943.57,-1387 1943.57,-1417.8 2866.44,-1417.8 2866.44,-1387 1943.57,-1387"/>
<text text-anchor="start" x="1950.57" y="-1399.2" font-family="Arial" font-size="14.00">secret_name </text>
<text text-anchor="start" x="2035.39" y="-1399.2" font-family="Arial" font-size="14.00" fill="#666666">[TEXT]</text>
<polygon fill="none" stroke="black" points="1943.57,-1356.2 1943.57,-1387 2866.44,-1387 2866.44,-1356.2 1943.57,-1356.2"/>
<text text-anchor="start" x="1950.57" y="-1368.4" font-family="Arial" font-size="14.00">ciphertext </text>
<text text-anchor="start" x="2015.15" y="-1368.4" font-family="Arial" font-size="14.00" fill="#666666">[BLOB]</text>
<text text-anchor="start" x="2060.28" y="-1368.4" font-family="Arial" font-size="14.00"> AES&#45;256&#45;GCM ciphertext. Never logged, never exported.</text>
<polygon fill="none" stroke="black" points="1943.57,-1325.4 1943.57,-1356.2 2866.44,-1356.2 2866.44,-1325.4 1943.57,-1325.4"/>
<text text-anchor="start" x="1950.57" y="-1337.6" font-family="Arial" font-size="14.00">nonce </text>
<text text-anchor="start" x="1992.6" y="-1337.6" font-family="Arial" font-size="14.00" fill="#666666">[BLOB]</text>
<text text-anchor="start" x="2037.73" y="-1337.6" font-family="Arial" font-size="14.00"> Per&#45;value random nonce; required to decrypt ciphertext.</text>
<polygon fill="none" stroke="black" points="1943.57,-1294.6 1943.57,-1325.4 2866.44,-1325.4 2866.44,-1294.6 1943.57,-1294.6"/>
<text text-anchor="start" x="1950.57" y="-1306.8" font-family="Arial" font-size="14.00">updated_at </text>
<text text-anchor="start" x="2024.52" y="-1306.8" font-family="Arial" font-size="14.00" fill="#666666">[TEXT]</text>
</g>
<!-- deploy_secret_values&#45;&gt;deploy_environments -->
<g id="edge3" class="edge">
<title>deploy_secret_values:deploy_env_id&#45;&gt;deploy_environments:id</title>
<path fill="none" stroke="black" d="M1932.42,-1430.84C1873.76,-1400.73 1950.75,-1092.4 1877.41,-1092.4"/>
<polygon fill="black" stroke="black" points="1932.5,-1430.86 1941.22,-1437.51 1937.7,-1432.07 1941.91,-1433.05 1941.91,-1433.05 1941.91,-1433.05 1937.7,-1432.07 1943.26,-1428.74 1932.5,-1430.86"/>
<text text-anchor="start" x="1949.57" y="-1443.2" font-family="Arial" font-size="10.00">FOREIGN KEY (deploy_env_id) REFERENCES deploy_environments (id) ON UPDATE NO ACTION ON DELETE CASCADE MATCH NONE</text>
</g>
</g>
</svg>
