<?xml version="1.0" encoding="UTF-8" standalone="no"?>
<!DOCTYPE svg PUBLIC "-//W3C//DTD SVG 1.1//EN"
 "http://www.w3.org/Graphics/SVG/1.1/DTD/svg11.dtd">
<!-- Generated by graphviz version 12.1.2 (20240928.0832)
 -->
<!-- Title: deploy_events Pages: 1 -->
<svg width="2370pt" height="1054pt"
 viewBox="0.00 0.00 2370.34 1054.00" xmlns="http://www.w3.org/2000/svg" xmlns:xlink="http://www.w3.org/1999/xlink">
<g id="graph0" class="graph" transform="scale(1 1) rotate(0) translate(4 1050)">
<title>deploy_events</title>
<polygon fill="white" stroke="none" points="-4,4 -4,-1050 2366.34,-1050 2366.34,4 -4,4"/>
<!-- deploy_events -->
<g id="node1" class="node">
<title>deploy_events</title>
<polygon fill="#efefef" stroke="none" points="675.91,-953.8 675.91,-999.8 1541.3,-999.8 1541.3,-953.8 675.91,-953.8"/>
<polygon fill="none" stroke="black" points="675.91,-953.8 675.91,-999.8 1541.3,-999.8 1541.3,-953.8 675.91,-953.8"/>
<text text-anchor="start" x="1021.99" y="-977.6" font-family="Arial Bold" font-size="18.00">deploy_events</text>
<text text-anchor="start" x="1125.96" y="-977.6" font-family="Arial" font-size="14.00">    </text>
<text text-anchor="start" x="1157.08" y="-977.6" font-family="Arial" font-size="14.00" fill="#666666">[table]</text>
<text text-anchor="start" x="682.91" y="-963.2" font-family="Arial" font-size="14.00" fill="#333333">Log of deploy operations (template render, GitHub secret set/delete). deploy_env_id is nullable so repo&#45;level actions can be recorded too.</text>
<polygon fill="none" stroke="black" points="675.91,-923 675.91,-953.8 1541.3,-953.8 1541.3,-923 675.91,-923"/>
<text text-anchor="start" x="682.91" y="-935.2" font-family="Arial" font-size="14.00">id </text>
<text text-anchor="start" x="697.69" y="-935.2" font-family="Arial" font-size="14.00" fill="#666666">[INTEGER]</text>
<polygon fill="none" stroke="black" points="675.91,-892.2 675.91,-923 1541.3,-923 1541.3,-892.2 675.91,-892.2"/>
<text text-anchor="start" x="682.91" y="-904.4" font-family="Arial" font-size="14.00">deploy_env_id </text>
<text text-anchor="start" x="777.09" y="-904.4" font-family="Arial" font-size="14.00" fill="#666666">[INTEGER]</text>
<polygon fill="none" stroke="black" points="675.91,-861.4 675.91,-892.2 1541.3,-892.2 1541.3,-861.4 675.91,-861.4"/>
<text text-anchor="start" x="682.91" y="-873.6" font-family="Arial" font-size="14.00">repository_id </text>
<text text-anchor="start" x="766.95" y="-873.6" font-family="Arial" font-size="14.00" fill="#666666">[INTEGER]</text>
<polygon fill="none" stroke="black" points="675.91,-830.6 675.91,-861.4 1541.3,-861.4 1541.3,-830.6 675.91,-830.6"/>
<text text-anchor="start" x="682.91" y="-842.8" font-family="Arial" font-size="14.00">action </text>
<text text-anchor="start" x="724.16" y="-842.8" font-family="Arial" font-size="14.00" fill="#666666">[TEXT]</text>
<polygon fill="none" stroke="black" points="675.91,-799.8 675.91,-830.6 1541.3,-830.6 1541.3,-799.8 675.91,-799.8"/>
<text text-anchor="start" x="682.91" y="-812" font-family="Arial" font-size="14.00">ts </text>
<text text-anchor="start" x="697.69" y="-812" font-family="Arial" font-size="14.00" fill="#666666">[TEXT]</text>
<polygon fill="none" stroke="black" points="675.91,-769 675.91,-799.8 1541.3,-799.8 1541.3,-769 675.91,-769"/>
<text text-anchor="start" x="682.91" y="-781.2" font-family="Arial" font-size="14.00">details </text>
<text text-anchor="start" x="727.27" y="-781.2" font-family="Arial" font-size="14.00" fill="#666666">[TEXT]</text>
<polygon fill="none" stroke="black" stroke-width="3" points="674.41,-767.5 674.41,-1001.3 1542.8,-1001.3 1542.8,-767.5 674.41,-767.5"/>
</g>
<!-- deploy_environments -->
<g id="node2" class="node">
<title>deploy_environments</title>
<polygon fill="#efefef" stroke="none" points="43.2,-489.8 43.2,-535.8 984.01,-535.8 984.01,-489.8 43.2,-489.8"/>
<polygon fill="none" stroke="black" points="43.2,-489.8 43.2,-535.8 984.01,-535.8 984.01,-489.8 43.2,-489.8"/>
<text text-anchor="start" x="400.99" y="-513.6" font-family="Arial Bold" font-size="18.00">deploy_environments</text>
<text text-anchor="start" x="556.96" y="-513.6" font-family="Arial" font-size="14.00">    </text>
<text text-anchor="start" x="588.08" y="-513.6" font-family="Arial" font-size="14.00" fill="#666666">[table]</text>
<text text-anchor="start" x="50.2" y="-499.2" font-family="Arial" font-size="14.00" fill="#333333">One deploy environment (prod / staging / any custom name) for a repository; 1:N per repo since v20, which replaced the single deploy_manifests row.</text>
<polygon fill="none" stroke="black" points="43.2,-459 43.2,-489.8 984.01,-489.8 984.01,-459 43.2,-459"/>
<text text-anchor="start" x="50.2" y="-471.2" font-family="Arial" font-size="14.00">id </text>
<text text-anchor="start" x="64.99" y="-471.2" font-family="Arial" font-size="14.00" fill="#666666">[INTEGER]</text>
<polygon fill="none" stroke="black" points="43.2,-428.2 43.2,-459 984.01,-459 984.01,-428.2 43.2,-428.2"/>
<text text-anchor="start" x="50.2" y="-440.4" font-family="Arial" font-size="14.00">repository_id </text>
<text text-anchor="start" x="134.24" y="-440.4" font-family="Arial" font-size="14.00" fill="#666666">[INTEGER]</text>
<polygon fill="none" stroke="black" points="43.2,-397.4 43.2,-428.2 984.01,-428.2 984.01,-397.4 43.2,-397.4"/>
<text text-anchor="start" x="50.2" y="-409.6" font-family="Arial" font-size="14.00">name </text>
<text text-anchor="start" x="89.11" y="-409.6" font-family="Arial" font-size="14.00" fill="#666666">[TEXT]</text>
<polygon fill="none" stroke="black" points="43.2,-366.6 43.2,-397.4 984.01,-397.4 984.01,-366.6 43.2,-366.6"/>
<text text-anchor="start" x="50.2" y="-378.8" font-family="Arial" font-size="14.00">workflow_name </text>
<text text-anchor="start" x="151.35" y="-378.8" font-family="Arial" font-size="14.00" fill="#666666">[TEXT]</text>
<polygon fill="none" stroke="black" points="43.2,-335.8 43.2,-366.6 984.01,-366.6 984.01,-335.8 43.2,-335.8"/>
<text text-anchor="start" x="50.2" y="-348" font-family="Arial" font-size="14.00">image_tag </text>
<text text-anchor="start" x="119.47" y="-348" font-family="Arial" font-size="14.00" fill="#666666">[TEXT]</text>
<polygon fill="none" stroke="black" points="43.2,-305 43.2,-335.8 984.01,-335.8 984.01,-305 43.2,-305"/>
<text text-anchor="start" x="50.2" y="-317.2" font-family="Arial" font-size="14.00">compose_service </text>
<text text-anchor="start" x="163.03" y="-317.2" font-family="Arial" font-size="14.00" fill="#666666">[TEXT]</text>
<polygon fill="none" stroke="black" points="43.2,-274.2 43.2,-305 984.01,-305 984.01,-274.2 43.2,-274.2"/>
<text text-anchor="start" x="50.2" y="-286.4" font-family="Arial" font-size="14.00">domain </text>
<text text-anchor="start" x="100.01" y="-286.4" font-family="Arial" font-size="14.00" fill="#666666">[TEXT]</text>
<polygon fill="none" stroke="black" points="43.2,-243.4 43.2,-274.2 984.01,-274.2 984.01,-243.4 43.2,-243.4"/>
<text text-anchor="start" x="50.2" y="-255.6" font-family="Arial" font-size="14.00">deploy_branch </text>
<text text-anchor="start" x="145.94" y="-255.6" font-family="Arial" font-size="14.00" fill="#666666">[TEXT]</text>
<polygon fill="none" stroke="black" points="43.2,-212.6 43.2,-243.4 984.01,-243.4 984.01,-212.6 43.2,-212.6"/>
<text text-anchor="start" x="50.2" y="-224.8" font-family="Arial" font-size="14.00">sort_order </text>
<text text-anchor="start" x="117.9" y="-224.8" font-family="Arial" font-size="14.00" fill="#666666">[INTEGER]</text>
<polygon fill="none" stroke="black" points="43.2,-181.8 43.2,-212.6 984.01,-212.6 984.01,-181.8 43.2,-181.8"/>
<text text-anchor="start" x="50.2" y="-194" font-family="Arial" font-size="14.00">extras </text>
<text text-anchor="start" x="92.21" y="-194" font-family="Arial" font-size="14.00" fill="#666666">[TEXT]</text>
<text text-anchor="start" x="135.77" y="-194" font-family="Arial" font-size="14.00"> JSON map of environment&#45;scope placeholder values. Repo&#45;wide ones live in repositories.deploy_repo_config.</text>
<polygon fill="none" stroke="black" points="43.2,-151 43.2,-181.8 984.01,-181.8 984.01,-151 43.2,-151"/>
<text text-anchor="start" x="50.2" y="-163.2" font-family="Arial" font-size="14.00">updated_at </text>
<text text-anchor="start" x="124.16" y="-163.2" font-family="Arial" font-size="14.00" fill="#666666">[TEXT]</text>
</g>
<!-- deploy_events&#45;&gt;deploy_environments -->
<g id="edge1" class="edge">
<title>deploy_events:deploy_env_id&#45;&gt;deploy_environments:id</title>
<path fill="none" stroke="black" d="M664.56,-906.91C596.27,-897.3 633.59,-788.85 675.91,-722.8 757.42,-595.56 902.23,-706.07 984.01,-579 1009.17,-539.91 1031.5,-474.4 985.01,-474.4"/>
<polygon fill="black" stroke="black" points="664.6,-906.92 674.28,-912.07 669.92,-907.27 674.24,-907.56 674.24,-907.56 674.24,-907.56 669.92,-907.27 674.87,-903.09 664.6,-906.92"/>
<text text-anchor="start" x="39.41" y="-917.6" font-family="Arial" font-size="10.00">FOREIGN KEY (deploy_env_id) REFERENCES deploy_environments (id) ON UPDATE NO ACTION ON DELETE CASCADE MATCH NONE</text>
</g>
<!-- repositories -->
<g id="node3" class="node">
<title>repositories</title>
<polygon fill="#efefef" stroke="none" points="1088.07,-597.6 1088.07,-643.6 2319.14,-643.6 2319.14,-597.6 1088.07,-597.6"/>
<polygon fill="none" stroke="black" points="1088.07,-597.6 1088.07,-643.6 2319.14,-643.6 2319.14,-597.6 1088.07,-597.6"/>
<text text-anchor="start" x="1626.99" y="-621.4" font-family="Arial Bold" font-size="18.00">repositories</text>
<text text-anchor="start" x="1710.97" y="-621.4" font-family="Arial" font-size="14.00">    </text>
<text text-anchor="start" x="1742.08" y="-621.4" font-family="Arial" font-size="14.00" fill="#666666">[table]</text>
<text text-anchor="start" x="1447.59" y="-607" font-family="Arial" font-size="14.00" fill="#333333">A repository belonging to at most one project. May be GitHub&#45;backed or local&#45;only.</text>
<polygon fill="none" stroke="black" points="1088.07,-566.8 1088.07,-597.6 2319.14,-597.6 2319.14,-566.8 1088.07,-566.8"/>
<text text-anchor="start" x="1095.07" y="-579" font-family="Arial" font-size="14.00">id </text>
<text text-anchor="start" x="1109.86" y="-579" font-family="Arial" font-size="14.00" fill="#666666">[INTEGER]</text>
<polygon fill="none" stroke="black" points="1088.07,-536 1088.07,-566.8 2319.14,-566.8 2319.14,-536 1088.07,-536"/>
<text text-anchor="start" x="1095.07" y="-548.2" font-family="Arial" font-size="14.00">project_id </text>
<text text-anchor="start" x="1159.67" y="-548.2" font-family="Arial" font-size="14.00" fill="#666666">[INTEGER]</text>
<text text-anchor="start" x="1229.67" y="-548.2" font-family="Arial" font-size="14.00"> ON DELETE SET NULL — the only non&#45;cascading FK in the schema. Deleting a project orphans its repositories rather than destroying them.</text>
<polygon fill="none" stroke="black" points="1088.07,-505.2 1088.07,-536 2319.14,-536 2319.14,-505.2 1088.07,-505.2"/>
<text text-anchor="start" x="1095.07" y="-517.4" font-family="Arial" font-size="14.00">github_name </text>
<text text-anchor="start" x="1179.91" y="-517.4" font-family="Arial" font-size="14.00" fill="#666666">[TEXT]</text>
<text text-anchor="start" x="1223.47" y="-517.4" font-family="Arial" font-size="14.00"> UNIQUE, and nullable since v13 so local&#45;only repos (never pushed to GitHub) can exist. The last path segment is the canonical folder name used for all cross&#45;repo doc folders.</text>
<polygon fill="none" stroke="black" points="1088.07,-474.4 1088.07,-505.2 2319.14,-505.2 2319.14,-474.4 1088.07,-474.4"/>
<text text-anchor="start" x="1095.07" y="-486.6" font-family="Arial" font-size="14.00">github_url </text>
<text text-anchor="start" x="1160.45" y="-486.6" font-family="Arial" font-size="14.00" fill="#666666">[TEXT]</text>
<polygon fill="none" stroke="black" points="1088.07,-443.6 1088.07,-474.4 2319.14,-474.4 2319.14,-443.6 1088.07,-443.6"/>
<text text-anchor="start" x="1095.07" y="-455.8" font-family="Arial" font-size="14.00">role </text>
<text text-anchor="start" x="1122.31" y="-455.8" font-family="Arial" font-size="14.00" fill="#666666">[TEXT]</text>
<text text-anchor="start" x="1165.87" y="-455.8" font-family="Arial" font-size="14.00"> &#39;microservice&#39; is still legal here but is legacy: v12 NULLed every such row when microservice became a project type rather than a repo role.</text>
<polygon fill="none" stroke="black" points="1088.07,-412.8 1088.07,-443.6 2319.14,-443.6 2319.14,-412.8 1088.07,-412.8"/>
<text text-anchor="start" x="1095.07" y="-425" font-family="Arial" font-size="14.00">description </text>
<text text-anchor="start" x="1166.67" y="-425" font-family="Arial" font-size="14.00" fill="#666666">[TEXT]</text>
<polygon fill="none" stroke="black" points="1088.07,-382 1088.07,-412.8 2319.14,-412.8 2319.14,-382 1088.07,-382"/>
<text text-anchor="start" x="1095.07" y="-394.2" font-family="Arial" font-size="14.00">language </text>
<text text-anchor="start" x="1156.58" y="-394.2" font-family="Arial" font-size="14.00" fill="#666666">[TEXT]</text>
<polygon fill="none" stroke="black" points="1088.07,-351.2 1088.07,-382 2319.14,-382 2319.14,-351.2 1088.07,-351.2"/>
<text text-anchor="start" x="1095.07" y="-363.4" font-family="Arial" font-size="14.00">last_pushed_at </text>
<text text-anchor="start" x="1193.93" y="-363.4" font-family="Arial" font-size="14.00" fill="#666666">[DATETIME]</text>
<polygon fill="none" stroke="black" points="1088.07,-320.4 1088.07,-351.2 2319.14,-351.2 2319.14,-320.4 1088.07,-320.4"/>
<text text-anchor="start" x="1095.07" y="-332.6" font-family="Arial" font-size="14.00">added_at </text>
<text text-anchor="start" x="1157.36" y="-332.6" font-family="Arial" font-size="14.00" fill="#666666">[DATETIME]</text>
<polygon fill="none" stroke="black" points="1088.07,-289.6 1088.07,-320.4 2319.14,-320.4 2319.14,-289.6 1088.07,-289.6"/>
<text text-anchor="start" x="1095.07" y="-301.8" font-family="Arial" font-size="14.00">updated_at </text>
<text text-anchor="start" x="1169.03" y="-301.8" font-family="Arial" font-size="14.00" fill="#666666">[DATETIME]</text>
<polygon fill="none" stroke="black" points="1088.07,-258.8 1088.07,-289.6 2319.14,-289.6 2319.14,-258.8 1088.07,-258.8"/>
<text text-anchor="start" x="1095.07" y="-271" font-family="Arial" font-size="14.00">local_path </text>
<text text-anchor="start" x="1162.79" y="-271" font-family="Arial" font-size="14.00" fill="#666666">[TEXT]</text>
<polygon fill="none" stroke="black" points="1088.07,-228 1088.07,-258.8 2319.14,-258.8 2319.14,-228 1088.07,-228"/>
<text text-anchor="start" x="1095.07" y="-240.2" font-family="Arial" font-size="14.00">github_id </text>
<text text-anchor="start" x="1155.79" y="-240.2" font-family="Arial" font-size="14.00" fill="#666666">[INTEGER]</text>
<text text-anchor="start" x="1225.8" y="-240.2" font-family="Arial" font-size="14.00"> Stable GitHub identifier — the basis of rename detection.</text>
<polygon fill="none" stroke="black" points="1088.07,-197.2 1088.07,-228 2319.14,-228 2319.14,-197.2 1088.07,-197.2"/>
<text text-anchor="start" x="1095.07" y="-209.4" font-family="Arial" font-size="14.00">deploy_target </text>
<text text-anchor="start" x="1183.8" y="-209.4" font-family="Arial" font-size="14.00" fill="#666666">[TEXT]</text>
<text text-anchor="start" x="1227.36" y="-209.4" font-family="Arial" font-size="14.00"> Matches templates.language_key.</text>
<polygon fill="none" stroke="black" points="1088.07,-166.4 1088.07,-197.2 2319.14,-197.2 2319.14,-166.4 1088.07,-166.4"/>
<text text-anchor="start" x="1095.07" y="-178.6" font-family="Arial" font-size="14.00">sort_order </text>
<text text-anchor="start" x="1162.77" y="-178.6" font-family="Arial" font-size="14.00" fill="#666666">[INTEGER]</text>
<polygon fill="none" stroke="black" points="1088.07,-135.6 1088.07,-166.4 2319.14,-166.4 2319.14,-135.6 1088.07,-135.6"/>
<text text-anchor="start" x="1095.07" y="-147.8" font-family="Arial" font-size="14.00">bugs_migrated_at </text>
<text text-anchor="start" x="1211.04" y="-147.8" font-family="Arial" font-size="14.00" fill="#666666">[TEXT]</text>
<text text-anchor="start" x="1254.6" y="-147.8" font-family="Arial" font-size="14.00"> Lazy&#45;migration marker (v18); NULL means the repo&#39;s MD has never been imported.</text>
<polygon fill="none" stroke="black" points="1088.07,-104.8 1088.07,-135.6 2319.14,-135.6 2319.14,-104.8 1088.07,-104.8"/>
<text text-anchor="start" x="1095.07" y="-117" font-family="Arial" font-size="14.00">tasks_migrated_at </text>
<text text-anchor="start" x="1213.36" y="-117" font-family="Arial" font-size="14.00" fill="#666666">[TEXT]</text>
<text text-anchor="start" x="1256.91" y="-117" font-family="Arial" font-size="14.00"> Lazy&#45;migration marker (v21). While NULL, the first task sync suppresses &#39;created&#39; events so backfilling legacy files doesn&#39;t flood the timeline.</text>
<polygon fill="none" stroke="black" points="1088.07,-74 1088.07,-104.8 2319.14,-104.8 2319.14,-74 1088.07,-74"/>
<text text-anchor="start" x="1095.07" y="-86.2" font-family="Arial" font-size="14.00">deploy_repo_config </text>
<text text-anchor="start" x="1221.17" y="-86.2" font-family="Arial" font-size="14.00" fill="#666666">[TEXT]</text>
<text text-anchor="start" x="1264.73" y="-86.2" font-family="Arial" font-size="14.00"> v25 — JSON map of repo&#45;wide (not per&#45;environment) deploy placeholder values.</text>
<polygon fill="none" stroke="black" points="1088.07,-43.2 1088.07,-74 2319.14,-74 2319.14,-43.2 1088.07,-43.2"/>
<text text-anchor="start" x="1095.07" y="-55.4" font-family="Arial" font-size="14.00">autocommit_branch </text>
<text text-anchor="start" x="1221.91" y="-55.4" font-family="Arial" font-size="14.00" fill="#666666">[TEXT]</text>
<text text-anchor="start" x="1265.47" y="-55.4" font-family="Arial" font-size="14.00"> v28 — NULL means auto&#45;commit is off for this repo.</text>
</g>
<!-- deploy_events&#45;&gt;repositories -->
<g id="edge2" class="edge">
<title>deploy_events:repository_id&#45;&gt;repositories:id</title>
<path fill="none" stroke="black" d="M1552.38,-875.96C1608.27,-865.99 1585.45,-770.28 1541.3,-722.8 1472.51,-648.81 1156.98,-760.69 1088.07,-686.8 1056.36,-652.8 1040.58,-582.2 1087.07,-582.2"/>
<polygon fill="black" stroke="black" points="1552.6,-875.94 1542.26,-872.29 1547.29,-876.38 1542.97,-876.74 1542.97,-876.74 1542.97,-876.74 1547.29,-876.38 1543.01,-881.26 1552.6,-875.94"/>
<text text-anchor="start" x="1549.3" y="-886.8" font-family="Arial" font-size="10.00">FOREIGN KEY (repository_id) REFERENCES repositories (id) ON UPDATE NO ACTION ON DELETE CASCADE MATCH NONE</text>
</g>
</g>
</svg>
