<?xml version="1.0" encoding="UTF-8" standalone="no"?>
<!DOCTYPE svg PUBLIC "-//W3C//DTD SVG 1.1//EN"
 "http://www.w3.org/Graphics/SVG/1.1/DTD/svg11.dtd">
<!-- Generated by graphviz version 12.1.2 (20240928.0832)
 -->
<!-- Title: deploy_secret_values Pages: 1 -->
<svg width="1627pt" height="838pt"
 viewBox="0.00 0.00 1626.54 838.40" xmlns="http://www.w3.org/2000/svg" xmlns:xlink="http://www.w3.org/1999/xlink">
<g id="graph0" class="graph" transform="scale(1 1) rotate(0) translate(4 834.4)">
<title>deploy_secret_values</title>
<polygon fill="white" stroke="none" points="-4,4 -4,-834.4 1622.54,-834.4 1622.54,4 -4,4"/>
<!-- deploy_secret_values -->
<g id="node1" class="node">
<title>deploy_secret_values</title>
<polygon fill="#efefef" stroke="none" points="52.17,-738.2 52.17,-784.2 975.04,-784.2 975.04,-738.2 52.17,-738.2"/>
<polygon fill="none" stroke="black" points="52.17,-738.2 52.17,-784.2 975.04,-784.2 975.04,-738.2 52.17,-738.2"/>
<text text-anchor="start" x="401.51" y="-762" font-family="Arial Bold" font-size="18.00">deploy_secret_values</text>
<text text-anchor="start" x="556.45" y="-762" font-family="Arial" font-size="14.00">    </text>
<text text-anchor="start" x="587.57" y="-762" font-family="Arial" font-size="14.00" fill="#666666">[table]</text>
<text text-anchor="start" x="59.17" y="-747.6" font-family="Arial" font-size="14.00" fill="#333333">v27 — persisted deploy secret values, encrypted at rest with AES&#45;256&#45;GCM. The data key lives in the OS keyring; no plaintext value is ever stored.</text>
<polygon fill="none" stroke="black" points="52.17,-707.4 52.17,-738.2 975.04,-738.2 975.04,-707.4 52.17,-707.4"/>
<text text-anchor="start" x="59.17" y="-719.6" font-family="Arial" font-size="14.00">id </text>
<text text-anchor="start" x="73.95" y="-719.6" font-family="Arial" font-size="14.00" fill="#666666">[INTEGER]</text>
<polygon fill="none" stroke="black" points="52.17,-676.6 52.17,-707.4 975.04,-707.4 975.04,-676.6 52.17,-676.6"/>
<text text-anchor="start" x="59.17" y="-688.8" font-family="Arial" font-size="14.00">deploy_env_id </text>
<text text-anchor="start" x="153.35" y="-688.8" font-family="Arial" font-size="14.00" fill="#666666">[INTEGER]</text>
<polygon fill="none" stroke="black" points="52.17,-645.8 52.17,-676.6 975.04,-676.6 975.04,-645.8 52.17,-645.8"/>
<text text-anchor="start" x="59.17" y="-658" font-family="Arial" font-size="14.00">secret_name </text>
<text text-anchor="start" x="143.99" y="-658" font-family="Arial" font-size="14.00" fill="#666666">[TEXT]</text>
<polygon fill="none" stroke="black" points="52.17,-615 52.17,-645.8 975.04,-645.8 975.04,-615 52.17,-615"/>
<text text-anchor="start" x="59.17" y="-627.2" font-family="Arial" font-size="14.00">ciphertext </text>
<text text-anchor="start" x="123.75" y="-627.2" font-family="Arial" font-size="14.00" fill="#666666">[BLOB]</text>
<text text-anchor="start" x="168.88" y="-627.2" font-family="Arial" font-size="14.00"> AES&#45;256&#45;GCM ciphertext. Never logged, never exported.</text>
<polygon fill="none" stroke="black" points="52.17,-584.2 52.17,-615 975.04,-615 975.04,-584.2 52.17,-584.2"/>
<text text-anchor="start" x="59.17" y="-596.4" font-family="Arial" font-size="14.00">nonce </text>
<text text-anchor="start" x="101.2" y="-596.4" font-family="Arial" font-size="14.00" fill="#666666">[BLOB]</text>
<text text-anchor="start" x="146.33" y="-596.4" font-family="Arial" font-size="14.00"> Per&#45;value random nonce; required to decrypt ciphertext.</text>
<polygon fill="none" stroke="black" points="52.17,-553.4 52.17,-584.2 975.04,-584.2 975.04,-553.4 52.17,-553.4"/>
<text text-anchor="start" x="59.17" y="-565.6" font-family="Arial" font-size="14.00">updated_at </text>
<text text-anchor="start" x="133.12" y="-565.6" font-family="Arial" font-size="14.00" fill="#666666">[TEXT]</text>
<polygon fill="none" stroke="black" stroke-width="3" points="50.67,-551.9 50.67,-785.7 976.54,-785.7 976.54,-551.9 50.67,-551.9"/>
</g>
<!-- deploy_environments -->
<g id="node2" class="node">
<title>deploy_environments</title>
<polygon fill="#efefef" stroke="none" points="43.2,-382 43.2,-428 984.01,-428 984.01,-382 43.2,-382"/>
<polygon fill="none" stroke="black" points="43.2,-382 43.2,-428 984.01,-428 984.01,-382 43.2,-382"/>
<text text-anchor="start" x="400.99" y="-405.8" font-family="Arial Bold" font-size="18.00">deploy_environments</text>
<text text-anchor="start" x="556.96" y="-405.8" font-family="Arial" font-size="14.00">    </text>
<text text-anchor="start" x="588.08" y="-405.8" font-family="Arial" font-size="14.00" fill="#666666">[table]</text>
<text text-anchor="start" x="50.2" y="-391.4" font-family="Arial" font-size="14.00" fill="#333333">One deploy environment (prod / staging / any custom name) for a repository; 1:N per repo since v20, which replaced the single deploy_manifests row.</text>
<polygon fill="none" stroke="black" points="43.2,-351.2 43.2,-382 984.01,-382 984.01,-351.2 43.2,-351.2"/>
<text text-anchor="start" x="50.2" y="-363.4" font-family="Arial" font-size="14.00">id </text>
<text text-anchor="start" x="64.99" y="-363.4" font-family="Arial" font-size="14.00" fill="#666666">[INTEGER]</text>
<polygon fill="none" stroke="black" points="43.2,-320.4 43.2,-351.2 984.01,-351.2 984.01,-320.4 43.2,-320.4"/>
<text text-anchor="start" x="50.2" y="-332.6" font-family="Arial" font-size="14.00">repository_id </text>
<text text-anchor="start" x="134.24" y="-332.6" font-family="Arial" font-size="14.00" fill="#666666">[INTEGER]</text>
<polygon fill="none" stroke="black" points="43.2,-289.6 43.2,-320.4 984.01,-320.4 984.01,-289.6 43.2,-289.6"/>
<text text-anchor="start" x="50.2" y="-301.8" font-family="Arial" font-size="14.00">name </text>
<text text-anchor="start" x="89.11" y="-301.8" font-family="Arial" font-size="14.00" fill="#666666">[TEXT]</text>
<polygon fill="none" stroke="black" points="43.2,-258.8 43.2,-289.6 984.01,-289.6 984.01,-258.8 43.2,-258.8"/>
<text text-anchor="start" x="50.2" y="-271" font-family="Arial" font-size="14.00">workflow_name </text>
<text text-anchor="start" x="151.35" y="-271" font-family="Arial" font-size="14.00" fill="#666666">[TEXT]</text>
<polygon fill="none" stroke="black" points="43.2,-228 43.2,-258.8 984.01,-258.8 984.01,-228 43.2,-228"/>
<text text-anchor="start" x="50.2" y="-240.2" font-family="Arial" font-size="14.00">image_tag </text>
<text text-anchor="start" x="119.47" y="-240.2" font-family="Arial" font-size="14.00" fill="#666666">[TEXT]</text>
<polygon fill="none" stroke="black" points="43.2,-197.2 43.2,-228 984.01,-228 984.01,-197.2 43.2,-197.2"/>
<text text-anchor="start" x="50.2" y="-209.4" font-family="Arial" font-size="14.00">compose_service </text>
<text text-anchor="start" x="163.03" y="-209.4" font-family="Arial" font-size="14.00" fill="#666666">[TEXT]</text>
<polygon fill="none" stroke="black" points="43.2,-166.4 43.2,-197.2 984.01,-197.2 984.01,-166.4 43.2,-166.4"/>
<text text-anchor="start" x="50.2" y="-178.6" font-family="Arial" font-size="14.00">domain </text>
<text text-anchor="start" x="100.01" y="-178.6" font-family="Arial" font-size="14.00" fill="#666666">[TEXT]</text>
<polygon fill="none" stroke="black" points="43.2,-135.6 43.2,-166.4 984.01,-166.4 984.01,-135.6 43.2,-135.6"/>
<text text-anchor="start" x="50.2" y="-147.8" font-family="Arial" font-size="14.00">deploy_branch </text>
<text text-anchor="start" x="145.94" y="-147.8" font-family="Arial" font-size="14.00" fill="#666666">[TEXT]</text>
<polygon fill="none" stroke="black" points="43.2,-104.8 43.2,-135.6 984.01,-135.6 984.01,-104.8 43.2,-104.8"/>
<text text-anchor="start" x="50.2" y="-117" font-family="Arial" font-size="14.00">sort_order </text>
<text text-anchor="start" x="117.9" y="-117" font-family="Arial" font-size="14.00" fill="#666666">[INTEGER]</text>
<polygon fill="none" stroke="black" points="43.2,-74 43.2,-104.8 984.01,-104.8 984.01,-74 43.2,-74"/>
<text text-anchor="start" x="50.2" y="-86.2" font-family="Arial" font-size="14.00">extras </text>
<text text-anchor="start" x="92.21" y="-86.2" font-family="Arial" font-size="14.00" fill="#666666">[TEXT]</text>
<text text-anchor="start" x="135.77" y="-86.2" font-family="Arial" font-size="14.00"> JSON map of environment&#45;scope placeholder values. Repo&#45;wide ones live in repositories.deploy_repo_config.</text>
<polygon fill="none" stroke="black" points="43.2,-43.2 43.2,-74 984.01,-74 984.01,-43.2 43.2,-43.2"/>
<text text-anchor="start" x="50.2" y="-55.4" font-family="Arial" font-size="14.00">updated_at </text>
<text text-anchor="start" x="124.16" y="-55.4" font-family="Arial" font-size="14.00" fill="#666666">[TEXT]</text>
</g>
<!-- deploy_secret_values&#45;&gt;deploy_environments -->
<g id="edge1" class="edge">
<title>deploy_secret_values:deploy_env_id&#45;&gt;deploy_environments:id</title>
<path fill="none" stroke="black" d="M986.19,-689.75C1049.06,-661 1053.82,-366.6 985.01,-366.6"/>
<polygon fill="black" stroke="black" points="986.13,-689.76 975.4,-687.53 980.93,-690.92 976.7,-691.85 976.7,-691.85 976.7,-691.85 980.93,-690.92 977.35,-696.32 986.13,-689.76"/>
<text text-anchor="start" x="983.04" y="-702" font-family="Arial" font-size="10.00">FOREIGN KEY (deploy_env_id) REFERENCES deploy_environments (id) ON UPDATE NO ACTION ON DELETE CASCADE MATCH NONE</text>
</g>
</g>
</svg>
