<?xml version="1.0" encoding="UTF-8" standalone="no"?>
<!DOCTYPE svg PUBLIC "-//W3C//DTD SVG 1.1//EN"
 "http://www.w3.org/Graphics/SVG/1.1/DTD/svg11.dtd">
<!-- Generated by graphviz version 12.1.2 (20240928.0832)
 -->
<!-- Title: deploy_secrets Pages: 1 -->
<svg width="1578pt" height="869pt"
 viewBox="0.00 0.00 1577.91 869.20" xmlns="http://www.w3.org/2000/svg" xmlns:xlink="http://www.w3.org/1999/xlink">
<g id="graph0" class="graph" transform="scale(1 1) rotate(0) translate(4 865.2)">
<title>deploy_secrets</title>
<polygon fill="white" stroke="none" points="-4,4 -4,-865.2 1573.91,-865.2 1573.91,4 -4,4"/>
<!-- deploy_secrets -->
<g id="node1" class="node">
<title>deploy_secrets</title>
<polygon fill="#efefef" stroke="none" points="100.8,-769 100.8,-815 926.41,-815 926.41,-769 100.8,-769"/>
<polygon fill="none" stroke="black" points="100.8,-769 100.8,-815 926.41,-815 926.41,-769 100.8,-769"/>
<text text-anchor="start" x="425.5" y="-792.8" font-family="Arial Bold" font-size="18.00">deploy_secrets</text>
<text text-anchor="start" x="532.46" y="-792.8" font-family="Arial" font-size="14.00">    </text>
<text text-anchor="start" x="563.58" y="-792.8" font-family="Arial" font-size="14.00" fill="#666666">[table]</text>
<text text-anchor="start" x="107.8" y="-778.4" font-family="Arial" font-size="14.00" fill="#333333">Per&#45;environment per&#45;secret flags: which role the secret plays and whether it is included or overridden. Values are NOT stored here.</text>
<polygon fill="none" stroke="black" points="100.8,-738.2 100.8,-769 926.41,-769 926.41,-738.2 100.8,-738.2"/>
<text text-anchor="start" x="107.8" y="-750.4" font-family="Arial" font-size="14.00">id </text>
<text text-anchor="start" x="122.59" y="-750.4" font-family="Arial" font-size="14.00" fill="#666666">[INTEGER]</text>
<polygon fill="none" stroke="black" points="100.8,-707.4 100.8,-738.2 926.41,-738.2 926.41,-707.4 100.8,-707.4"/>
<text text-anchor="start" x="107.8" y="-719.6" font-family="Arial" font-size="14.00">deploy_env_id </text>
<text text-anchor="start" x="201.99" y="-719.6" font-family="Arial" font-size="14.00" fill="#666666">[INTEGER]</text>
<polygon fill="none" stroke="black" points="100.8,-676.6 100.8,-707.4 926.41,-707.4 926.41,-676.6 100.8,-676.6"/>
<text text-anchor="start" x="107.8" y="-688.8" font-family="Arial" font-size="14.00">secret_name </text>
<text text-anchor="start" x="192.62" y="-688.8" font-family="Arial" font-size="14.00" fill="#666666">[TEXT]</text>
<polygon fill="none" stroke="black" points="100.8,-645.8 100.8,-676.6 926.41,-676.6 926.41,-645.8 100.8,-645.8"/>
<text text-anchor="start" x="107.8" y="-658" font-family="Arial" font-size="14.00">role </text>
<text text-anchor="start" x="135.03" y="-658" font-family="Arial" font-size="14.00" fill="#666666">[TEXT]</text>
<text text-anchor="start" x="178.59" y="-658" font-family="Arial" font-size="14.00"> build / deploy / runtime — decides where the secret is injected.</text>
<polygon fill="none" stroke="black" points="100.8,-615 100.8,-645.8 926.41,-645.8 926.41,-615 100.8,-615"/>
<text text-anchor="start" x="107.8" y="-627.2" font-family="Arial" font-size="14.00">included </text>
<text text-anchor="start" x="163.84" y="-627.2" font-family="Arial" font-size="14.00" fill="#666666">[INTEGER]</text>
<text text-anchor="start" x="233.85" y="-627.2" font-family="Arial" font-size="14.00"> 0 excludes the secret from this environment without deleting its configuration.</text>
<polygon fill="none" stroke="black" points="100.8,-584.2 100.8,-615 926.41,-615 926.41,-584.2 100.8,-584.2"/>
<text text-anchor="start" x="107.8" y="-596.4" font-family="Arial" font-size="14.00">override_enabled </text>
<text text-anchor="start" x="219.88" y="-596.4" font-family="Arial" font-size="14.00" fill="#666666">[INTEGER]</text>
<polygon fill="none" stroke="black" points="100.8,-553.4 100.8,-584.2 926.41,-584.2 926.41,-553.4 100.8,-553.4"/>
<text text-anchor="start" x="107.8" y="-565.6" font-family="Arial" font-size="14.00">sort_order </text>
<text text-anchor="start" x="175.5" y="-565.6" font-family="Arial" font-size="14.00" fill="#666666">[INTEGER]</text>
<polygon fill="none" stroke="black" stroke-width="3" points="99.3,-551.9 99.3,-816.5 927.91,-816.5 927.91,-551.9 99.3,-551.9"/>
</g>
<!-- deploy_environments -->
<g id="node2" class="node">
<title>deploy_environments</title>
<polygon fill="#efefef" stroke="none" points="43.2,-382 43.2,-428 984.01,-428 984.01,-382 43.2,-382"/>
<polygon fill="none" stroke="black" points="43.2,-382 43.2,-428 984.01,-428 984.01,-382 43.2,-382"/>
<text text-anchor="start" x="400.99" y="-405.8" font-family="Arial Bold" font-size="18.00">deploy_environments</text>
<text text-anchor="start" x="556.96" y="-405.8" font-family="Arial" font-size="14.00">    </text>
<text text-anchor="start" x="588.08" y="-405.8" font-family="Arial" font-size="14.00" fill="#666666">[table]</text>
<text text-anchor="start" x="50.2" y="-391.4" font-family="Arial" font-size="14.00" fill="#333333">One deploy environment (prod / staging / any custom name) for a repository; 1:N per repo since v20, which replaced the single deploy_manifests row.</text>
<polygon fill="none" stroke="black" points="43.2,-351.2 43.2,-382 984.01,-382 984.01,-351.2 43.2,-351.2"/>
<text text-anchor="start" x="50.2" y="-363.4" font-family="Arial" font-size="14.00">id </text>
<text text-anchor="start" x="64.99" y="-363.4" font-family="Arial" font-size="14.00" fill="#666666">[INTEGER]</text>
<polygon fill="none" stroke="black" points="43.2,-320.4 43.2,-351.2 984.01,-351.2 984.01,-320.4 43.2,-320.4"/>
<text text-anchor="start" x="50.2" y="-332.6" font-family="Arial" font-size="14.00">repository_id </text>
<text text-anchor="start" x="134.24" y="-332.6" font-family="Arial" font-size="14.00" fill="#666666">[INTEGER]</text>
<polygon fill="none" stroke="black" points="43.2,-289.6 43.2,-320.4 984.01,-320.4 984.01,-289.6 43.2,-289.6"/>
<text text-anchor="start" x="50.2" y="-301.8" font-family="Arial" font-size="14.00">name </text>
<text text-anchor="start" x="89.11" y="-301.8" font-family="Arial" font-size="14.00" fill="#666666">[TEXT]</text>
<polygon fill="none" stroke="black" points="43.2,-258.8 43.2,-289.6 984.01,-289.6 984.01,-258.8 43.2,-258.8"/>
<text text-anchor="start" x="50.2" y="-271" font-family="Arial" font-size="14.00">workflow_name </text>
<text text-anchor="start" x="151.35" y="-271" font-family="Arial" font-size="14.00" fill="#666666">[TEXT]</text>
<polygon fill="none" stroke="black" points="43.2,-228 43.2,-258.8 984.01,-258.8 984.01,-228 43.2,-228"/>
<text text-anchor="start" x="50.2" y="-240.2" font-family="Arial" font-size="14.00">image_tag </text>
<text text-anchor="start" x="119.47" y="-240.2" font-family="Arial" font-size="14.00" fill="#666666">[TEXT]</text>
<polygon fill="none" stroke="black" points="43.2,-197.2 43.2,-228 984.01,-228 984.01,-197.2 43.2,-197.2"/>
<text text-anchor="start" x="50.2" y="-209.4" font-family="Arial" font-size="14.00">compose_service </text>
<text text-anchor="start" x="163.03" y="-209.4" font-family="Arial" font-size="14.00" fill="#666666">[TEXT]</text>
<polygon fill="none" stroke="black" points="43.2,-166.4 43.2,-197.2 984.01,-197.2 984.01,-166.4 43.2,-166.4"/>
<text text-anchor="start" x="50.2" y="-178.6" font-family="Arial" font-size="14.00">domain </text>
<text text-anchor="start" x="100.01" y="-178.6" font-family="Arial" font-size="14.00" fill="#666666">[TEXT]</text>
<polygon fill="none" stroke="black" points="43.2,-135.6 43.2,-166.4 984.01,-166.4 984.01,-135.6 43.2,-135.6"/>
<text text-anchor="start" x="50.2" y="-147.8" font-family="Arial" font-size="14.00">deploy_branch </text>
<text text-anchor="start" x="145.94" y="-147.8" font-family="Arial" font-size="14.00" fill="#666666">[TEXT]</text>
<polygon fill="none" stroke="black" points="43.2,-104.8 43.2,-135.6 984.01,-135.6 984.01,-104.8 43.2,-104.8"/>
<text text-anchor="start" x="50.2" y="-117" font-family="Arial" font-size="14.00">sort_order </text>
<text text-anchor="start" x="117.9" y="-117" font-family="Arial" font-size="14.00" fill="#666666">[INTEGER]</text>
<polygon fill="none" stroke="black" points="43.2,-74 43.2,-104.8 984.01,-104.8 984.01,-74 43.2,-74"/>
<text text-anchor="start" x="50.2" y="-86.2" font-family="Arial" font-size="14.00">extras </text>
<text text-anchor="start" x="92.21" y="-86.2" font-family="Arial" font-size="14.00" fill="#666666">[TEXT]</text>
<text text-anchor="start" x="135.77" y="-86.2" font-family="Arial" font-size="14.00"> JSON map of environment&#45;scope placeholder values. Repo&#45;wide ones live in repositories.deploy_repo_config.</text>
<polygon fill="none" stroke="black" points="43.2,-43.2 43.2,-74 984.01,-74 984.01,-43.2 43.2,-43.2"/>
<text text-anchor="start" x="50.2" y="-55.4" font-family="Arial" font-size="14.00">updated_at </text>
<text text-anchor="start" x="124.16" y="-55.4" font-family="Arial" font-size="14.00" fill="#666666">[TEXT]</text>
</g>
<!-- deploy_secrets&#45;&gt;deploy_environments -->
<g id="edge1" class="edge">
<title>deploy_secrets:deploy_env_id&#45;&gt;deploy_environments:id</title>
<path fill="none" stroke="black" d="M937.61,-720.88C1012.29,-692.85 1061.75,-366.6 985.01,-366.6"/>
<polygon fill="black" stroke="black" points="937.57,-720.89 926.91,-718.32 932.32,-721.88 928.07,-722.68 928.07,-722.68 928.07,-722.68 932.32,-721.88 928.57,-727.16 937.57,-720.89"/>
<text text-anchor="start" x="934.41" y="-732.8" font-family="Arial" font-size="10.00">FOREIGN KEY (deploy_env_id) REFERENCES deploy_environments (id) ON UPDATE NO ACTION ON DELETE CASCADE MATCH NONE</text>
</g>
</g>
</svg>
