<?xml version="1.0" encoding="UTF-8" standalone="no"?>
<!DOCTYPE svg PUBLIC "-//W3C//DTD SVG 1.1//EN"
 "http://www.w3.org/Graphics/SVG/1.1/DTD/svg11.dtd">
<!-- Generated by graphviz version 12.1.2 (20240928.0832)
 -->
<!-- Title: projects Pages: 1 -->
<svg width="4233pt" height="1085pt"
 viewBox="0.00 0.00 4232.52 1084.80" xmlns="http://www.w3.org/2000/svg" xmlns:xlink="http://www.w3.org/1999/xlink">
<g id="graph0" class="graph" transform="scale(1 1) rotate(0) translate(4 1080.8)">
<title>projects</title>
<polygon fill="white" stroke="none" points="-4,4 -4,-1080.8 4228.52,-1080.8 4228.52,4 -4,4"/>
<!-- projects -->
<g id="node1" class="node">
<title>projects</title>
<polygon fill="#efefef" stroke="none" points="1194.62,-261.8 1194.62,-307.8 1924.44,-307.8 1924.44,-261.8 1194.62,-261.8"/>
<polygon fill="none" stroke="black" points="1194.62,-261.8 1194.62,-307.8 1924.44,-307.8 1924.44,-261.8 1194.62,-261.8"/>
<text text-anchor="start" x="1496.41" y="-285.6" font-family="Arial Bold" font-size="18.00">projects</text>
<text text-anchor="start" x="1553.39" y="-285.6" font-family="Arial" font-size="14.00">    </text>
<text text-anchor="start" x="1584.51" y="-285.6" font-family="Arial" font-size="14.00" fill="#666666">[table]</text>
<text text-anchor="start" x="1270.44" y="-271.2" font-family="Arial" font-size="14.00" fill="#333333">A portfolio project — the unit that groups repositories and can consume microservice projects.</text>
<polygon fill="none" stroke="black" points="1194.62,-231 1194.62,-261.8 1924.44,-261.8 1924.44,-231 1194.62,-231"/>
<text text-anchor="start" x="1201.62" y="-243.2" font-family="Arial" font-size="14.00">id </text>
<text text-anchor="start" x="1216.4" y="-243.2" font-family="Arial" font-size="14.00" fill="#666666">[INTEGER]</text>
<polygon fill="none" stroke="black" points="1194.62,-200.2 1194.62,-231 1924.44,-231 1924.44,-200.2 1194.62,-200.2"/>
<text text-anchor="start" x="1201.62" y="-212.4" font-family="Arial" font-size="14.00">name </text>
<text text-anchor="start" x="1240.53" y="-212.4" font-family="Arial" font-size="14.00" fill="#666666">[TEXT]</text>
<polygon fill="none" stroke="black" points="1194.62,-169.4 1194.62,-200.2 1924.44,-200.2 1924.44,-169.4 1194.62,-169.4"/>
<text text-anchor="start" x="1201.62" y="-181.6" font-family="Arial" font-size="14.00">description </text>
<text text-anchor="start" x="1273.21" y="-181.6" font-family="Arial" font-size="14.00" fill="#666666">[TEXT]</text>
<polygon fill="none" stroke="black" points="1194.62,-138.6 1194.62,-169.4 1924.44,-169.4 1924.44,-138.6 1194.62,-138.6"/>
<text text-anchor="start" x="1201.62" y="-150.8" font-family="Arial" font-size="14.00">created_at </text>
<text text-anchor="start" x="1271.66" y="-150.8" font-family="Arial" font-size="14.00" fill="#666666">[DATETIME]</text>
<polygon fill="none" stroke="black" points="1194.62,-107.8 1194.62,-138.6 1924.44,-138.6 1924.44,-107.8 1194.62,-107.8"/>
<text text-anchor="start" x="1201.62" y="-120" font-family="Arial" font-size="14.00">project_type </text>
<text text-anchor="start" x="1281.78" y="-120" font-family="Arial" font-size="14.00" fill="#666666">[TEXT]</text>
<text text-anchor="start" x="1325.33" y="-120" font-family="Arial" font-size="14.00"> Added v12, default &#39;standard&#39;. No SQL CHECK — the legal vocabulary is enforced in Rust only.</text>
<polygon fill="none" stroke="black" points="1194.62,-77 1194.62,-107.8 1924.44,-107.8 1924.44,-77 1194.62,-77"/>
<text text-anchor="start" x="1201.62" y="-89.2" font-family="Arial" font-size="14.00">sort_order </text>
<text text-anchor="start" x="1269.31" y="-89.2" font-family="Arial" font-size="14.00" fill="#666666">[INTEGER]</text>
<text text-anchor="start" x="1339.32" y="-89.2" font-family="Arial" font-size="14.00"> Manual ordering (v14); back&#45;filled as id * 10 to leave gaps for inserts.</text>
<polygon fill="none" stroke="black" points="1194.62,-46.2 1194.62,-77 1924.44,-77 1924.44,-46.2 1194.62,-46.2"/>
<text text-anchor="start" x="1201.62" y="-58.4" font-family="Arial" font-size="14.00">auto_sync_enabled </text>
<text text-anchor="start" x="1326.94" y="-58.4" font-family="Arial" font-size="14.00" fill="#666666">[INTEGER]</text>
<text text-anchor="start" x="1396.95" y="-58.4" font-family="Arial" font-size="14.00"> v28 — 0/1 opt&#45;in for the background auto&#45;sync timer.</text>
<polygon fill="none" stroke="black" stroke-width="3" points="1193.12,-44.7 1193.12,-309.3 1925.94,-309.3 1925.94,-44.7 1193.12,-44.7"/>
</g>
<!-- project_microservices -->
<g id="node2" class="node">
<title>project_microservices</title>
<polygon fill="#efefef" stroke="none" points="43.2,-741.2 43.2,-787.2 1585.86,-787.2 1585.86,-741.2 43.2,-741.2"/>
<polygon fill="none" stroke="black" points="43.2,-741.2 43.2,-787.2 1585.86,-787.2 1585.86,-741.2 43.2,-741.2"/>
<text text-anchor="start" x="700.44" y="-765" font-family="Arial Bold" font-size="18.00">project_microservices</text>
<text text-anchor="start" x="859.37" y="-765" font-family="Arial" font-size="14.00">    </text>
<text text-anchor="start" x="890.49" y="-765" font-family="Arial" font-size="14.00" fill="#666666">[table]</text>
<text text-anchor="start" x="50.2" y="-750.6" font-family="Arial" font-size="14.00" fill="#333333">Many&#45;to&#45;many link between a parent project and a consumed microservice project. Rebuilt in v12 — before that it linked a project to a repository. Composite PK plus CHECK(project_id != microservice_project_id), so a project cannot consume itself.</text>
<polygon fill="none" stroke="black" points="43.2,-710.4 43.2,-741.2 1585.86,-741.2 1585.86,-710.4 43.2,-710.4"/>
<text text-anchor="start" x="50.2" y="-722.6" font-family="Arial" font-size="14.00">project_id </text>
<text text-anchor="start" x="114.79" y="-722.6" font-family="Arial" font-size="14.00" fill="#666666">[INTEGER]</text>
<polygon fill="none" stroke="black" points="43.2,-679.6 43.2,-710.4 1585.86,-710.4 1585.86,-679.6 43.2,-679.6"/>
<text text-anchor="start" x="50.2" y="-691.8" font-family="Arial" font-size="14.00">microservice_project_id </text>
<text text-anchor="start" x="201.14" y="-691.8" font-family="Arial" font-size="14.00" fill="#666666">[INTEGER]</text>
</g>
<!-- project_microservices&#45;&gt;projects -->
<g id="edge1" class="edge">
<title>project_microservices:microservice_project_id&#45;&gt;projects:id</title>
<path fill="none" stroke="black" d="M1596.88,-692.1C1607.84,-683.16 1595.85,-655.52 1585.86,-636.4 1486.58,-446.31 1293.16,-544.47 1194.62,-354 1172.64,-311.52 1145.79,-246.4 1193.62,-246.4"/>
<polygon fill="black" stroke="black" points="1596.79,-692.12 1585.93,-690.58 1591.66,-693.61 1587.5,-694.81 1587.5,-694.81 1587.5,-694.81 1591.66,-693.61 1588.43,-699.23 1596.79,-692.12"/>
<text text-anchor="start" x="1593.86" y="-705" font-family="Arial" font-size="10.00">FOREIGN KEY (microservice_project_id) REFERENCES projects (id) ON UPDATE NO ACTION ON DELETE CASCADE MATCH NONE</text>
</g>
<!-- project_microservices&#45;&gt;projects -->
<g id="edge2" class="edge">
<title>project_microservices:project_id&#45;&gt;projects:id</title>
<path fill="none" stroke="black" d="M1597.11,-724.2C1622.08,-715 1602.29,-668.09 1585.86,-636.4 1487.14,-446.02 1293.16,-544.47 1194.62,-354 1172.64,-311.52 1145.79,-246.4 1193.62,-246.4"/>
<polygon fill="black" stroke="black" points="1597.07,-724.21 1586.5,-721.3 1591.8,-725.03 1587.52,-725.7 1587.52,-725.7 1587.52,-725.7 1591.8,-725.03 1587.88,-730.19 1597.07,-724.21"/>
<text text-anchor="start" x="1593.86" y="-735.8" font-family="Arial" font-size="10.00">FOREIGN KEY (project_id) REFERENCES projects (id) ON UPDATE NO ACTION ON DELETE CASCADE MATCH NONE</text>
</g>
<!-- repositories -->
<g id="node3" class="node">
<title>repositories</title>
<polygon fill="#efefef" stroke="none" points="1690,-987.6 1690,-1033.6 2921.06,-1033.6 2921.06,-987.6 1690,-987.6"/>
<polygon fill="none" stroke="black" points="1690,-987.6 1690,-1033.6 2921.06,-1033.6 2921.06,-987.6 1690,-987.6"/>
<text text-anchor="start" x="2228.91" y="-1011.4" font-family="Arial Bold" font-size="18.00">repositories</text>
<text text-anchor="start" x="2312.89" y="-1011.4" font-family="Arial" font-size="14.00">    </text>
<text text-anchor="start" x="2344.01" y="-1011.4" font-family="Arial" font-size="14.00" fill="#666666">[table]</text>
<text text-anchor="start" x="2049.51" y="-997" font-family="Arial" font-size="14.00" fill="#333333">A repository belonging to at most one project. May be GitHub&#45;backed or local&#45;only.</text>
<polygon fill="none" stroke="black" points="1690,-956.8 1690,-987.6 2921.06,-987.6 2921.06,-956.8 1690,-956.8"/>
<text text-anchor="start" x="1697" y="-969" font-family="Arial" font-size="14.00">id </text>
<text text-anchor="start" x="1711.78" y="-969" font-family="Arial" font-size="14.00" fill="#666666">[INTEGER]</text>
<polygon fill="none" stroke="black" points="1690,-926 1690,-956.8 2921.06,-956.8 2921.06,-926 1690,-926"/>
<text text-anchor="start" x="1697" y="-938.2" font-family="Arial" font-size="14.00">project_id </text>
<text text-anchor="start" x="1761.59" y="-938.2" font-family="Arial" font-size="14.00" fill="#666666">[INTEGER]</text>
<text text-anchor="start" x="1831.6" y="-938.2" font-family="Arial" font-size="14.00"> ON DELETE SET NULL — the only non&#45;cascading FK in the schema. Deleting a project orphans its repositories rather than destroying them.</text>
<polygon fill="none" stroke="black" points="1690,-895.2 1690,-926 2921.06,-926 2921.06,-895.2 1690,-895.2"/>
<text text-anchor="start" x="1697" y="-907.4" font-family="Arial" font-size="14.00">github_name </text>
<text text-anchor="start" x="1781.84" y="-907.4" font-family="Arial" font-size="14.00" fill="#666666">[TEXT]</text>
<text text-anchor="start" x="1825.4" y="-907.4" font-family="Arial" font-size="14.00"> UNIQUE, and nullable since v13 so local&#45;only repos (never pushed to GitHub) can exist. The last path segment is the canonical folder name used for all cross&#45;repo doc folders.</text>
<polygon fill="none" stroke="black" points="1690,-864.4 1690,-895.2 2921.06,-895.2 2921.06,-864.4 1690,-864.4"/>
<text text-anchor="start" x="1697" y="-876.6" font-family="Arial" font-size="14.00">github_url </text>
<text text-anchor="start" x="1762.38" y="-876.6" font-family="Arial" font-size="14.00" fill="#666666">[TEXT]</text>
<polygon fill="none" stroke="black" points="1690,-833.6 1690,-864.4 2921.06,-864.4 2921.06,-833.6 1690,-833.6"/>
<text text-anchor="start" x="1697" y="-845.8" font-family="Arial" font-size="14.00">role </text>
<text text-anchor="start" x="1724.23" y="-845.8" font-family="Arial" font-size="14.00" fill="#666666">[TEXT]</text>
<text text-anchor="start" x="1767.79" y="-845.8" font-family="Arial" font-size="14.00"> &#39;microservice&#39; is still legal here but is legacy: v12 NULLed every such row when microservice became a project type rather than a repo role.</text>
<polygon fill="none" stroke="black" points="1690,-802.8 1690,-833.6 2921.06,-833.6 2921.06,-802.8 1690,-802.8"/>
<text text-anchor="start" x="1697" y="-815" font-family="Arial" font-size="14.00">description </text>
<text text-anchor="start" x="1768.59" y="-815" font-family="Arial" font-size="14.00" fill="#666666">[TEXT]</text>
<polygon fill="none" stroke="black" points="1690,-772 1690,-802.8 2921.06,-802.8 2921.06,-772 1690,-772"/>
<text text-anchor="start" x="1697" y="-784.2" font-family="Arial" font-size="14.00">language </text>
<text text-anchor="start" x="1758.5" y="-784.2" font-family="Arial" font-size="14.00" fill="#666666">[TEXT]</text>
<polygon fill="none" stroke="black" points="1690,-741.2 1690,-772 2921.06,-772 2921.06,-741.2 1690,-741.2"/>
<text text-anchor="start" x="1697" y="-753.4" font-family="Arial" font-size="14.00">last_pushed_at </text>
<text text-anchor="start" x="1795.85" y="-753.4" font-family="Arial" font-size="14.00" fill="#666666">[DATETIME]</text>
<polygon fill="none" stroke="black" points="1690,-710.4 1690,-741.2 2921.06,-741.2 2921.06,-710.4 1690,-710.4"/>
<text text-anchor="start" x="1697" y="-722.6" font-family="Arial" font-size="14.00">added_at </text>
<text text-anchor="start" x="1759.28" y="-722.6" font-family="Arial" font-size="14.00" fill="#666666">[DATETIME]</text>
<polygon fill="none" stroke="black" points="1690,-679.6 1690,-710.4 2921.06,-710.4 2921.06,-679.6 1690,-679.6"/>
<text text-anchor="start" x="1697" y="-691.8" font-family="Arial" font-size="14.00">updated_at </text>
<text text-anchor="start" x="1770.96" y="-691.8" font-family="Arial" font-size="14.00" fill="#666666">[DATETIME]</text>
<polygon fill="none" stroke="black" points="1690,-648.8 1690,-679.6 2921.06,-679.6 2921.06,-648.8 1690,-648.8"/>
<text text-anchor="start" x="1697" y="-661" font-family="Arial" font-size="14.00">local_path </text>
<text text-anchor="start" x="1764.71" y="-661" font-family="Arial" font-size="14.00" fill="#666666">[TEXT]</text>
<polygon fill="none" stroke="black" points="1690,-618 1690,-648.8 2921.06,-648.8 2921.06,-618 1690,-618"/>
<text text-anchor="start" x="1697" y="-630.2" font-family="Arial" font-size="14.00">github_id </text>
<text text-anchor="start" x="1757.71" y="-630.2" font-family="Arial" font-size="14.00" fill="#666666">[INTEGER]</text>
<text text-anchor="start" x="1827.72" y="-630.2" font-family="Arial" font-size="14.00"> Stable GitHub identifier — the basis of rename detection.</text>
<polygon fill="none" stroke="black" points="1690,-587.2 1690,-618 2921.06,-618 2921.06,-587.2 1690,-587.2"/>
<text text-anchor="start" x="1697" y="-599.4" font-family="Arial" font-size="14.00">deploy_target </text>
<text text-anchor="start" x="1785.73" y="-599.4" font-family="Arial" font-size="14.00" fill="#666666">[TEXT]</text>
<text text-anchor="start" x="1829.29" y="-599.4" font-family="Arial" font-size="14.00"> Matches templates.language_key.</text>
<polygon fill="none" stroke="black" points="1690,-556.4 1690,-587.2 2921.06,-587.2 2921.06,-556.4 1690,-556.4"/>
<text text-anchor="start" x="1697" y="-568.6" font-family="Arial" font-size="14.00">sort_order </text>
<text text-anchor="start" x="1764.69" y="-568.6" font-family="Arial" font-size="14.00" fill="#666666">[INTEGER]</text>
<polygon fill="none" stroke="black" points="1690,-525.6 1690,-556.4 2921.06,-556.4 2921.06,-525.6 1690,-525.6"/>
<text text-anchor="start" x="1697" y="-537.8" font-family="Arial" font-size="14.00">bugs_migrated_at </text>
<text text-anchor="start" x="1812.96" y="-537.8" font-family="Arial" font-size="14.00" fill="#666666">[TEXT]</text>
<text text-anchor="start" x="1856.52" y="-537.8" font-family="Arial" font-size="14.00"> Lazy&#45;migration marker (v18); NULL means the repo&#39;s MD has never been imported.</text>
<polygon fill="none" stroke="black" points="1690,-494.8 1690,-525.6 2921.06,-525.6 2921.06,-494.8 1690,-494.8"/>
<text text-anchor="start" x="1697" y="-507" font-family="Arial" font-size="14.00">tasks_migrated_at </text>
<text text-anchor="start" x="1815.28" y="-507" font-family="Arial" font-size="14.00" fill="#666666">[TEXT]</text>
<text text-anchor="start" x="1858.84" y="-507" font-family="Arial" font-size="14.00"> Lazy&#45;migration marker (v21). While NULL, the first task sync suppresses &#39;created&#39; events so backfilling legacy files doesn&#39;t flood the timeline.</text>
<polygon fill="none" stroke="black" points="1690,-464 1690,-494.8 2921.06,-494.8 2921.06,-464 1690,-464"/>
<text text-anchor="start" x="1697" y="-476.2" font-family="Arial" font-size="14.00">deploy_repo_config </text>
<text text-anchor="start" x="1823.09" y="-476.2" font-family="Arial" font-size="14.00" fill="#666666">[TEXT]</text>
<text text-anchor="start" x="1866.65" y="-476.2" font-family="Arial" font-size="14.00"> v25 — JSON map of repo&#45;wide (not per&#45;environment) deploy placeholder values.</text>
<polygon fill="none" stroke="black" points="1690,-433.2 1690,-464 2921.06,-464 2921.06,-433.2 1690,-433.2"/>
<text text-anchor="start" x="1697" y="-445.4" font-family="Arial" font-size="14.00">autocommit_branch </text>
<text text-anchor="start" x="1823.84" y="-445.4" font-family="Arial" font-size="14.00" fill="#666666">[TEXT]</text>
<text text-anchor="start" x="1867.4" y="-445.4" font-family="Arial" font-size="14.00"> v28 — NULL means auto&#45;commit is off for this repo.</text>
</g>
<!-- repositories&#45;&gt;projects -->
<g id="edge3" class="edge">
<title>repositories:project_id&#45;&gt;projects:id</title>
<path fill="none" stroke="black" d="M1679.69,-937.03C1630.23,-887.54 1652.24,-433.92 1690,-390 1758.72,-310.06 1855.42,-433.68 1924.44,-354 1955.76,-317.85 1973.27,-246.4 1925.44,-246.4"/>
<polygon fill="black" stroke="black" points="1679.64,-937.01 1686.78,-945.33 1684.47,-939.27 1688.39,-941.12 1688.39,-941.12 1688.39,-941.12 1684.47,-939.27 1690.61,-937.18 1679.64,-937.01"/>
<text text-anchor="start" x="1135.24" y="-951.4" font-family="Arial" font-size="10.00">FOREIGN KEY (project_id) REFERENCES projects (id) ON UPDATE NO ACTION ON DELETE SET NULL MATCH NONE</text>
</g>
<!-- project_renames -->
<g id="node4" class="node">
<title>project_renames</title>
<polygon fill="#efefef" stroke="none" points="3025.74,-787.4 3025.74,-833.4 4181.32,-833.4 4181.32,-787.4 3025.74,-787.4"/>
<polygon fill="none" stroke="black" points="3025.74,-787.4 3025.74,-833.4 4181.32,-833.4 4181.32,-787.4 3025.74,-787.4"/>
<text text-anchor="start" x="3509.43" y="-811.2" font-family="Arial Bold" font-size="18.00">project_renames</text>
<text text-anchor="start" x="3628.37" y="-811.2" font-family="Arial" font-size="14.00">    </text>
<text text-anchor="start" x="3659.49" y="-811.2" font-family="Arial" font-size="14.00" fill="#666666">[table]</text>
<text text-anchor="start" x="3032.74" y="-796.8" font-family="Arial" font-size="14.00" fill="#333333">Project&#45;level twin of repo_renames (v24). Needed because microservice&#45;api/&lt;name&gt;/ folders on the parent&#45;server side are keyed by project name, which repo_renames does not cover.</text>
<polygon fill="none" stroke="black" points="3025.74,-756.6 3025.74,-787.4 4181.32,-787.4 4181.32,-756.6 3025.74,-756.6"/>
<text text-anchor="start" x="3032.74" y="-768.8" font-family="Arial" font-size="14.00">id </text>
<text text-anchor="start" x="3047.53" y="-768.8" font-family="Arial" font-size="14.00" fill="#666666">[INTEGER]</text>
<polygon fill="none" stroke="black" points="3025.74,-725.8 3025.74,-756.6 4181.32,-756.6 4181.32,-725.8 3025.74,-725.8"/>
<text text-anchor="start" x="3032.74" y="-738" font-family="Arial" font-size="14.00">project_id </text>
<text text-anchor="start" x="3097.33" y="-738" font-family="Arial" font-size="14.00" fill="#666666">[INTEGER]</text>
<polygon fill="none" stroke="black" points="3025.74,-695 3025.74,-725.8 4181.32,-725.8 4181.32,-695 3025.74,-695"/>
<text text-anchor="start" x="3032.74" y="-707.2" font-family="Arial" font-size="14.00">old_name </text>
<text text-anchor="start" x="3098.12" y="-707.2" font-family="Arial" font-size="14.00" fill="#666666">[TEXT]</text>
<polygon fill="none" stroke="black" points="3025.74,-664.2 3025.74,-695 4181.32,-695 4181.32,-664.2 3025.74,-664.2"/>
<text text-anchor="start" x="3032.74" y="-676.4" font-family="Arial" font-size="14.00">new_name </text>
<text text-anchor="start" x="3105.12" y="-676.4" font-family="Arial" font-size="14.00" fill="#666666">[TEXT]</text>
<polygon fill="none" stroke="black" points="3025.74,-633.4 3025.74,-664.2 4181.32,-664.2 4181.32,-633.4 3025.74,-633.4"/>
<text text-anchor="start" x="3032.74" y="-645.6" font-family="Arial" font-size="14.00">renamed_at </text>
<text text-anchor="start" x="3111.35" y="-645.6" font-family="Arial" font-size="14.00" fill="#666666">[DATETIME]</text>
</g>
<!-- project_renames&#45;&gt;projects -->
<g id="edge4" class="edge">
<title>project_renames:project_id&#45;&gt;projects:id</title>
<path fill="none" stroke="black" d="M3014.69,-739.31C2953.41,-714.01 3026.91,-442.93 2973.53,-390 2890.06,-307.24 2042.98,-246.4 1925.44,-246.4"/>
<polygon fill="black" stroke="black" points="3014.58,-739.29 3023.58,-745.56 3019.83,-740.27 3024.08,-741.08 3024.08,-741.08 3024.08,-741.08 3019.83,-740.27 3025.24,-736.72 3014.58,-739.29"/>
<text text-anchor="start" x="2610.75" y="-725.2" font-family="Arial" font-size="10.00">FOREIGN KEY (project_id) REFERENCES projects (id) ON UPDATE NO ACTION ON DELETE CASCADE MATCH NONE</text>
</g>
</g>
</svg>
