<?xml version="1.0" encoding="UTF-8" standalone="no"?>
<!DOCTYPE svg PUBLIC "-//W3C//DTD SVG 1.1//EN"
 "http://www.w3.org/Graphics/SVG/1.1/DTD/svg11.dtd">
<!-- Generated by graphviz version 12.1.2 (20240928.0832)
 -->
<!-- Title: project_renames Pages: 1 -->
<svg width="1772pt" height="684pt"
 viewBox="0.00 0.00 1772.10 684.40" xmlns="http://www.w3.org/2000/svg" xmlns:xlink="http://www.w3.org/1999/xlink">
<g id="graph0" class="graph" transform="scale(1 1) rotate(0) translate(4 680.4)">
<title>project_renames</title>
<polygon fill="white" stroke="none" points="-4,4 -4,-680.4 1768.1,-680.4 1768.1,4 -4,4"/>
<!-- project_renames -->
<g id="node1" class="node">
<title>project_renames</title>
<polygon fill="#efefef" stroke="none" points="46.2,-584.2 46.2,-630.2 1201.78,-630.2 1201.78,-584.2 46.2,-584.2"/>
<polygon fill="none" stroke="black" points="46.2,-584.2 46.2,-630.2 1201.78,-630.2 1201.78,-584.2 46.2,-584.2"/>
<text text-anchor="start" x="529.89" y="-608" font-family="Arial Bold" font-size="18.00">project_renames</text>
<text text-anchor="start" x="648.83" y="-608" font-family="Arial" font-size="14.00">    </text>
<text text-anchor="start" x="679.95" y="-608" font-family="Arial" font-size="14.00" fill="#666666">[table]</text>
<text text-anchor="start" x="53.2" y="-593.6" font-family="Arial" font-size="14.00" fill="#333333">Project&#45;level twin of repo_renames (v24). Needed because microservice&#45;api/&lt;name&gt;/ folders on the parent&#45;server side are keyed by project name, which repo_renames does not cover.</text>
<polygon fill="none" stroke="black" points="46.2,-553.4 46.2,-584.2 1201.78,-584.2 1201.78,-553.4 46.2,-553.4"/>
<text text-anchor="start" x="53.2" y="-565.6" font-family="Arial" font-size="14.00">id </text>
<text text-anchor="start" x="67.99" y="-565.6" font-family="Arial" font-size="14.00" fill="#666666">[INTEGER]</text>
<polygon fill="none" stroke="black" points="46.2,-522.6 46.2,-553.4 1201.78,-553.4 1201.78,-522.6 46.2,-522.6"/>
<text text-anchor="start" x="53.2" y="-534.8" font-family="Arial" font-size="14.00">project_id </text>
<text text-anchor="start" x="117.79" y="-534.8" font-family="Arial" font-size="14.00" fill="#666666">[INTEGER]</text>
<polygon fill="none" stroke="black" points="46.2,-491.8 46.2,-522.6 1201.78,-522.6 1201.78,-491.8 46.2,-491.8"/>
<text text-anchor="start" x="53.2" y="-504" font-family="Arial" font-size="14.00">old_name </text>
<text text-anchor="start" x="118.58" y="-504" font-family="Arial" font-size="14.00" fill="#666666">[TEXT]</text>
<polygon fill="none" stroke="black" points="46.2,-461 46.2,-491.8 1201.78,-491.8 1201.78,-461 46.2,-461"/>
<text text-anchor="start" x="53.2" y="-473.2" font-family="Arial" font-size="14.00">new_name </text>
<text text-anchor="start" x="125.58" y="-473.2" font-family="Arial" font-size="14.00" fill="#666666">[TEXT]</text>
<polygon fill="none" stroke="black" points="46.2,-430.2 46.2,-461 1201.78,-461 1201.78,-430.2 46.2,-430.2"/>
<text text-anchor="start" x="53.2" y="-442.4" font-family="Arial" font-size="14.00">renamed_at </text>
<text text-anchor="start" x="131.81" y="-442.4" font-family="Arial" font-size="14.00" fill="#666666">[DATETIME]</text>
<polygon fill="none" stroke="black" stroke-width="3" points="44.7,-428.7 44.7,-631.7 1203.28,-631.7 1203.28,-428.7 44.7,-428.7"/>
</g>
<!-- projects -->
<g id="node2" class="node">
<title>projects</title>
<polygon fill="#efefef" stroke="none" points="259.08,-258.8 259.08,-304.8 988.9,-304.8 988.9,-258.8 259.08,-258.8"/>
<polygon fill="none" stroke="black" points="259.08,-258.8 259.08,-304.8 988.9,-304.8 988.9,-258.8 259.08,-258.8"/>
<text text-anchor="start" x="560.87" y="-282.6" font-family="Arial Bold" font-size="18.00">projects</text>
<text text-anchor="start" x="617.85" y="-282.6" font-family="Arial" font-size="14.00">    </text>
<text text-anchor="start" x="648.97" y="-282.6" font-family="Arial" font-size="14.00" fill="#666666">[table]</text>
<text text-anchor="start" x="334.91" y="-268.2" font-family="Arial" font-size="14.00" fill="#333333">A portfolio project — the unit that groups repositories and can consume microservice projects.</text>
<polygon fill="none" stroke="black" points="259.08,-228 259.08,-258.8 988.9,-258.8 988.9,-228 259.08,-228"/>
<text text-anchor="start" x="266.08" y="-240.2" font-family="Arial" font-size="14.00">id </text>
<text text-anchor="start" x="280.86" y="-240.2" font-family="Arial" font-size="14.00" fill="#666666">[INTEGER]</text>
<polygon fill="none" stroke="black" points="259.08,-197.2 259.08,-228 988.9,-228 988.9,-197.2 259.08,-197.2"/>
<text text-anchor="start" x="266.08" y="-209.4" font-family="Arial" font-size="14.00">name </text>
<text text-anchor="start" x="304.99" y="-209.4" font-family="Arial" font-size="14.00" fill="#666666">[TEXT]</text>
<polygon fill="none" stroke="black" points="259.08,-166.4 259.08,-197.2 988.9,-197.2 988.9,-166.4 259.08,-166.4"/>
<text text-anchor="start" x="266.08" y="-178.6" font-family="Arial" font-size="14.00">description </text>
<text text-anchor="start" x="337.67" y="-178.6" font-family="Arial" font-size="14.00" fill="#666666">[TEXT]</text>
<polygon fill="none" stroke="black" points="259.08,-135.6 259.08,-166.4 988.9,-166.4 988.9,-135.6 259.08,-135.6"/>
<text text-anchor="start" x="266.08" y="-147.8" font-family="Arial" font-size="14.00">created_at </text>
<text text-anchor="start" x="336.13" y="-147.8" font-family="Arial" font-size="14.00" fill="#666666">[DATETIME]</text>
<polygon fill="none" stroke="black" points="259.08,-104.8 259.08,-135.6 988.9,-135.6 988.9,-104.8 259.08,-104.8"/>
<text text-anchor="start" x="266.08" y="-117" font-family="Arial" font-size="14.00">project_type </text>
<text text-anchor="start" x="346.24" y="-117" font-family="Arial" font-size="14.00" fill="#666666">[TEXT]</text>
<text text-anchor="start" x="389.79" y="-117" font-family="Arial" font-size="14.00"> Added v12, default &#39;standard&#39;. No SQL CHECK — the legal vocabulary is enforced in Rust only.</text>
<polygon fill="none" stroke="black" points="259.08,-74 259.08,-104.8 988.9,-104.8 988.9,-74 259.08,-74"/>
<text text-anchor="start" x="266.08" y="-86.2" font-family="Arial" font-size="14.00">sort_order </text>
<text text-anchor="start" x="333.77" y="-86.2" font-family="Arial" font-size="14.00" fill="#666666">[INTEGER]</text>
<text text-anchor="start" x="403.78" y="-86.2" font-family="Arial" font-size="14.00"> Manual ordering (v14); back&#45;filled as id * 10 to leave gaps for inserts.</text>
<polygon fill="none" stroke="black" points="259.08,-43.2 259.08,-74 988.9,-74 988.9,-43.2 259.08,-43.2"/>
<text text-anchor="start" x="266.08" y="-55.4" font-family="Arial" font-size="14.00">auto_sync_enabled </text>
<text text-anchor="start" x="391.4" y="-55.4" font-family="Arial" font-size="14.00" fill="#666666">[INTEGER]</text>
<text text-anchor="start" x="461.41" y="-55.4" font-family="Arial" font-size="14.00"> v28 — 0/1 opt&#45;in for the background auto&#45;sync timer.</text>
</g>
<!-- project_renames&#45;&gt;projects -->
<g id="edge1" class="edge">
<title>project_renames:project_id&#45;&gt;projects:id</title>
<path fill="none" stroke="black" d="M1213.1,-537.56C1354.78,-524.91 1147.81,-243.4 989.9,-243.4"/>
<polygon fill="black" stroke="black" points="1213.11,-537.56 1202.92,-533.49 1207.78,-537.79 1203.45,-537.97 1203.45,-537.97 1203.45,-537.97 1207.78,-537.79 1203.31,-542.48 1213.11,-537.56"/>
<text text-anchor="start" x="1209.78" y="-548" font-family="Arial" font-size="10.00">FOREIGN KEY (project_id) REFERENCES projects (id) ON UPDATE NO ACTION ON DELETE CASCADE MATCH NONE</text>
</g>
</g>
</svg>
