<?xml version="1.0" encoding="UTF-8" standalone="no"?>
<!DOCTYPE svg PUBLIC "-//W3C//DTD SVG 1.1//EN"
 "http://www.w3.org/Graphics/SVG/1.1/DTD/svg11.dtd">
<!-- Generated by graphviz version 12.1.2 (20240928.0832)
 -->
<!-- Title: project_microservices Pages: 1 -->
<svg width="2159pt" height="592pt"
 viewBox="0.00 0.00 2159.17 592.00" xmlns="http://www.w3.org/2000/svg" xmlns:xlink="http://www.w3.org/1999/xlink">
<g id="graph0" class="graph" transform="scale(1 1) rotate(0) translate(4 588)">
<title>project_microservices</title>
<polygon fill="white" stroke="none" points="-4,4 -4,-588 2155.17,-588 2155.17,4 -4,4"/>
<!-- project_microservices -->
<g id="node1" class="node">
<title>project_microservices</title>
<polygon fill="#efefef" stroke="none" points="46.2,-491.8 46.2,-537.8 1588.86,-537.8 1588.86,-491.8 46.2,-491.8"/>
<polygon fill="none" stroke="black" points="46.2,-491.8 46.2,-537.8 1588.86,-537.8 1588.86,-491.8 46.2,-491.8"/>
<text text-anchor="start" x="703.44" y="-515.6" font-family="Arial Bold" font-size="18.00">project_microservices</text>
<text text-anchor="start" x="862.37" y="-515.6" font-family="Arial" font-size="14.00">    </text>
<text text-anchor="start" x="893.49" y="-515.6" font-family="Arial" font-size="14.00" fill="#666666">[table]</text>
<text text-anchor="start" x="53.2" y="-501.2" font-family="Arial" font-size="14.00" fill="#333333">Many&#45;to&#45;many link between a parent project and a consumed microservice project. Rebuilt in v12 — before that it linked a project to a repository. Composite PK plus CHECK(project_id != microservice_project_id), so a project cannot consume itself.</text>
<polygon fill="none" stroke="black" points="46.2,-461 46.2,-491.8 1588.86,-491.8 1588.86,-461 46.2,-461"/>
<text text-anchor="start" x="53.2" y="-473.2" font-family="Arial" font-size="14.00">project_id </text>
<text text-anchor="start" x="117.79" y="-473.2" font-family="Arial" font-size="14.00" fill="#666666">[INTEGER]</text>
<polygon fill="none" stroke="black" points="46.2,-430.2 46.2,-461 1588.86,-461 1588.86,-430.2 46.2,-430.2"/>
<text text-anchor="start" x="53.2" y="-442.4" font-family="Arial" font-size="14.00">microservice_project_id </text>
<text text-anchor="start" x="204.14" y="-442.4" font-family="Arial" font-size="14.00" fill="#666666">[INTEGER]</text>
<polygon fill="none" stroke="black" stroke-width="3" points="44.7,-428.7 44.7,-539.3 1590.36,-539.3 1590.36,-428.7 44.7,-428.7"/>
</g>
<!-- projects -->
<g id="node2" class="node">
<title>projects</title>
<polygon fill="#efefef" stroke="none" points="452.62,-258.8 452.62,-304.8 1182.44,-304.8 1182.44,-258.8 452.62,-258.8"/>
<polygon fill="none" stroke="black" points="452.62,-258.8 452.62,-304.8 1182.44,-304.8 1182.44,-258.8 452.62,-258.8"/>
<text text-anchor="start" x="754.41" y="-282.6" font-family="Arial Bold" font-size="18.00">projects</text>
<text text-anchor="start" x="811.39" y="-282.6" font-family="Arial" font-size="14.00">    </text>
<text text-anchor="start" x="842.51" y="-282.6" font-family="Arial" font-size="14.00" fill="#666666">[table]</text>
<text text-anchor="start" x="528.44" y="-268.2" font-family="Arial" font-size="14.00" fill="#333333">A portfolio project — the unit that groups repositories and can consume microservice projects.</text>
<polygon fill="none" stroke="black" points="452.62,-228 452.62,-258.8 1182.44,-258.8 1182.44,-228 452.62,-228"/>
<text text-anchor="start" x="459.62" y="-240.2" font-family="Arial" font-size="14.00">id </text>
<text text-anchor="start" x="474.4" y="-240.2" font-family="Arial" font-size="14.00" fill="#666666">[INTEGER]</text>
<polygon fill="none" stroke="black" points="452.62,-197.2 452.62,-228 1182.44,-228 1182.44,-197.2 452.62,-197.2"/>
<text text-anchor="start" x="459.62" y="-209.4" font-family="Arial" font-size="14.00">name </text>
<text text-anchor="start" x="498.53" y="-209.4" font-family="Arial" font-size="14.00" fill="#666666">[TEXT]</text>
<polygon fill="none" stroke="black" points="452.62,-166.4 452.62,-197.2 1182.44,-197.2 1182.44,-166.4 452.62,-166.4"/>
<text text-anchor="start" x="459.62" y="-178.6" font-family="Arial" font-size="14.00">description </text>
<text text-anchor="start" x="531.21" y="-178.6" font-family="Arial" font-size="14.00" fill="#666666">[TEXT]</text>
<polygon fill="none" stroke="black" points="452.62,-135.6 452.62,-166.4 1182.44,-166.4 1182.44,-135.6 452.62,-135.6"/>
<text text-anchor="start" x="459.62" y="-147.8" font-family="Arial" font-size="14.00">created_at </text>
<text text-anchor="start" x="529.66" y="-147.8" font-family="Arial" font-size="14.00" fill="#666666">[DATETIME]</text>
<polygon fill="none" stroke="black" points="452.62,-104.8 452.62,-135.6 1182.44,-135.6 1182.44,-104.8 452.62,-104.8"/>
<text text-anchor="start" x="459.62" y="-117" font-family="Arial" font-size="14.00">project_type </text>
<text text-anchor="start" x="539.78" y="-117" font-family="Arial" font-size="14.00" fill="#666666">[TEXT]</text>
<text text-anchor="start" x="583.33" y="-117" font-family="Arial" font-size="14.00"> Added v12, default &#39;standard&#39;. No SQL CHECK — the legal vocabulary is enforced in Rust only.</text>
<polygon fill="none" stroke="black" points="452.62,-74 452.62,-104.8 1182.44,-104.8 1182.44,-74 452.62,-74"/>
<text text-anchor="start" x="459.62" y="-86.2" font-family="Arial" font-size="14.00">sort_order </text>
<text text-anchor="start" x="527.31" y="-86.2" font-family="Arial" font-size="14.00" fill="#666666">[INTEGER]</text>
<text text-anchor="start" x="597.32" y="-86.2" font-family="Arial" font-size="14.00"> Manual ordering (v14); back&#45;filled as id * 10 to leave gaps for inserts.</text>
<polygon fill="none" stroke="black" points="452.62,-43.2 452.62,-74 1182.44,-74 1182.44,-43.2 452.62,-43.2"/>
<text text-anchor="start" x="459.62" y="-55.4" font-family="Arial" font-size="14.00">auto_sync_enabled </text>
<text text-anchor="start" x="584.94" y="-55.4" font-family="Arial" font-size="14.00" fill="#666666">[INTEGER]</text>
<text text-anchor="start" x="654.95" y="-55.4" font-family="Arial" font-size="14.00"> v28 — 0/1 opt&#45;in for the background auto&#45;sync timer.</text>
</g>
<!-- project_microservices&#45;&gt;projects -->
<g id="edge1" class="edge">
<title>project_microservices:project_id&#45;&gt;projects:id</title>
<path fill="none" stroke="black" d="M1599.89,-474.91C1627.49,-465.55 1610.6,-414.21 1588.86,-384 1533.15,-306.61 1278.8,-243.4 1183.44,-243.4"/>
<polygon fill="black" stroke="black" points="1600.08,-474.88 1589.53,-471.9 1594.81,-475.67 1590.52,-476.3 1590.52,-476.3 1590.52,-476.3 1594.81,-475.67 1590.85,-480.8 1600.08,-474.88"/>
<text text-anchor="start" x="1596.86" y="-486.4" font-family="Arial" font-size="10.00">FOREIGN KEY (project_id) REFERENCES projects (id) ON UPDATE NO ACTION ON DELETE CASCADE MATCH NONE</text>
</g>
<!-- project_microservices&#45;&gt;projects -->
<g id="edge2" class="edge">
<title>project_microservices:microservice_project_id&#45;&gt;projects:id</title>
<path fill="none" stroke="black" d="M817.89,-419.01C828.64,-272.09 1080.12,-474.35 1182.44,-348 1211.7,-311.87 1229.93,-243.4 1183.44,-243.4"/>
<polygon fill="black" stroke="black" points="817.89,-418.87 813.04,-428.71 817.7,-424.2 817.55,-428.53 817.55,-428.53 817.55,-428.53 817.7,-424.2 822.04,-429.02 817.89,-418.87"/>
<text text-anchor="start" x="201.54" y="-439.2" font-family="Arial" font-size="10.00">FOREIGN KEY (microservice_project_id) REFERENCES projects (id) ON UPDATE NO ACTION ON DELETE CASCADE MATCH NONE</text>
</g>
</g>
</svg>
