<?xml version="1.0" encoding="UTF-8" standalone="no"?>
<!DOCTYPE svg PUBLIC "-//W3C//DTD SVG 1.1//EN"
 "http://www.w3.org/Graphics/SVG/1.1/DTD/svg11.dtd">
<!-- Generated by graphviz version 12.1.2 (20240928.0832)
 -->
<!-- Title: repositories Pages: 1 -->
<svg width="7754pt" height="1654pt"
 viewBox="0.00 0.00 7754.38 1653.60" xmlns="http://www.w3.org/2000/svg" xmlns:xlink="http://www.w3.org/1999/xlink">
<g id="graph0" class="graph" transform="scale(1 1) rotate(0) translate(4 1649.6)">
<title>repositories</title>
<polygon fill="white" stroke="none" points="-4,4 -4,-1649.6 7750.38,-1649.6 7750.38,4 -4,4"/>
<!-- repositories -->
<g id="node1" class="node">
<title>repositories</title>
<polygon fill="#efefef" stroke="none" points="3726.77,-984.6 3726.77,-1030.6 4957.83,-1030.6 4957.83,-984.6 3726.77,-984.6"/>
<polygon fill="none" stroke="black" points="3726.77,-984.6 3726.77,-1030.6 4957.83,-1030.6 4957.83,-984.6 3726.77,-984.6"/>
<text text-anchor="start" x="4265.68" y="-1008.4" font-family="Arial Bold" font-size="18.00">repositories</text>
<text text-anchor="start" x="4349.66" y="-1008.4" font-family="Arial" font-size="14.00">    </text>
<text text-anchor="start" x="4380.78" y="-1008.4" font-family="Arial" font-size="14.00" fill="#666666">[table]</text>
<text text-anchor="start" x="4086.28" y="-994" font-family="Arial" font-size="14.00" fill="#333333">A repository belonging to at most one project. May be GitHub&#45;backed or local&#45;only.</text>
<polygon fill="none" stroke="black" points="3726.77,-953.8 3726.77,-984.6 4957.83,-984.6 4957.83,-953.8 3726.77,-953.8"/>
<text text-anchor="start" x="3733.77" y="-966" font-family="Arial" font-size="14.00">id </text>
<text text-anchor="start" x="3748.56" y="-966" font-family="Arial" font-size="14.00" fill="#666666">[INTEGER]</text>
<polygon fill="none" stroke="black" points="3726.77,-923 3726.77,-953.8 4957.83,-953.8 4957.83,-923 3726.77,-923"/>
<text text-anchor="start" x="3733.77" y="-935.2" font-family="Arial" font-size="14.00">project_id </text>
<text text-anchor="start" x="3798.36" y="-935.2" font-family="Arial" font-size="14.00" fill="#666666">[INTEGER]</text>
<text text-anchor="start" x="3868.37" y="-935.2" font-family="Arial" font-size="14.00"> ON DELETE SET NULL — the only non&#45;cascading FK in the schema. Deleting a project orphans its repositories rather than destroying them.</text>
<polygon fill="none" stroke="black" points="3726.77,-892.2 3726.77,-923 4957.83,-923 4957.83,-892.2 3726.77,-892.2"/>
<text text-anchor="start" x="3733.77" y="-904.4" font-family="Arial" font-size="14.00">github_name </text>
<text text-anchor="start" x="3818.61" y="-904.4" font-family="Arial" font-size="14.00" fill="#666666">[TEXT]</text>
<text text-anchor="start" x="3862.17" y="-904.4" font-family="Arial" font-size="14.00"> UNIQUE, and nullable since v13 so local&#45;only repos (never pushed to GitHub) can exist. The last path segment is the canonical folder name used for all cross&#45;repo doc folders.</text>
<polygon fill="none" stroke="black" points="3726.77,-861.4 3726.77,-892.2 4957.83,-892.2 4957.83,-861.4 3726.77,-861.4"/>
<text text-anchor="start" x="3733.77" y="-873.6" font-family="Arial" font-size="14.00">github_url </text>
<text text-anchor="start" x="3799.15" y="-873.6" font-family="Arial" font-size="14.00" fill="#666666">[TEXT]</text>
<polygon fill="none" stroke="black" points="3726.77,-830.6 3726.77,-861.4 4957.83,-861.4 4957.83,-830.6 3726.77,-830.6"/>
<text text-anchor="start" x="3733.77" y="-842.8" font-family="Arial" font-size="14.00">role </text>
<text text-anchor="start" x="3761" y="-842.8" font-family="Arial" font-size="14.00" fill="#666666">[TEXT]</text>
<text text-anchor="start" x="3804.56" y="-842.8" font-family="Arial" font-size="14.00"> &#39;microservice&#39; is still legal here but is legacy: v12 NULLed every such row when microservice became a project type rather than a repo role.</text>
<polygon fill="none" stroke="black" points="3726.77,-799.8 3726.77,-830.6 4957.83,-830.6 4957.83,-799.8 3726.77,-799.8"/>
<text text-anchor="start" x="3733.77" y="-812" font-family="Arial" font-size="14.00">description </text>
<text text-anchor="start" x="3805.36" y="-812" font-family="Arial" font-size="14.00" fill="#666666">[TEXT]</text>
<polygon fill="none" stroke="black" points="3726.77,-769 3726.77,-799.8 4957.83,-799.8 4957.83,-769 3726.77,-769"/>
<text text-anchor="start" x="3733.77" y="-781.2" font-family="Arial" font-size="14.00">language </text>
<text text-anchor="start" x="3795.27" y="-781.2" font-family="Arial" font-size="14.00" fill="#666666">[TEXT]</text>
<polygon fill="none" stroke="black" points="3726.77,-738.2 3726.77,-769 4957.83,-769 4957.83,-738.2 3726.77,-738.2"/>
<text text-anchor="start" x="3733.77" y="-750.4" font-family="Arial" font-size="14.00">last_pushed_at </text>
<text text-anchor="start" x="3832.62" y="-750.4" font-family="Arial" font-size="14.00" fill="#666666">[DATETIME]</text>
<polygon fill="none" stroke="black" points="3726.77,-707.4 3726.77,-738.2 4957.83,-738.2 4957.83,-707.4 3726.77,-707.4"/>
<text text-anchor="start" x="3733.77" y="-719.6" font-family="Arial" font-size="14.00">added_at </text>
<text text-anchor="start" x="3796.05" y="-719.6" font-family="Arial" font-size="14.00" fill="#666666">[DATETIME]</text>
<polygon fill="none" stroke="black" points="3726.77,-676.6 3726.77,-707.4 4957.83,-707.4 4957.83,-676.6 3726.77,-676.6"/>
<text text-anchor="start" x="3733.77" y="-688.8" font-family="Arial" font-size="14.00">updated_at </text>
<text text-anchor="start" x="3807.73" y="-688.8" font-family="Arial" font-size="14.00" fill="#666666">[DATETIME]</text>
<polygon fill="none" stroke="black" points="3726.77,-645.8 3726.77,-676.6 4957.83,-676.6 4957.83,-645.8 3726.77,-645.8"/>
<text text-anchor="start" x="3733.77" y="-658" font-family="Arial" font-size="14.00">local_path </text>
<text text-anchor="start" x="3801.49" y="-658" font-family="Arial" font-size="14.00" fill="#666666">[TEXT]</text>
<polygon fill="none" stroke="black" points="3726.77,-615 3726.77,-645.8 4957.83,-645.8 4957.83,-615 3726.77,-615"/>
<text text-anchor="start" x="3733.77" y="-627.2" font-family="Arial" font-size="14.00">github_id </text>
<text text-anchor="start" x="3794.49" y="-627.2" font-family="Arial" font-size="14.00" fill="#666666">[INTEGER]</text>
<text text-anchor="start" x="3864.49" y="-627.2" font-family="Arial" font-size="14.00"> Stable GitHub identifier — the basis of rename detection.</text>
<polygon fill="none" stroke="black" points="3726.77,-584.2 3726.77,-615 4957.83,-615 4957.83,-584.2 3726.77,-584.2"/>
<text text-anchor="start" x="3733.77" y="-596.4" font-family="Arial" font-size="14.00">deploy_target </text>
<text text-anchor="start" x="3822.5" y="-596.4" font-family="Arial" font-size="14.00" fill="#666666">[TEXT]</text>
<text text-anchor="start" x="3866.06" y="-596.4" font-family="Arial" font-size="14.00"> Matches templates.language_key.</text>
<polygon fill="none" stroke="black" points="3726.77,-553.4 3726.77,-584.2 4957.83,-584.2 4957.83,-553.4 3726.77,-553.4"/>
<text text-anchor="start" x="3733.77" y="-565.6" font-family="Arial" font-size="14.00">sort_order </text>
<text text-anchor="start" x="3801.47" y="-565.6" font-family="Arial" font-size="14.00" fill="#666666">[INTEGER]</text>
<polygon fill="none" stroke="black" points="3726.77,-522.6 3726.77,-553.4 4957.83,-553.4 4957.83,-522.6 3726.77,-522.6"/>
<text text-anchor="start" x="3733.77" y="-534.8" font-family="Arial" font-size="14.00">bugs_migrated_at </text>
<text text-anchor="start" x="3849.73" y="-534.8" font-family="Arial" font-size="14.00" fill="#666666">[TEXT]</text>
<text text-anchor="start" x="3893.29" y="-534.8" font-family="Arial" font-size="14.00"> Lazy&#45;migration marker (v18); NULL means the repo&#39;s MD has never been imported.</text>
<polygon fill="none" stroke="black" points="3726.77,-491.8 3726.77,-522.6 4957.83,-522.6 4957.83,-491.8 3726.77,-491.8"/>
<text text-anchor="start" x="3733.77" y="-504" font-family="Arial" font-size="14.00">tasks_migrated_at </text>
<text text-anchor="start" x="3852.05" y="-504" font-family="Arial" font-size="14.00" fill="#666666">[TEXT]</text>
<text text-anchor="start" x="3895.61" y="-504" font-family="Arial" font-size="14.00"> Lazy&#45;migration marker (v21). While NULL, the first task sync suppresses &#39;created&#39; events so backfilling legacy files doesn&#39;t flood the timeline.</text>
<polygon fill="none" stroke="black" points="3726.77,-461 3726.77,-491.8 4957.83,-491.8 4957.83,-461 3726.77,-461"/>
<text text-anchor="start" x="3733.77" y="-473.2" font-family="Arial" font-size="14.00">deploy_repo_config </text>
<text text-anchor="start" x="3859.87" y="-473.2" font-family="Arial" font-size="14.00" fill="#666666">[TEXT]</text>
<text text-anchor="start" x="3903.42" y="-473.2" font-family="Arial" font-size="14.00"> v25 — JSON map of repo&#45;wide (not per&#45;environment) deploy placeholder values.</text>
<polygon fill="none" stroke="black" points="3726.77,-430.2 3726.77,-461 4957.83,-461 4957.83,-430.2 3726.77,-430.2"/>
<text text-anchor="start" x="3733.77" y="-442.4" font-family="Arial" font-size="14.00">autocommit_branch </text>
<text text-anchor="start" x="3860.61" y="-442.4" font-family="Arial" font-size="14.00" fill="#666666">[TEXT]</text>
<text text-anchor="start" x="3904.17" y="-442.4" font-family="Arial" font-size="14.00"> v28 — NULL means auto&#45;commit is off for this repo.</text>
<polygon fill="none" stroke="black" stroke-width="3" points="3725.27,-428.7 3725.27,-1032.1 4959.33,-1032.1 4959.33,-428.7 3725.27,-428.7"/>
</g>
<!-- projects -->
<g id="node8" class="node">
<title>projects</title>
<polygon fill="#efefef" stroke="none" points="3977.39,-258.8 3977.39,-304.8 4707.21,-304.8 4707.21,-258.8 3977.39,-258.8"/>
<polygon fill="none" stroke="black" points="3977.39,-258.8 3977.39,-304.8 4707.21,-304.8 4707.21,-258.8 3977.39,-258.8"/>
<text text-anchor="start" x="4279.18" y="-282.6" font-family="Arial Bold" font-size="18.00">projects</text>
<text text-anchor="start" x="4336.16" y="-282.6" font-family="Arial" font-size="14.00">    </text>
<text text-anchor="start" x="4367.28" y="-282.6" font-family="Arial" font-size="14.00" fill="#666666">[table]</text>
<text text-anchor="start" x="4053.22" y="-268.2" font-family="Arial" font-size="14.00" fill="#333333">A portfolio project — the unit that groups repositories and can consume microservice projects.</text>
<polygon fill="none" stroke="black" points="3977.39,-228 3977.39,-258.8 4707.21,-258.8 4707.21,-228 3977.39,-228"/>
<text text-anchor="start" x="3984.39" y="-240.2" font-family="Arial" font-size="14.00">id </text>
<text text-anchor="start" x="3999.17" y="-240.2" font-family="Arial" font-size="14.00" fill="#666666">[INTEGER]</text>
<polygon fill="none" stroke="black" points="3977.39,-197.2 3977.39,-228 4707.21,-228 4707.21,-197.2 3977.39,-197.2"/>
<text text-anchor="start" x="3984.39" y="-209.4" font-family="Arial" font-size="14.00">name </text>
<text text-anchor="start" x="4023.3" y="-209.4" font-family="Arial" font-size="14.00" fill="#666666">[TEXT]</text>
<polygon fill="none" stroke="black" points="3977.39,-166.4 3977.39,-197.2 4707.21,-197.2 4707.21,-166.4 3977.39,-166.4"/>
<text text-anchor="start" x="3984.39" y="-178.6" font-family="Arial" font-size="14.00">description </text>
<text text-anchor="start" x="4055.98" y="-178.6" font-family="Arial" font-size="14.00" fill="#666666">[TEXT]</text>
<polygon fill="none" stroke="black" points="3977.39,-135.6 3977.39,-166.4 4707.21,-166.4 4707.21,-135.6 3977.39,-135.6"/>
<text text-anchor="start" x="3984.39" y="-147.8" font-family="Arial" font-size="14.00">created_at </text>
<text text-anchor="start" x="4054.44" y="-147.8" font-family="Arial" font-size="14.00" fill="#666666">[DATETIME]</text>
<polygon fill="none" stroke="black" points="3977.39,-104.8 3977.39,-135.6 4707.21,-135.6 4707.21,-104.8 3977.39,-104.8"/>
<text text-anchor="start" x="3984.39" y="-117" font-family="Arial" font-size="14.00">project_type </text>
<text text-anchor="start" x="4064.55" y="-117" font-family="Arial" font-size="14.00" fill="#666666">[TEXT]</text>
<text text-anchor="start" x="4108.11" y="-117" font-family="Arial" font-size="14.00"> Added v12, default &#39;standard&#39;. No SQL CHECK — the legal vocabulary is enforced in Rust only.</text>
<polygon fill="none" stroke="black" points="3977.39,-74 3977.39,-104.8 4707.21,-104.8 4707.21,-74 3977.39,-74"/>
<text text-anchor="start" x="3984.39" y="-86.2" font-family="Arial" font-size="14.00">sort_order </text>
<text text-anchor="start" x="4052.08" y="-86.2" font-family="Arial" font-size="14.00" fill="#666666">[INTEGER]</text>
<text text-anchor="start" x="4122.09" y="-86.2" font-family="Arial" font-size="14.00"> Manual ordering (v14); back&#45;filled as id * 10 to leave gaps for inserts.</text>
<polygon fill="none" stroke="black" points="3977.39,-43.2 3977.39,-74 4707.21,-74 4707.21,-43.2 3977.39,-43.2"/>
<text text-anchor="start" x="3984.39" y="-55.4" font-family="Arial" font-size="14.00">auto_sync_enabled </text>
<text text-anchor="start" x="4109.71" y="-55.4" font-family="Arial" font-size="14.00" fill="#666666">[INTEGER]</text>
<text text-anchor="start" x="4179.72" y="-55.4" font-family="Arial" font-size="14.00"> v28 — 0/1 opt&#45;in for the background auto&#45;sync timer.</text>
</g>
<!-- repositories&#45;&gt;projects -->
<g id="edge7" class="edge">
<title>repositories:project_id&#45;&gt;projects:id</title>
<path fill="none" stroke="black" d="M4969.21,-938.16C5281.8,-923.55 5033.04,-243.4 4708.21,-243.4"/>
<polygon fill="black" stroke="black" points="4969.16,-938.16 4959.06,-933.89 4963.83,-938.28 4959.5,-938.38 4959.5,-938.38 4959.5,-938.38 4963.83,-938.28 4959.27,-942.89 4969.16,-938.16"/>
<text text-anchor="start" x="4965.83" y="-948.4" font-family="Arial" font-size="10.00">FOREIGN KEY (project_id) REFERENCES projects (id) ON UPDATE NO ACTION ON DELETE SET NULL MATCH NONE</text>
</g>
<!-- repo_renames -->
<g id="node2" class="node">
<title>repo_renames</title>
<polygon fill="#efefef" stroke="none" points="43.2,-1433.2 43.2,-1479.2 1973.4,-1479.2 1973.4,-1433.2 43.2,-1433.2"/>
<polygon fill="none" stroke="black" points="43.2,-1433.2 43.2,-1479.2 1973.4,-1479.2 1973.4,-1433.2 43.2,-1433.2"/>
<text text-anchor="start" x="923.2" y="-1457" font-family="Arial Bold" font-size="18.00">repo_renames</text>
<text text-anchor="start" x="1024.15" y="-1457" font-family="Arial" font-size="14.00">    </text>
<text text-anchor="start" x="1055.27" y="-1457" font-family="Arial" font-size="14.00" fill="#666666">[table]</text>
<text text-anchor="start" x="50.2" y="-1442.6" font-family="Arial" font-size="14.00" fill="#333333">Append&#45;only log of repository renames, written when a known github_id shows up under a new github_name. The sync preamble replays every entry to rename cross&#45;repo folders on the counterparty&#39;s disk. There is deliberately no applied_at column — idempotency comes from filesystem checks, not DB state.</text>
<polygon fill="none" stroke="black" points="43.2,-1402.4 43.2,-1433.2 1973.4,-1433.2 1973.4,-1402.4 43.2,-1402.4"/>
<text text-anchor="start" x="50.2" y="-1414.6" font-family="Arial" font-size="14.00">id </text>
<text text-anchor="start" x="64.99" y="-1414.6" font-family="Arial" font-size="14.00" fill="#666666">[INTEGER]</text>
<polygon fill="none" stroke="black" points="43.2,-1371.6 43.2,-1402.4 1973.4,-1402.4 1973.4,-1371.6 43.2,-1371.6"/>
<text text-anchor="start" x="50.2" y="-1383.8" font-family="Arial" font-size="14.00">repository_id </text>
<text text-anchor="start" x="134.24" y="-1383.8" font-family="Arial" font-size="14.00" fill="#666666">[INTEGER]</text>
<polygon fill="none" stroke="black" points="43.2,-1340.8 43.2,-1371.6 1973.4,-1371.6 1973.4,-1340.8 43.2,-1340.8"/>
<text text-anchor="start" x="50.2" y="-1353" font-family="Arial" font-size="14.00">old_canonical </text>
<text text-anchor="start" x="139.71" y="-1353" font-family="Arial" font-size="14.00" fill="#666666">[TEXT]</text>
<polygon fill="none" stroke="black" points="43.2,-1310 43.2,-1340.8 1973.4,-1340.8 1973.4,-1310 43.2,-1310"/>
<text text-anchor="start" x="50.2" y="-1322.2" font-family="Arial" font-size="14.00">new_canonical </text>
<text text-anchor="start" x="146.71" y="-1322.2" font-family="Arial" font-size="14.00" fill="#666666">[TEXT]</text>
<polygon fill="none" stroke="black" points="43.2,-1279.2 43.2,-1310 1973.4,-1310 1973.4,-1279.2 43.2,-1279.2"/>
<text text-anchor="start" x="50.2" y="-1291.4" font-family="Arial" font-size="14.00">renamed_at </text>
<text text-anchor="start" x="128.81" y="-1291.4" font-family="Arial" font-size="14.00" fill="#666666">[DATETIME]</text>
</g>
<!-- repo_renames&#45;&gt;repositories -->
<g id="edge1" class="edge">
<title>repo_renames:repository_id&#45;&gt;repositories:id</title>
<path fill="none" stroke="black" d="M1984.57,-1386.52C2088.91,-1375.9 1936.11,-1193.55 2025.3,-1112.8 2165.87,-985.54 3536.16,-969.2 3725.77,-969.2"/>
<polygon fill="black" stroke="black" points="1984.72,-1386.51 1974.52,-1382.49 1979.4,-1386.76 1975.07,-1386.97 1975.07,-1386.97 1975.07,-1386.97 1979.4,-1386.76 1974.95,-1391.48 1984.72,-1386.51"/>
<text text-anchor="start" x="1685.46" y="-1371" font-family="Arial" font-size="10.00">FOREIGN KEY (repository_id) REFERENCES repositories (id) ON UPDATE NO ACTION ON DELETE CASCADE MATCH NONE</text>
</g>
<!-- bugs -->
<g id="node3" class="node">
<title>bugs</title>
<polygon fill="#efefef" stroke="none" points="2077.36,-1556.4 2077.36,-1602.4 3151.24,-1602.4 3151.24,-1556.4 2077.36,-1556.4"/>
<polygon fill="none" stroke="black" points="2077.36,-1556.4 2077.36,-1602.4 3151.24,-1602.4 3151.24,-1556.4 2077.36,-1556.4"/>
<text text-anchor="start" x="2562.67" y="-1580.2" font-family="Arial Bold" font-size="18.00">bugs</text>
<text text-anchor="start" x="2596.68" y="-1580.2" font-family="Arial" font-size="14.00">    </text>
<text text-anchor="start" x="2627.79" y="-1580.2" font-family="Arial" font-size="14.00" fill="#666666">[table]</text>
<text text-anchor="start" x="2084.36" y="-1565.8" font-family="Arial" font-size="14.00" fill="#333333">Source of truth for bug reports. docs/bug&#45;reports.md in each repo is a generated, LLM&#45;facing view of this table — protected fields are restored from here on every reconcile.</text>
<polygon fill="none" stroke="black" points="2077.36,-1525.6 2077.36,-1556.4 3151.24,-1556.4 3151.24,-1525.6 2077.36,-1525.6"/>
<text text-anchor="start" x="2084.36" y="-1537.8" font-family="Arial" font-size="14.00">id </text>
<text text-anchor="start" x="2099.15" y="-1537.8" font-family="Arial" font-size="14.00" fill="#666666">[INTEGER]</text>
<polygon fill="none" stroke="black" points="2077.36,-1494.8 2077.36,-1525.6 3151.24,-1525.6 3151.24,-1494.8 2077.36,-1494.8"/>
<text text-anchor="start" x="2084.36" y="-1507" font-family="Arial" font-size="14.00">repository_id </text>
<text text-anchor="start" x="2168.4" y="-1507" font-family="Arial" font-size="14.00" fill="#666666">[INTEGER]</text>
<polygon fill="none" stroke="black" points="2077.36,-1464 2077.36,-1494.8 3151.24,-1494.8 3151.24,-1464 2077.36,-1464"/>
<text text-anchor="start" x="2084.36" y="-1476.2" font-family="Arial" font-size="14.00">numeric_id </text>
<text text-anchor="start" x="2156.73" y="-1476.2" font-family="Arial" font-size="14.00" fill="#666666">[INTEGER]</text>
<text text-anchor="start" x="2226.73" y="-1476.2" font-family="Arial" font-size="14.00"> Per&#45;repository counter; display_id is its rendered form (B&#45;000042).</text>
<polygon fill="none" stroke="black" points="2077.36,-1433.2 2077.36,-1464 3151.24,-1464 3151.24,-1433.2 2077.36,-1433.2"/>
<text text-anchor="start" x="2084.36" y="-1445.4" font-family="Arial" font-size="14.00">display_id </text>
<text text-anchor="start" x="2150.51" y="-1445.4" font-family="Arial" font-size="14.00" fill="#666666">[TEXT]</text>
<polygon fill="none" stroke="black" points="2077.36,-1402.4 2077.36,-1433.2 3151.24,-1433.2 3151.24,-1402.4 2077.36,-1402.4"/>
<text text-anchor="start" x="2084.36" y="-1414.6" font-family="Arial" font-size="14.00">created_at </text>
<text text-anchor="start" x="2154.41" y="-1414.6" font-family="Arial" font-size="14.00" fill="#666666">[TEXT]</text>
<polygon fill="none" stroke="black" points="2077.36,-1371.6 2077.36,-1402.4 3151.24,-1402.4 3151.24,-1371.6 2077.36,-1371.6"/>
<text text-anchor="start" x="2084.36" y="-1383.8" font-family="Arial" font-size="14.00">description </text>
<text text-anchor="start" x="2155.95" y="-1383.8" font-family="Arial" font-size="14.00" fill="#666666">[TEXT]</text>
<polygon fill="none" stroke="black" points="2077.36,-1340.8 2077.36,-1371.6 3151.24,-1371.6 3151.24,-1340.8 2077.36,-1340.8"/>
<text text-anchor="start" x="2084.36" y="-1353" font-family="Arial" font-size="14.00">severity </text>
<text text-anchor="start" x="2136.49" y="-1353" font-family="Arial" font-size="14.00" fill="#666666">[TEXT]</text>
<polygon fill="none" stroke="black" points="2077.36,-1310 2077.36,-1340.8 3151.24,-1340.8 3151.24,-1310 2077.36,-1310"/>
<text text-anchor="start" x="2084.36" y="-1322.2" font-family="Arial" font-size="14.00">category </text>
<text text-anchor="start" x="2141.95" y="-1322.2" font-family="Arial" font-size="14.00" fill="#666666">[TEXT]</text>
<polygon fill="none" stroke="black" points="2077.36,-1279.2 2077.36,-1310 3151.24,-1310 3151.24,-1279.2 2077.36,-1279.2"/>
<text text-anchor="start" x="2084.36" y="-1291.4" font-family="Arial" font-size="14.00">status </text>
<text text-anchor="start" x="2125.6" y="-1291.4" font-family="Arial" font-size="14.00" fill="#666666">[TEXT]</text>
<polygon fill="none" stroke="black" points="2077.36,-1248.4 2077.36,-1279.2 3151.24,-1279.2 3151.24,-1248.4 2077.36,-1248.4"/>
<text text-anchor="start" x="2084.36" y="-1260.6" font-family="Arial" font-size="14.00">fix_attempts </text>
<text text-anchor="start" x="2163.73" y="-1260.6" font-family="Arial" font-size="14.00" fill="#666666">[INTEGER]</text>
<text text-anchor="start" x="2233.73" y="-1260.6" font-family="Arial" font-size="14.00"> App&#45;managed: incremented on each transition into &#39;testing&#39;. Never written by an AI agent — this is what makes the attempt history honest.</text>
<polygon fill="none" stroke="black" points="2077.36,-1217.6 2077.36,-1248.4 3151.24,-1248.4 3151.24,-1217.6 2077.36,-1217.6"/>
<text text-anchor="start" x="2084.36" y="-1229.8" font-family="Arial" font-size="14.00">comment </text>
<text text-anchor="start" x="2145.82" y="-1229.8" font-family="Arial" font-size="14.00" fill="#666666">[TEXT]</text>
<polygon fill="none" stroke="black" points="2077.36,-1186.8 2077.36,-1217.6 3151.24,-1217.6 3151.24,-1186.8 2077.36,-1186.8"/>
<text text-anchor="start" x="2084.36" y="-1199" font-family="Arial" font-size="14.00">confirmed_at </text>
<text text-anchor="start" x="2169.18" y="-1199" font-family="Arial" font-size="14.00" fill="#666666">[TEXT]</text>
<polygon fill="none" stroke="black" points="2077.36,-1156 2077.36,-1186.8 3151.24,-1186.8 3151.24,-1156 2077.36,-1156"/>
<text text-anchor="start" x="2084.36" y="-1168.2" font-family="Arial" font-size="14.00">archived_from_md_at </text>
<text text-anchor="start" x="2223.65" y="-1168.2" font-family="Arial" font-size="14.00" fill="#666666">[TEXT]</text>
<text text-anchor="start" x="2267.21" y="-1168.2" font-family="Arial" font-size="14.00"> v22 — set when the agent removes a confirmed row from the MD file. After that, regeneration permanently excludes the row.</text>
</g>
<!-- bugs&#45;&gt;repositories -->
<g id="edge2" class="edge">
<title>bugs:repository_id&#45;&gt;repositories:id</title>
<path fill="none" stroke="black" d="M3162.28,-1508.57C3233.63,-1483.56 3147.31,-1177.26 3203.3,-1112.8 3282.26,-1021.89 3605.36,-969.2 3725.77,-969.2"/>
<polygon fill="black" stroke="black" points="3162.44,-1508.55 3151.85,-1505.7 3157.18,-1509.4 3152.9,-1510.09 3152.9,-1510.09 3152.9,-1510.09 3157.18,-1509.4 3153.29,-1514.59 3162.44,-1508.55"/>
<text text-anchor="start" x="3159.24" y="-1520.2" font-family="Arial" font-size="10.00">FOREIGN KEY (repository_id) REFERENCES repositories (id) ON UPDATE NO ACTION ON DELETE CASCADE MATCH NONE</text>
</g>
<!-- deploy_environments -->
<g id="node4" class="node">
<title>deploy_environments</title>
<polygon fill="#efefef" stroke="none" points="3255.9,-1525.6 3255.9,-1571.6 4196.71,-1571.6 4196.71,-1525.6 3255.9,-1525.6"/>
<polygon fill="none" stroke="black" points="3255.9,-1525.6 3255.9,-1571.6 4196.71,-1571.6 4196.71,-1525.6 3255.9,-1525.6"/>
<text text-anchor="start" x="3613.69" y="-1549.4" font-family="Arial Bold" font-size="18.00">deploy_environments</text>
<text text-anchor="start" x="3769.66" y="-1549.4" font-family="Arial" font-size="14.00">    </text>
<text text-anchor="start" x="3800.78" y="-1549.4" font-family="Arial" font-size="14.00" fill="#666666">[table]</text>
<text text-anchor="start" x="3262.9" y="-1535" font-family="Arial" font-size="14.00" fill="#333333">One deploy environment (prod / staging / any custom name) for a repository; 1:N per repo since v20, which replaced the single deploy_manifests row.</text>
<polygon fill="none" stroke="black" points="3255.9,-1494.8 3255.9,-1525.6 4196.71,-1525.6 4196.71,-1494.8 3255.9,-1494.8"/>
<text text-anchor="start" x="3262.9" y="-1507" font-family="Arial" font-size="14.00">id </text>
<text text-anchor="start" x="3277.68" y="-1507" font-family="Arial" font-size="14.00" fill="#666666">[INTEGER]</text>
<polygon fill="none" stroke="black" points="3255.9,-1464 3255.9,-1494.8 4196.71,-1494.8 4196.71,-1464 3255.9,-1464"/>
<text text-anchor="start" x="3262.9" y="-1476.2" font-family="Arial" font-size="14.00">repository_id </text>
<text text-anchor="start" x="3346.94" y="-1476.2" font-family="Arial" font-size="14.00" fill="#666666">[INTEGER]</text>
<polygon fill="none" stroke="black" points="3255.9,-1433.2 3255.9,-1464 4196.71,-1464 4196.71,-1433.2 3255.9,-1433.2"/>
<text text-anchor="start" x="3262.9" y="-1445.4" font-family="Arial" font-size="14.00">name </text>
<text text-anchor="start" x="3301.81" y="-1445.4" font-family="Arial" font-size="14.00" fill="#666666">[TEXT]</text>
<polygon fill="none" stroke="black" points="3255.9,-1402.4 3255.9,-1433.2 4196.71,-1433.2 4196.71,-1402.4 3255.9,-1402.4"/>
<text text-anchor="start" x="3262.9" y="-1414.6" font-family="Arial" font-size="14.00">workflow_name </text>
<text text-anchor="start" x="3364.05" y="-1414.6" font-family="Arial" font-size="14.00" fill="#666666">[TEXT]</text>
<polygon fill="none" stroke="black" points="3255.9,-1371.6 3255.9,-1402.4 4196.71,-1402.4 4196.71,-1371.6 3255.9,-1371.6"/>
<text text-anchor="start" x="3262.9" y="-1383.8" font-family="Arial" font-size="14.00">image_tag </text>
<text text-anchor="start" x="3332.16" y="-1383.8" font-family="Arial" font-size="14.00" fill="#666666">[TEXT]</text>
<polygon fill="none" stroke="black" points="3255.9,-1340.8 3255.9,-1371.6 4196.71,-1371.6 4196.71,-1340.8 3255.9,-1340.8"/>
<text text-anchor="start" x="3262.9" y="-1353" font-family="Arial" font-size="14.00">compose_service </text>
<text text-anchor="start" x="3375.72" y="-1353" font-family="Arial" font-size="14.00" fill="#666666">[TEXT]</text>
<polygon fill="none" stroke="black" points="3255.9,-1310 3255.9,-1340.8 4196.71,-1340.8 4196.71,-1310 3255.9,-1310"/>
<text text-anchor="start" x="3262.9" y="-1322.2" font-family="Arial" font-size="14.00">domain </text>
<text text-anchor="start" x="3312.7" y="-1322.2" font-family="Arial" font-size="14.00" fill="#666666">[TEXT]</text>
<polygon fill="none" stroke="black" points="3255.9,-1279.2 3255.9,-1310 4196.71,-1310 4196.71,-1279.2 3255.9,-1279.2"/>
<text text-anchor="start" x="3262.9" y="-1291.4" font-family="Arial" font-size="14.00">deploy_branch </text>
<text text-anchor="start" x="3358.63" y="-1291.4" font-family="Arial" font-size="14.00" fill="#666666">[TEXT]</text>
<polygon fill="none" stroke="black" points="3255.9,-1248.4 3255.9,-1279.2 4196.71,-1279.2 4196.71,-1248.4 3255.9,-1248.4"/>
<text text-anchor="start" x="3262.9" y="-1260.6" font-family="Arial" font-size="14.00">sort_order </text>
<text text-anchor="start" x="3330.59" y="-1260.6" font-family="Arial" font-size="14.00" fill="#666666">[INTEGER]</text>
<polygon fill="none" stroke="black" points="3255.9,-1217.6 3255.9,-1248.4 4196.71,-1248.4 4196.71,-1217.6 3255.9,-1217.6"/>
<text text-anchor="start" x="3262.9" y="-1229.8" font-family="Arial" font-size="14.00">extras </text>
<text text-anchor="start" x="3304.91" y="-1229.8" font-family="Arial" font-size="14.00" fill="#666666">[TEXT]</text>
<text text-anchor="start" x="3348.47" y="-1229.8" font-family="Arial" font-size="14.00"> JSON map of environment&#45;scope placeholder values. Repo&#45;wide ones live in repositories.deploy_repo_config.</text>
<polygon fill="none" stroke="black" points="3255.9,-1186.8 3255.9,-1217.6 4196.71,-1217.6 4196.71,-1186.8 3255.9,-1186.8"/>
<text text-anchor="start" x="3262.9" y="-1199" font-family="Arial" font-size="14.00">updated_at </text>
<text text-anchor="start" x="3336.85" y="-1199" font-family="Arial" font-size="14.00" fill="#666666">[TEXT]</text>
</g>
<!-- deploy_environments&#45;&gt;repositories -->
<g id="edge3" class="edge">
<title>deploy_environments:repository_id&#45;&gt;repositories:id</title>
<path fill="none" stroke="black" d="M4207.92,-1477.46C4269.67,-1452.64 4243.31,-1197.14 4196.71,-1143.6 4058.19,-984.48 3865.79,-1235.48 3726.77,-1076.8 3695.25,-1040.83 3677.95,-969.2 3725.77,-969.2"/>
<polygon fill="black" stroke="black" points="4207.86,-1477.47 4197.19,-1474.92 4202.62,-1478.47 4198.36,-1479.28 4198.36,-1479.28 4198.36,-1479.28 4202.62,-1478.47 4198.87,-1483.76 4207.86,-1477.47"/>
<text text-anchor="start" x="4204.71" y="-1489.4" font-family="Arial" font-size="10.00">FOREIGN KEY (repository_id) REFERENCES repositories (id) ON UPDATE NO ACTION ON DELETE CASCADE MATCH NONE</text>
</g>
<!-- tasks -->
<g id="node5" class="node">
<title>tasks</title>
<polygon fill="#efefef" stroke="none" points="4301.51,-1541 4301.51,-1587 5615.09,-1587 5615.09,-1541 4301.51,-1541"/>
<polygon fill="none" stroke="black" points="4301.51,-1541 4301.51,-1587 5615.09,-1587 5615.09,-1541 4301.51,-1541"/>
<text text-anchor="start" x="4905.67" y="-1564.8" font-family="Arial Bold" font-size="18.00">tasks</text>
<text text-anchor="start" x="4941.67" y="-1564.8" font-family="Arial" font-size="14.00">    </text>
<text text-anchor="start" x="4972.79" y="-1564.8" font-family="Arial" font-size="14.00" fill="#666666">[table]</text>
<text text-anchor="start" x="4308.51" y="-1550.4" font-family="Arial" font-size="14.00" fill="#333333">Mirror of docs/todo.md and docs/done.md. Polarity is the reverse of bugs — here the Markdown is canonical and this table is rebuilt from it on each sync, because tasks are hand&#45;edited far more often than bugs.</text>
<polygon fill="none" stroke="black" points="4301.51,-1510.2 4301.51,-1541 5615.09,-1541 5615.09,-1510.2 4301.51,-1510.2"/>
<text text-anchor="start" x="4308.51" y="-1522.4" font-family="Arial" font-size="14.00">id </text>
<text text-anchor="start" x="4323.3" y="-1522.4" font-family="Arial" font-size="14.00" fill="#666666">[INTEGER]</text>
<polygon fill="none" stroke="black" points="4301.51,-1479.4 4301.51,-1510.2 5615.09,-1510.2 5615.09,-1479.4 4301.51,-1479.4"/>
<text text-anchor="start" x="4308.51" y="-1491.6" font-family="Arial" font-size="14.00">repository_id </text>
<text text-anchor="start" x="4392.56" y="-1491.6" font-family="Arial" font-size="14.00" fill="#666666">[INTEGER]</text>
<polygon fill="none" stroke="black" points="4301.51,-1448.6 4301.51,-1479.4 5615.09,-1479.4 5615.09,-1448.6 4301.51,-1448.6"/>
<text text-anchor="start" x="4308.51" y="-1460.8" font-family="Arial" font-size="14.00">task_id </text>
<text text-anchor="start" x="4356.76" y="-1460.8" font-family="Arial" font-size="14.00" fill="#666666">[TEXT]</text>
<text text-anchor="start" x="4400.32" y="-1460.8" font-family="Arial" font-size="14.00"> The display id as written in Markdown (T&#45;000042 / F&#45;000013 / D&#45;000001) — TEXT, not a foreign key. Note task_events.task_id is a different thing: an INTEGER FK to tasks.id.</text>
<polygon fill="none" stroke="black" points="4301.51,-1417.8 4301.51,-1448.6 5615.09,-1448.6 5615.09,-1417.8 4301.51,-1417.8"/>
<text text-anchor="start" x="4308.51" y="-1430" font-family="Arial" font-size="14.00">prefix </text>
<text text-anchor="start" x="4346.64" y="-1430" font-family="Arial" font-size="14.00" fill="#666666">[TEXT]</text>
<polygon fill="none" stroke="black" points="4301.51,-1387 4301.51,-1417.8 5615.09,-1417.8 5615.09,-1387 4301.51,-1387"/>
<text text-anchor="start" x="4308.51" y="-1399.2" font-family="Arial" font-size="14.00">description </text>
<text text-anchor="start" x="4380.11" y="-1399.2" font-family="Arial" font-size="14.00" fill="#666666">[TEXT]</text>
<polygon fill="none" stroke="black" points="4301.51,-1356.2 4301.51,-1387 5615.09,-1387 5615.09,-1356.2 4301.51,-1356.2"/>
<text text-anchor="start" x="4308.51" y="-1368.4" font-family="Arial" font-size="14.00">effort </text>
<text text-anchor="start" x="4344.31" y="-1368.4" font-family="Arial" font-size="14.00" fill="#666666">[REAL]</text>
<polygon fill="none" stroke="black" points="4301.51,-1325.4 4301.51,-1356.2 5615.09,-1356.2 5615.09,-1325.4 4301.51,-1325.4"/>
<text text-anchor="start" x="4308.51" y="-1337.6" font-family="Arial" font-size="14.00">priority </text>
<text text-anchor="start" x="4354.41" y="-1337.6" font-family="Arial" font-size="14.00" fill="#666666">[TEXT]</text>
<text text-anchor="start" x="4397.97" y="-1337.6" font-family="Arial" font-size="14.00"> No SQL CHECK — critical / high / medium / low are enforced in Rust.</text>
<polygon fill="none" stroke="black" points="4301.51,-1294.6 4301.51,-1325.4 5615.09,-1325.4 5615.09,-1294.6 4301.51,-1294.6"/>
<text text-anchor="start" x="4308.51" y="-1306.8" font-family="Arial" font-size="14.00">status </text>
<text text-anchor="start" x="4349.76" y="-1306.8" font-family="Arial" font-size="14.00" fill="#666666">[TEXT]</text>
<text text-anchor="start" x="4393.31" y="-1306.8" font-family="Arial" font-size="14.00"> No SQL CHECK — open / in&#45;progress / review are enforced in Rust.</text>
<polygon fill="none" stroke="black" points="4301.51,-1263.8 4301.51,-1294.6 5615.09,-1294.6 5615.09,-1263.8 4301.51,-1263.8"/>
<text text-anchor="start" x="4308.51" y="-1276" font-family="Arial" font-size="14.00">version </text>
<text text-anchor="start" x="4357.53" y="-1276" font-family="Arial" font-size="14.00" fill="#666666">[TEXT]</text>
<text text-anchor="start" x="4401.09" y="-1276" font-family="Arial" font-size="14.00"> Inherited from the nearest preceding &#39;## vX.Y.Z&#39; header in todo.md.</text>
<polygon fill="none" stroke="black" points="4301.51,-1233 4301.51,-1263.8 5615.09,-1263.8 5615.09,-1233 4301.51,-1233"/>
<text text-anchor="start" x="4308.51" y="-1245.2" font-family="Arial" font-size="14.00">source </text>
<text text-anchor="start" x="4354.42" y="-1245.2" font-family="Arial" font-size="14.00" fill="#666666">[TEXT]</text>
<text text-anchor="start" x="4397.98" y="-1245.2" font-family="Arial" font-size="14.00"> &#39;todo&#39; or &#39;done&#39;. Part of the uniqueness key, so the same id may exist once per source during a transition.</text>
<polygon fill="none" stroke="black" points="4301.51,-1202.2 4301.51,-1233 5615.09,-1233 5615.09,-1202.2 4301.51,-1202.2"/>
<text text-anchor="start" x="4308.51" y="-1214.4" font-family="Arial" font-size="14.00">created_at </text>
<text text-anchor="start" x="4378.56" y="-1214.4" font-family="Arial" font-size="14.00" fill="#666666">[TEXT]</text>
<polygon fill="none" stroke="black" points="4301.51,-1171.4 4301.51,-1202.2 5615.09,-1202.2 5615.09,-1171.4 4301.51,-1171.4"/>
<text text-anchor="start" x="4308.51" y="-1183.6" font-family="Arial" font-size="14.00">updated_at </text>
<text text-anchor="start" x="4382.47" y="-1183.6" font-family="Arial" font-size="14.00" fill="#666666">[TEXT]</text>
</g>
<!-- tasks&#45;&gt;repositories -->
<g id="edge4" class="edge">
<title>tasks:repository_id&#45;&gt;repositories:id</title>
<path fill="none" stroke="black" d="M4291.95,-1488.94C4262.06,-1444.06 4275.98,-1155.73 4301.51,-1128.2 4400.99,-1020.93 4858.01,-1183.75 4957.83,-1076.8 4990.47,-1041.84 5006.66,-969.2 4958.83,-969.2"/>
<polygon fill="black" stroke="black" points="4291.99,-1488.96 4297.7,-1498.33 4296.39,-1491.98 4299.96,-1494.42 4299.96,-1494.42 4299.96,-1494.42 4296.39,-1491.98 4302.78,-1490.9 4291.99,-1488.96"/>
<text text-anchor="start" x="4307.51" y="-1504.8" font-family="Arial" font-size="10.00">FOREIGN KEY (repository_id) REFERENCES repositories (id) ON UPDATE NO ACTION ON DELETE CASCADE MATCH NONE</text>
</g>
<!-- deploy_events -->
<g id="node6" class="node">
<title>deploy_events</title>
<polygon fill="#efefef" stroke="none" points="5719.6,-1448.6 5719.6,-1494.6 6585,-1494.6 6585,-1448.6 5719.6,-1448.6"/>
<polygon fill="none" stroke="black" points="5719.6,-1448.6 5719.6,-1494.6 6585,-1494.6 6585,-1448.6 5719.6,-1448.6"/>
<text text-anchor="start" x="6065.69" y="-1472.4" font-family="Arial Bold" font-size="18.00">deploy_events</text>
<text text-anchor="start" x="6169.66" y="-1472.4" font-family="Arial" font-size="14.00">    </text>
<text text-anchor="start" x="6200.78" y="-1472.4" font-family="Arial" font-size="14.00" fill="#666666">[table]</text>
<text text-anchor="start" x="5726.6" y="-1458" font-family="Arial" font-size="14.00" fill="#333333">Log of deploy operations (template render, GitHub secret set/delete). deploy_env_id is nullable so repo&#45;level actions can be recorded too.</text>
<polygon fill="none" stroke="black" points="5719.6,-1417.8 5719.6,-1448.6 6585,-1448.6 6585,-1417.8 5719.6,-1417.8"/>
<text text-anchor="start" x="5726.6" y="-1430" font-family="Arial" font-size="14.00">id </text>
<text text-anchor="start" x="5741.39" y="-1430" font-family="Arial" font-size="14.00" fill="#666666">[INTEGER]</text>
<polygon fill="none" stroke="black" points="5719.6,-1387 5719.6,-1417.8 6585,-1417.8 6585,-1387 5719.6,-1387"/>
<text text-anchor="start" x="5726.6" y="-1399.2" font-family="Arial" font-size="14.00">deploy_env_id </text>
<text text-anchor="start" x="5820.79" y="-1399.2" font-family="Arial" font-size="14.00" fill="#666666">[INTEGER]</text>
<polygon fill="none" stroke="black" points="5719.6,-1356.2 5719.6,-1387 6585,-1387 6585,-1356.2 5719.6,-1356.2"/>
<text text-anchor="start" x="5726.6" y="-1368.4" font-family="Arial" font-size="14.00">repository_id </text>
<text text-anchor="start" x="5810.64" y="-1368.4" font-family="Arial" font-size="14.00" fill="#666666">[INTEGER]</text>
<polygon fill="none" stroke="black" points="5719.6,-1325.4 5719.6,-1356.2 6585,-1356.2 6585,-1325.4 5719.6,-1325.4"/>
<text text-anchor="start" x="5726.6" y="-1337.6" font-family="Arial" font-size="14.00">action </text>
<text text-anchor="start" x="5767.85" y="-1337.6" font-family="Arial" font-size="14.00" fill="#666666">[TEXT]</text>
<polygon fill="none" stroke="black" points="5719.6,-1294.6 5719.6,-1325.4 6585,-1325.4 6585,-1294.6 5719.6,-1294.6"/>
<text text-anchor="start" x="5726.6" y="-1306.8" font-family="Arial" font-size="14.00">ts </text>
<text text-anchor="start" x="5741.38" y="-1306.8" font-family="Arial" font-size="14.00" fill="#666666">[TEXT]</text>
<polygon fill="none" stroke="black" points="5719.6,-1263.8 5719.6,-1294.6 6585,-1294.6 6585,-1263.8 5719.6,-1263.8"/>
<text text-anchor="start" x="5726.6" y="-1276" font-family="Arial" font-size="14.00">details </text>
<text text-anchor="start" x="5770.96" y="-1276" font-family="Arial" font-size="14.00" fill="#666666">[TEXT]</text>
</g>
<!-- deploy_events&#45;&gt;repositories -->
<g id="edge5" class="edge">
<title>deploy_events:repository_id&#45;&gt;repositories:id</title>
<path fill="none" stroke="black" d="M5708.37,-1371.09C5610.41,-1360.71 5747.45,-1193.3 5667.3,-1112.8 5553.96,-998.97 5119.47,-969.2 4958.83,-969.2"/>
<polygon fill="black" stroke="black" points="5708.28,-1371.09 5718.05,-1376.08 5713.61,-1371.35 5717.94,-1371.57 5717.94,-1371.57 5717.94,-1371.57 5713.61,-1371.35 5718.49,-1367.09 5708.28,-1371.09"/>
<text text-anchor="start" x="5725.6" y="-1381.6" font-family="Arial" font-size="10.00">FOREIGN KEY (repository_id) REFERENCES repositories (id) ON UPDATE NO ACTION ON DELETE CASCADE MATCH NONE</text>
</g>
<!-- sync_events -->
<g id="node7" class="node">
<title>sync_events</title>
<polygon fill="#efefef" stroke="none" points="6689.42,-1448.6 6689.42,-1494.6 7703.18,-1494.6 7703.18,-1448.6 6689.42,-1448.6"/>
<polygon fill="none" stroke="black" points="6689.42,-1448.6 6689.42,-1494.6 7703.18,-1494.6 7703.18,-1448.6 6689.42,-1448.6"/>
<text text-anchor="start" x="7117.68" y="-1472.4" font-family="Arial Bold" font-size="18.00">sync_events</text>
<text text-anchor="start" x="7205.66" y="-1472.4" font-family="Arial" font-size="14.00">    </text>
<text text-anchor="start" x="7236.78" y="-1472.4" font-family="Arial" font-size="14.00" fill="#666666">[table]</text>
<text text-anchor="start" x="6779.19" y="-1458" font-family="Arial" font-size="14.00" fill="#333333">Log of sync operations, feeding the timeline. repository_id is nullable — a NULL row is a portfolio&#45;wide sync rather than a per&#45;repo one.</text>
<polygon fill="none" stroke="black" points="6689.42,-1417.8 6689.42,-1448.6 7703.18,-1448.6 7703.18,-1417.8 6689.42,-1417.8"/>
<text text-anchor="start" x="6696.42" y="-1430" font-family="Arial" font-size="14.00">id </text>
<text text-anchor="start" x="6711.21" y="-1430" font-family="Arial" font-size="14.00" fill="#666666">[INTEGER]</text>
<polygon fill="none" stroke="black" points="6689.42,-1387 6689.42,-1417.8 7703.18,-1417.8 7703.18,-1387 6689.42,-1387"/>
<text text-anchor="start" x="6696.42" y="-1399.2" font-family="Arial" font-size="14.00">repository_id </text>
<text text-anchor="start" x="6780.46" y="-1399.2" font-family="Arial" font-size="14.00" fill="#666666">[INTEGER]</text>
<polygon fill="none" stroke="black" points="6689.42,-1356.2 6689.42,-1387 7703.18,-1387 7703.18,-1356.2 6689.42,-1356.2"/>
<text text-anchor="start" x="6696.42" y="-1368.4" font-family="Arial" font-size="14.00">sync_type </text>
<text text-anchor="start" x="6763.34" y="-1368.4" font-family="Arial" font-size="14.00" fill="#666666">[TEXT]</text>
<text text-anchor="start" x="6806.9" y="-1368.4" font-family="Arial" font-size="14.00"> project_sync / tasks / secret / requirements / migration. &#39;migration&#39; was added in v25 to record deploy&#45;config conflicts resolved by first&#45;env&#45;wins.</text>
<polygon fill="none" stroke="black" points="6689.42,-1325.4 6689.42,-1356.2 7703.18,-1356.2 7703.18,-1325.4 6689.42,-1325.4"/>
<text text-anchor="start" x="6696.42" y="-1337.6" font-family="Arial" font-size="14.00">ts </text>
<text text-anchor="start" x="6711.2" y="-1337.6" font-family="Arial" font-size="14.00" fill="#666666">[TEXT]</text>
<polygon fill="none" stroke="black" points="6689.42,-1294.6 6689.42,-1325.4 7703.18,-1325.4 7703.18,-1294.6 6689.42,-1294.6"/>
<text text-anchor="start" x="6696.42" y="-1306.8" font-family="Arial" font-size="14.00">change_count </text>
<text text-anchor="start" x="6788.27" y="-1306.8" font-family="Arial" font-size="14.00" fill="#666666">[INTEGER]</text>
<polygon fill="none" stroke="black" points="6689.42,-1263.8 6689.42,-1294.6 7703.18,-1294.6 7703.18,-1263.8 6689.42,-1263.8"/>
<text text-anchor="start" x="6696.42" y="-1276" font-family="Arial" font-size="14.00">details </text>
<text text-anchor="start" x="6740.78" y="-1276" font-family="Arial" font-size="14.00" fill="#666666">[TEXT]</text>
</g>
<!-- sync_events&#45;&gt;repositories -->
<g id="edge6" class="edge">
<title>sync_events:repository_id&#45;&gt;repositories:id</title>
<path fill="none" stroke="black" d="M6678.04,-1401.92C6567.47,-1391.08 6731.02,-1198.5 6637.3,-1112.8 6499.17,-986.49 5146.01,-969.2 4958.83,-969.2"/>
<polygon fill="black" stroke="black" points="6678.1,-1401.93 6687.88,-1406.88 6683.43,-1402.17 6687.75,-1402.37 6687.75,-1402.37 6687.75,-1402.37 6683.43,-1402.17 6688.29,-1397.89 6678.1,-1401.93"/>
<text text-anchor="start" x="6103.54" y="-1412.4" font-family="Arial" font-size="10.00">FOREIGN KEY (repository_id) REFERENCES repositories (id) ON UPDATE NO ACTION ON DELETE CASCADE MATCH NONE</text>
</g>
</g>
</svg>
