<?xml version="1.0" encoding="UTF-8" standalone="no"?>
<!DOCTYPE svg PUBLIC "-//W3C//DTD SVG 1.1//EN"
 "http://www.w3.org/Graphics/SVG/1.1/DTD/svg11.dtd">
<!-- Generated by graphviz version 12.1.2 (20240928.0832)
 -->
<!-- Title: repo_renames Pages: 1 -->
<svg width="2577pt" height="1023pt"
 viewBox="0.00 0.00 2577.28 1023.20" xmlns="http://www.w3.org/2000/svg" xmlns:xlink="http://www.w3.org/1999/xlink">
<g id="graph0" class="graph" transform="scale(1 1) rotate(0) translate(4 1019.2)">
<title>repo_renames</title>
<polygon fill="white" stroke="none" points="-4,4 -4,-1019.2 2573.28,-1019.2 2573.28,4 -4,4"/>
<!-- repo_renames -->
<g id="node1" class="node">
<title>repo_renames</title>
<polygon fill="#efefef" stroke="none" points="46.2,-923 46.2,-969 1976.4,-969 1976.4,-923 46.2,-923"/>
<polygon fill="none" stroke="black" points="46.2,-923 46.2,-969 1976.4,-969 1976.4,-923 46.2,-923"/>
<text text-anchor="start" x="926.2" y="-946.8" font-family="Arial Bold" font-size="18.00">repo_renames</text>
<text text-anchor="start" x="1027.15" y="-946.8" font-family="Arial" font-size="14.00">    </text>
<text text-anchor="start" x="1058.27" y="-946.8" font-family="Arial" font-size="14.00" fill="#666666">[table]</text>
<text text-anchor="start" x="53.2" y="-932.4" font-family="Arial" font-size="14.00" fill="#333333">Append&#45;only log of repository renames, written when a known github_id shows up under a new github_name. The sync preamble replays every entry to rename cross&#45;repo folders on the counterparty&#39;s disk. There is deliberately no applied_at column — idempotency comes from filesystem checks, not DB state.</text>
<polygon fill="none" stroke="black" points="46.2,-892.2 46.2,-923 1976.4,-923 1976.4,-892.2 46.2,-892.2"/>
<text text-anchor="start" x="53.2" y="-904.4" font-family="Arial" font-size="14.00">id </text>
<text text-anchor="start" x="67.99" y="-904.4" font-family="Arial" font-size="14.00" fill="#666666">[INTEGER]</text>
<polygon fill="none" stroke="black" points="46.2,-861.4 46.2,-892.2 1976.4,-892.2 1976.4,-861.4 46.2,-861.4"/>
<text text-anchor="start" x="53.2" y="-873.6" font-family="Arial" font-size="14.00">repository_id </text>
<text text-anchor="start" x="137.24" y="-873.6" font-family="Arial" font-size="14.00" fill="#666666">[INTEGER]</text>
<polygon fill="none" stroke="black" points="46.2,-830.6 46.2,-861.4 1976.4,-861.4 1976.4,-830.6 46.2,-830.6"/>
<text text-anchor="start" x="53.2" y="-842.8" font-family="Arial" font-size="14.00">old_canonical </text>
<text text-anchor="start" x="142.71" y="-842.8" font-family="Arial" font-size="14.00" fill="#666666">[TEXT]</text>
<polygon fill="none" stroke="black" points="46.2,-799.8 46.2,-830.6 1976.4,-830.6 1976.4,-799.8 46.2,-799.8"/>
<text text-anchor="start" x="53.2" y="-812" font-family="Arial" font-size="14.00">new_canonical </text>
<text text-anchor="start" x="149.71" y="-812" font-family="Arial" font-size="14.00" fill="#666666">[TEXT]</text>
<polygon fill="none" stroke="black" points="46.2,-769 46.2,-799.8 1976.4,-799.8 1976.4,-769 46.2,-769"/>
<text text-anchor="start" x="53.2" y="-781.2" font-family="Arial" font-size="14.00">renamed_at </text>
<text text-anchor="start" x="131.81" y="-781.2" font-family="Arial" font-size="14.00" fill="#666666">[DATETIME]</text>
<polygon fill="none" stroke="black" stroke-width="3" points="44.7,-767.5 44.7,-970.5 1977.9,-970.5 1977.9,-767.5 44.7,-767.5"/>
</g>
<!-- repositories -->
<g id="node2" class="node">
<title>repositories</title>
<polygon fill="#efefef" stroke="none" points="395.77,-597.6 395.77,-643.6 1626.83,-643.6 1626.83,-597.6 395.77,-597.6"/>
<polygon fill="none" stroke="black" points="395.77,-597.6 395.77,-643.6 1626.83,-643.6 1626.83,-597.6 395.77,-597.6"/>
<text text-anchor="start" x="934.68" y="-621.4" font-family="Arial Bold" font-size="18.00">repositories</text>
<text text-anchor="start" x="1018.66" y="-621.4" font-family="Arial" font-size="14.00">    </text>
<text text-anchor="start" x="1049.78" y="-621.4" font-family="Arial" font-size="14.00" fill="#666666">[table]</text>
<text text-anchor="start" x="755.28" y="-607" font-family="Arial" font-size="14.00" fill="#333333">A repository belonging to at most one project. May be GitHub&#45;backed or local&#45;only.</text>
<polygon fill="none" stroke="black" points="395.77,-566.8 395.77,-597.6 1626.83,-597.6 1626.83,-566.8 395.77,-566.8"/>
<text text-anchor="start" x="402.77" y="-579" font-family="Arial" font-size="14.00">id </text>
<text text-anchor="start" x="417.56" y="-579" font-family="Arial" font-size="14.00" fill="#666666">[INTEGER]</text>
<polygon fill="none" stroke="black" points="395.77,-536 395.77,-566.8 1626.83,-566.8 1626.83,-536 395.77,-536"/>
<text text-anchor="start" x="402.77" y="-548.2" font-family="Arial" font-size="14.00">project_id </text>
<text text-anchor="start" x="467.36" y="-548.2" font-family="Arial" font-size="14.00" fill="#666666">[INTEGER]</text>
<text text-anchor="start" x="537.37" y="-548.2" font-family="Arial" font-size="14.00"> ON DELETE SET NULL — the only non&#45;cascading FK in the schema. Deleting a project orphans its repositories rather than destroying them.</text>
<polygon fill="none" stroke="black" points="395.77,-505.2 395.77,-536 1626.83,-536 1626.83,-505.2 395.77,-505.2"/>
<text text-anchor="start" x="402.77" y="-517.4" font-family="Arial" font-size="14.00">github_name </text>
<text text-anchor="start" x="487.61" y="-517.4" font-family="Arial" font-size="14.00" fill="#666666">[TEXT]</text>
<text text-anchor="start" x="531.17" y="-517.4" font-family="Arial" font-size="14.00"> UNIQUE, and nullable since v13 so local&#45;only repos (never pushed to GitHub) can exist. The last path segment is the canonical folder name used for all cross&#45;repo doc folders.</text>
<polygon fill="none" stroke="black" points="395.77,-474.4 395.77,-505.2 1626.83,-505.2 1626.83,-474.4 395.77,-474.4"/>
<text text-anchor="start" x="402.77" y="-486.6" font-family="Arial" font-size="14.00">github_url </text>
<text text-anchor="start" x="468.15" y="-486.6" font-family="Arial" font-size="14.00" fill="#666666">[TEXT]</text>
<polygon fill="none" stroke="black" points="395.77,-443.6 395.77,-474.4 1626.83,-474.4 1626.83,-443.6 395.77,-443.6"/>
<text text-anchor="start" x="402.77" y="-455.8" font-family="Arial" font-size="14.00">role </text>
<text text-anchor="start" x="430" y="-455.8" font-family="Arial" font-size="14.00" fill="#666666">[TEXT]</text>
<text text-anchor="start" x="473.56" y="-455.8" font-family="Arial" font-size="14.00"> &#39;microservice&#39; is still legal here but is legacy: v12 NULLed every such row when microservice became a project type rather than a repo role.</text>
<polygon fill="none" stroke="black" points="395.77,-412.8 395.77,-443.6 1626.83,-443.6 1626.83,-412.8 395.77,-412.8"/>
<text text-anchor="start" x="402.77" y="-425" font-family="Arial" font-size="14.00">description </text>
<text text-anchor="start" x="474.36" y="-425" font-family="Arial" font-size="14.00" fill="#666666">[TEXT]</text>
<polygon fill="none" stroke="black" points="395.77,-382 395.77,-412.8 1626.83,-412.8 1626.83,-382 395.77,-382"/>
<text text-anchor="start" x="402.77" y="-394.2" font-family="Arial" font-size="14.00">language </text>
<text text-anchor="start" x="464.27" y="-394.2" font-family="Arial" font-size="14.00" fill="#666666">[TEXT]</text>
<polygon fill="none" stroke="black" points="395.77,-351.2 395.77,-382 1626.83,-382 1626.83,-351.2 395.77,-351.2"/>
<text text-anchor="start" x="402.77" y="-363.4" font-family="Arial" font-size="14.00">last_pushed_at </text>
<text text-anchor="start" x="501.62" y="-363.4" font-family="Arial" font-size="14.00" fill="#666666">[DATETIME]</text>
<polygon fill="none" stroke="black" points="395.77,-320.4 395.77,-351.2 1626.83,-351.2 1626.83,-320.4 395.77,-320.4"/>
<text text-anchor="start" x="402.77" y="-332.6" font-family="Arial" font-size="14.00">added_at </text>
<text text-anchor="start" x="465.05" y="-332.6" font-family="Arial" font-size="14.00" fill="#666666">[DATETIME]</text>
<polygon fill="none" stroke="black" points="395.77,-289.6 395.77,-320.4 1626.83,-320.4 1626.83,-289.6 395.77,-289.6"/>
<text text-anchor="start" x="402.77" y="-301.8" font-family="Arial" font-size="14.00">updated_at </text>
<text text-anchor="start" x="476.73" y="-301.8" font-family="Arial" font-size="14.00" fill="#666666">[DATETIME]</text>
<polygon fill="none" stroke="black" points="395.77,-258.8 395.77,-289.6 1626.83,-289.6 1626.83,-258.8 395.77,-258.8"/>
<text text-anchor="start" x="402.77" y="-271" font-family="Arial" font-size="14.00">local_path </text>
<text text-anchor="start" x="470.49" y="-271" font-family="Arial" font-size="14.00" fill="#666666">[TEXT]</text>
<polygon fill="none" stroke="black" points="395.77,-228 395.77,-258.8 1626.83,-258.8 1626.83,-228 395.77,-228"/>
<text text-anchor="start" x="402.77" y="-240.2" font-family="Arial" font-size="14.00">github_id </text>
<text text-anchor="start" x="463.49" y="-240.2" font-family="Arial" font-size="14.00" fill="#666666">[INTEGER]</text>
<text text-anchor="start" x="533.49" y="-240.2" font-family="Arial" font-size="14.00"> Stable GitHub identifier — the basis of rename detection.</text>
<polygon fill="none" stroke="black" points="395.77,-197.2 395.77,-228 1626.83,-228 1626.83,-197.2 395.77,-197.2"/>
<text text-anchor="start" x="402.77" y="-209.4" font-family="Arial" font-size="14.00">deploy_target </text>
<text text-anchor="start" x="491.5" y="-209.4" font-family="Arial" font-size="14.00" fill="#666666">[TEXT]</text>
<text text-anchor="start" x="535.06" y="-209.4" font-family="Arial" font-size="14.00"> Matches templates.language_key.</text>
<polygon fill="none" stroke="black" points="395.77,-166.4 395.77,-197.2 1626.83,-197.2 1626.83,-166.4 395.77,-166.4"/>
<text text-anchor="start" x="402.77" y="-178.6" font-family="Arial" font-size="14.00">sort_order </text>
<text text-anchor="start" x="470.47" y="-178.6" font-family="Arial" font-size="14.00" fill="#666666">[INTEGER]</text>
<polygon fill="none" stroke="black" points="395.77,-135.6 395.77,-166.4 1626.83,-166.4 1626.83,-135.6 395.77,-135.6"/>
<text text-anchor="start" x="402.77" y="-147.8" font-family="Arial" font-size="14.00">bugs_migrated_at </text>
<text text-anchor="start" x="518.73" y="-147.8" font-family="Arial" font-size="14.00" fill="#666666">[TEXT]</text>
<text text-anchor="start" x="562.29" y="-147.8" font-family="Arial" font-size="14.00"> Lazy&#45;migration marker (v18); NULL means the repo&#39;s MD has never been imported.</text>
<polygon fill="none" stroke="black" points="395.77,-104.8 395.77,-135.6 1626.83,-135.6 1626.83,-104.8 395.77,-104.8"/>
<text text-anchor="start" x="402.77" y="-117" font-family="Arial" font-size="14.00">tasks_migrated_at </text>
<text text-anchor="start" x="521.05" y="-117" font-family="Arial" font-size="14.00" fill="#666666">[TEXT]</text>
<text text-anchor="start" x="564.61" y="-117" font-family="Arial" font-size="14.00"> Lazy&#45;migration marker (v21). While NULL, the first task sync suppresses &#39;created&#39; events so backfilling legacy files doesn&#39;t flood the timeline.</text>
<polygon fill="none" stroke="black" points="395.77,-74 395.77,-104.8 1626.83,-104.8 1626.83,-74 395.77,-74"/>
<text text-anchor="start" x="402.77" y="-86.2" font-family="Arial" font-size="14.00">deploy_repo_config </text>
<text text-anchor="start" x="528.87" y="-86.2" font-family="Arial" font-size="14.00" fill="#666666">[TEXT]</text>
<text text-anchor="start" x="572.42" y="-86.2" font-family="Arial" font-size="14.00"> v25 — JSON map of repo&#45;wide (not per&#45;environment) deploy placeholder values.</text>
<polygon fill="none" stroke="black" points="395.77,-43.2 395.77,-74 1626.83,-74 1626.83,-43.2 395.77,-43.2"/>
<text text-anchor="start" x="402.77" y="-55.4" font-family="Arial" font-size="14.00">autocommit_branch </text>
<text text-anchor="start" x="529.61" y="-55.4" font-family="Arial" font-size="14.00" fill="#666666">[TEXT]</text>
<text text-anchor="start" x="573.17" y="-55.4" font-family="Arial" font-size="14.00"> v28 — NULL means auto&#45;commit is off for this repo.</text>
</g>
<!-- repo_renames&#45;&gt;repositories -->
<g id="edge1" class="edge">
<title>repo_renames:repository_id&#45;&gt;repositories:id</title>
<path fill="none" stroke="black" d="M1987.75,-875.95C2042.44,-866.27 2012.77,-776.31 1976.4,-722.8 1882.5,-584.64 1794.88,-582.2 1627.83,-582.2"/>
<polygon fill="black" stroke="black" points="1987.7,-875.95 1977.37,-872.29 1982.39,-876.39 1978.07,-876.75 1978.07,-876.75 1978.07,-876.75 1982.39,-876.39 1978.1,-881.26 1987.7,-875.95"/>
<text text-anchor="start" x="1984.4" y="-886.8" font-family="Arial" font-size="10.00">FOREIGN KEY (repository_id) REFERENCES repositories (id) ON UPDATE NO ACTION ON DELETE CASCADE MATCH NONE</text>
</g>
</g>
</svg>
