<?xml version="1.0" encoding="UTF-8" standalone="no"?>
<!DOCTYPE svg PUBLIC "-//W3C//DTD SVG 1.1//EN"
 "http://www.w3.org/Graphics/SVG/1.1/DTD/svg11.dtd">
<!-- Generated by graphviz version 12.1.2 (20240928.0832)
 -->
<!-- Title: secret_bundle_items Pages: 1 -->
<svg width="1410pt" height="623pt"
 viewBox="0.00 0.00 1410.12 622.80" xmlns="http://www.w3.org/2000/svg" xmlns:xlink="http://www.w3.org/1999/xlink">
<g id="graph0" class="graph" transform="scale(1 1) rotate(0) translate(4 618.8)">
<title>secret_bundle_items</title>
<polygon fill="white" stroke="none" points="-4,4 -4,-618.8 1406.12,-618.8 1406.12,4 -4,4"/>
<!-- secret_bundle_items -->
<g id="node1" class="node">
<title>secret_bundle_items</title>
<polygon fill="#efefef" stroke="none" points="210.09,-522.6 210.09,-568.6 806.98,-568.6 806.98,-522.6 210.09,-522.6"/>
<polygon fill="none" stroke="black" points="210.09,-522.6 210.09,-568.6 806.98,-568.6 806.98,-522.6 210.09,-522.6"/>
<text text-anchor="start" x="399.93" y="-546.4" font-family="Arial Bold" font-size="18.00">secret_bundle_items</text>
<text text-anchor="start" x="547.88" y="-546.4" font-family="Arial" font-size="14.00">    </text>
<text text-anchor="start" x="579" y="-546.4" font-family="Arial" font-size="14.00" fill="#666666">[table]</text>
<text text-anchor="start" x="217.09" y="-532" font-family="Arial" font-size="14.00" fill="#333333">One secret inside a bundle, encrypted with the same key and cipher as deploy_secret_values.</text>
<polygon fill="none" stroke="black" points="210.09,-491.8 210.09,-522.6 806.98,-522.6 806.98,-491.8 210.09,-491.8"/>
<text text-anchor="start" x="217.09" y="-504" font-family="Arial" font-size="14.00">id </text>
<text text-anchor="start" x="231.87" y="-504" font-family="Arial" font-size="14.00" fill="#666666">[INTEGER]</text>
<polygon fill="none" stroke="black" points="210.09,-461 210.09,-491.8 806.98,-491.8 806.98,-461 210.09,-461"/>
<text text-anchor="start" x="217.09" y="-473.2" font-family="Arial" font-size="14.00">bundle_id </text>
<text text-anchor="start" x="281.7" y="-473.2" font-family="Arial" font-size="14.00" fill="#666666">[INTEGER]</text>
<polygon fill="none" stroke="black" points="210.09,-430.2 210.09,-461 806.98,-461 806.98,-430.2 210.09,-430.2"/>
<text text-anchor="start" x="217.09" y="-442.4" font-family="Arial" font-size="14.00">secret_name </text>
<text text-anchor="start" x="301.91" y="-442.4" font-family="Arial" font-size="14.00" fill="#666666">[TEXT]</text>
<polygon fill="none" stroke="black" points="210.09,-399.4 210.09,-430.2 806.98,-430.2 806.98,-399.4 210.09,-399.4"/>
<text text-anchor="start" x="217.09" y="-411.6" font-family="Arial" font-size="14.00">ciphertext </text>
<text text-anchor="start" x="281.67" y="-411.6" font-family="Arial" font-size="14.00" fill="#666666">[BLOB]</text>
<polygon fill="none" stroke="black" points="210.09,-368.6 210.09,-399.4 806.98,-399.4 806.98,-368.6 210.09,-368.6"/>
<text text-anchor="start" x="217.09" y="-380.8" font-family="Arial" font-size="14.00">nonce </text>
<text text-anchor="start" x="259.12" y="-380.8" font-family="Arial" font-size="14.00" fill="#666666">[BLOB]</text>
<polygon fill="none" stroke="black" stroke-width="3" points="208.59,-367.1 208.59,-570.1 808.48,-570.1 808.48,-367.1 208.59,-367.1"/>
</g>
<!-- secret_bundles -->
<g id="node2" class="node">
<title>secret_bundles</title>
<polygon fill="#efefef" stroke="none" points="43.2,-197.2 43.2,-243.2 973.87,-243.2 973.87,-197.2 43.2,-197.2"/>
<polygon fill="none" stroke="black" points="43.2,-197.2 43.2,-243.2 973.87,-243.2 973.87,-197.2 43.2,-197.2"/>
<text text-anchor="start" x="420.42" y="-221" font-family="Arial Bold" font-size="18.00">secret_bundles</text>
<text text-anchor="start" x="527.39" y="-221" font-family="Arial" font-size="14.00">    </text>
<text text-anchor="start" x="558.5" y="-221" font-family="Arial" font-size="14.00" fill="#666666">[table]</text>
<text text-anchor="start" x="50.2" y="-206.6" font-family="Arial" font-size="14.00" fill="#333333">v26 — a named, reusable set of secret values (the SSH / DB / npm keys you apply across repos). Portfolio&#45;wide: deliberately not tied to a repository.</text>
<polygon fill="none" stroke="black" points="43.2,-166.4 43.2,-197.2 973.87,-197.2 973.87,-166.4 43.2,-166.4"/>
<text text-anchor="start" x="50.2" y="-178.6" font-family="Arial" font-size="14.00">id </text>
<text text-anchor="start" x="64.99" y="-178.6" font-family="Arial" font-size="14.00" fill="#666666">[INTEGER]</text>
<polygon fill="none" stroke="black" points="43.2,-135.6 43.2,-166.4 973.87,-166.4 973.87,-135.6 43.2,-135.6"/>
<text text-anchor="start" x="50.2" y="-147.8" font-family="Arial" font-size="14.00">name </text>
<text text-anchor="start" x="89.11" y="-147.8" font-family="Arial" font-size="14.00" fill="#666666">[TEXT]</text>
<polygon fill="none" stroke="black" points="43.2,-104.8 43.2,-135.6 973.87,-135.6 973.87,-104.8 43.2,-104.8"/>
<text text-anchor="start" x="50.2" y="-117" font-family="Arial" font-size="14.00">description </text>
<text text-anchor="start" x="121.79" y="-117" font-family="Arial" font-size="14.00" fill="#666666">[TEXT]</text>
<polygon fill="none" stroke="black" points="43.2,-74 43.2,-104.8 973.87,-104.8 973.87,-74 43.2,-74"/>
<text text-anchor="start" x="50.2" y="-86.2" font-family="Arial" font-size="14.00">created_at </text>
<text text-anchor="start" x="120.25" y="-86.2" font-family="Arial" font-size="14.00" fill="#666666">[TEXT]</text>
<polygon fill="none" stroke="black" points="43.2,-43.2 43.2,-74 973.87,-74 973.87,-43.2 43.2,-43.2"/>
<text text-anchor="start" x="50.2" y="-55.4" font-family="Arial" font-size="14.00">updated_at </text>
<text text-anchor="start" x="124.16" y="-55.4" font-family="Arial" font-size="14.00" fill="#666666">[TEXT]</text>
</g>
<!-- secret_bundle_items&#45;&gt;secret_bundles -->
<g id="edge1" class="edge">
<title>secret_bundle_items:bundle_id&#45;&gt;secret_bundles:id</title>
<path fill="none" stroke="black" d="M818.2,-476.15C920.97,-471.05 935.24,-387.9 973.87,-286.4 990.4,-242.95 1021.36,-181.8 974.87,-181.8"/>
<polygon fill="black" stroke="black" points="818.31,-476.15 808.2,-471.89 812.98,-476.28 808.65,-476.38 808.65,-476.38 808.65,-476.38 812.98,-476.28 808.42,-480.89 818.31,-476.15"/>
<text text-anchor="start" x="814.98" y="-486.4" font-family="Arial" font-size="10.00">FOREIGN KEY (bundle_id) REFERENCES secret_bundles (id) ON UPDATE NO ACTION ON DELETE CASCADE MATCH NONE</text>
</g>
</g>
</svg>
