<?xml version="1.0" encoding="UTF-8" standalone="no"?>
<!DOCTYPE svg PUBLIC "-//W3C//DTD SVG 1.1//EN"
 "http://www.w3.org/Graphics/SVG/1.1/DTD/svg11.dtd">
<!-- Generated by graphviz version 12.1.2 (20240928.0832)
 -->
<!-- Title: secret_bundles Pages: 1 -->
<svg width="1413pt" height="623pt"
 viewBox="0.00 0.00 1413.12 622.80" xmlns="http://www.w3.org/2000/svg" xmlns:xlink="http://www.w3.org/1999/xlink">
<g id="graph0" class="graph" transform="scale(1 1) rotate(0) translate(4 618.8)">
<title>secret_bundles</title>
<polygon fill="white" stroke="none" points="-4,4 -4,-618.8 1409.12,-618.8 1409.12,4 -4,4"/>
<!-- secret_bundles -->
<g id="node1" class="node">
<title>secret_bundles</title>
<polygon fill="#efefef" stroke="none" points="46.2,-200.2 46.2,-246.2 976.87,-246.2 976.87,-200.2 46.2,-200.2"/>
<polygon fill="none" stroke="black" points="46.2,-200.2 46.2,-246.2 976.87,-246.2 976.87,-200.2 46.2,-200.2"/>
<text text-anchor="start" x="423.42" y="-224" font-family="Arial Bold" font-size="18.00">secret_bundles</text>
<text text-anchor="start" x="530.39" y="-224" font-family="Arial" font-size="14.00">    </text>
<text text-anchor="start" x="561.5" y="-224" font-family="Arial" font-size="14.00" fill="#666666">[table]</text>
<text text-anchor="start" x="53.2" y="-209.6" font-family="Arial" font-size="14.00" fill="#333333">v26 — a named, reusable set of secret values (the SSH / DB / npm keys you apply across repos). Portfolio&#45;wide: deliberately not tied to a repository.</text>
<polygon fill="none" stroke="black" points="46.2,-169.4 46.2,-200.2 976.87,-200.2 976.87,-169.4 46.2,-169.4"/>
<text text-anchor="start" x="53.2" y="-181.6" font-family="Arial" font-size="14.00">id </text>
<text text-anchor="start" x="67.99" y="-181.6" font-family="Arial" font-size="14.00" fill="#666666">[INTEGER]</text>
<polygon fill="none" stroke="black" points="46.2,-138.6 46.2,-169.4 976.87,-169.4 976.87,-138.6 46.2,-138.6"/>
<text text-anchor="start" x="53.2" y="-150.8" font-family="Arial" font-size="14.00">name </text>
<text text-anchor="start" x="92.11" y="-150.8" font-family="Arial" font-size="14.00" fill="#666666">[TEXT]</text>
<polygon fill="none" stroke="black" points="46.2,-107.8 46.2,-138.6 976.87,-138.6 976.87,-107.8 46.2,-107.8"/>
<text text-anchor="start" x="53.2" y="-120" font-family="Arial" font-size="14.00">description </text>
<text text-anchor="start" x="124.79" y="-120" font-family="Arial" font-size="14.00" fill="#666666">[TEXT]</text>
<polygon fill="none" stroke="black" points="46.2,-77 46.2,-107.8 976.87,-107.8 976.87,-77 46.2,-77"/>
<text text-anchor="start" x="53.2" y="-89.2" font-family="Arial" font-size="14.00">created_at </text>
<text text-anchor="start" x="123.25" y="-89.2" font-family="Arial" font-size="14.00" fill="#666666">[TEXT]</text>
<polygon fill="none" stroke="black" points="46.2,-46.2 46.2,-77 976.87,-77 976.87,-46.2 46.2,-46.2"/>
<text text-anchor="start" x="53.2" y="-58.4" font-family="Arial" font-size="14.00">updated_at </text>
<text text-anchor="start" x="127.16" y="-58.4" font-family="Arial" font-size="14.00" fill="#666666">[TEXT]</text>
<polygon fill="none" stroke="black" stroke-width="3" points="44.7,-44.7 44.7,-247.7 978.37,-247.7 978.37,-44.7 44.7,-44.7"/>
</g>
<!-- secret_bundle_items -->
<g id="node2" class="node">
<title>secret_bundle_items</title>
<polygon fill="#efefef" stroke="none" points="213.09,-525.6 213.09,-571.6 809.98,-571.6 809.98,-525.6 213.09,-525.6"/>
<polygon fill="none" stroke="black" points="213.09,-525.6 213.09,-571.6 809.98,-571.6 809.98,-525.6 213.09,-525.6"/>
<text text-anchor="start" x="402.93" y="-549.4" font-family="Arial Bold" font-size="18.00">secret_bundle_items</text>
<text text-anchor="start" x="550.88" y="-549.4" font-family="Arial" font-size="14.00">    </text>
<text text-anchor="start" x="582" y="-549.4" font-family="Arial" font-size="14.00" fill="#666666">[table]</text>
<text text-anchor="start" x="220.09" y="-535" font-family="Arial" font-size="14.00" fill="#333333">One secret inside a bundle, encrypted with the same key and cipher as deploy_secret_values.</text>
<polygon fill="none" stroke="black" points="213.09,-494.8 213.09,-525.6 809.98,-525.6 809.98,-494.8 213.09,-494.8"/>
<text text-anchor="start" x="220.09" y="-507" font-family="Arial" font-size="14.00">id </text>
<text text-anchor="start" x="234.87" y="-507" font-family="Arial" font-size="14.00" fill="#666666">[INTEGER]</text>
<polygon fill="none" stroke="black" points="213.09,-464 213.09,-494.8 809.98,-494.8 809.98,-464 213.09,-464"/>
<text text-anchor="start" x="220.09" y="-476.2" font-family="Arial" font-size="14.00">bundle_id </text>
<text text-anchor="start" x="284.7" y="-476.2" font-family="Arial" font-size="14.00" fill="#666666">[INTEGER]</text>
<polygon fill="none" stroke="black" points="213.09,-433.2 213.09,-464 809.98,-464 809.98,-433.2 213.09,-433.2"/>
<text text-anchor="start" x="220.09" y="-445.4" font-family="Arial" font-size="14.00">secret_name </text>
<text text-anchor="start" x="304.91" y="-445.4" font-family="Arial" font-size="14.00" fill="#666666">[TEXT]</text>
<polygon fill="none" stroke="black" points="213.09,-402.4 213.09,-433.2 809.98,-433.2 809.98,-402.4 213.09,-402.4"/>
<text text-anchor="start" x="220.09" y="-414.6" font-family="Arial" font-size="14.00">ciphertext </text>
<text text-anchor="start" x="284.67" y="-414.6" font-family="Arial" font-size="14.00" fill="#666666">[BLOB]</text>
<polygon fill="none" stroke="black" points="213.09,-371.6 213.09,-402.4 809.98,-402.4 809.98,-371.6 213.09,-371.6"/>
<text text-anchor="start" x="220.09" y="-383.8" font-family="Arial" font-size="14.00">nonce </text>
<text text-anchor="start" x="262.12" y="-383.8" font-family="Arial" font-size="14.00" fill="#666666">[BLOB]</text>
</g>
<!-- secret_bundle_items&#45;&gt;secret_bundles -->
<g id="edge1" class="edge">
<title>secret_bundle_items:bundle_id&#45;&gt;secret_bundles:id</title>
<path fill="none" stroke="black" d="M821.14,-478.96C968.8,-466.31 1124.97,-184.8 977.87,-184.8"/>
<polygon fill="black" stroke="black" points="821.3,-478.95 811.12,-474.89 815.97,-479.18 811.65,-479.37 811.65,-479.37 811.65,-479.37 815.97,-479.18 811.51,-483.88 821.3,-478.95"/>
<text text-anchor="start" x="817.98" y="-489.4" font-family="Arial" font-size="10.00">FOREIGN KEY (bundle_id) REFERENCES secret_bundles (id) ON UPDATE NO ACTION ON DELETE CASCADE MATCH NONE</text>
</g>
</g>
</svg>
