<?xml version="1.0" encoding="UTF-8" standalone="no"?>
<!DOCTYPE svg PUBLIC "-//W3C//DTD SVG 1.1//EN"
 "http://www.w3.org/Graphics/SVG/1.1/DTD/svg11.dtd">
<!-- Generated by graphviz version 12.1.2 (20240928.0832)
 -->
<!-- Title: settings Pages: 1 -->
<svg width="939pt" height="208pt"
 viewBox="0.00 0.00 939.27 208.00" xmlns="http://www.w3.org/2000/svg" xmlns:xlink="http://www.w3.org/1999/xlink">
<g id="graph0" class="graph" transform="scale(1 1) rotate(0) translate(4 204)">
<title>settings</title>
<polygon fill="white" stroke="none" points="-4,4 -4,-204 935.27,-204 935.27,4 -4,4"/>
<!-- settings -->
<g id="node1" class="node">
<title>settings</title>
<polygon fill="#efefef" stroke="none" points="46.2,-107.8 46.2,-153.8 885.07,-153.8 885.07,-107.8 46.2,-107.8"/>
<polygon fill="none" stroke="black" points="46.2,-107.8 46.2,-153.8 885.07,-153.8 885.07,-107.8 46.2,-107.8"/>
<text text-anchor="start" x="403.5" y="-131.6" font-family="Arial Bold" font-size="18.00">settings</text>
<text text-anchor="start" x="458.51" y="-131.6" font-family="Arial" font-size="14.00">    </text>
<text text-anchor="start" x="489.62" y="-131.6" font-family="Arial" font-size="14.00" fill="#666666">[table]</text>
<text text-anchor="start" x="53.2" y="-117.2" font-family="Arial" font-size="14.00" fill="#333333">Flat key/value application settings. Never holds secrets — the GitHub PAT and the encryption data key live in the OS credential store.</text>
<polygon fill="none" stroke="black" points="46.2,-77 46.2,-107.8 885.07,-107.8 885.07,-77 46.2,-77"/>
<text text-anchor="start" x="53.2" y="-89.2" font-family="Arial" font-size="14.00">key </text>
<text text-anchor="start" x="78.88" y="-89.2" font-family="Arial" font-size="14.00" fill="#666666">[TEXT]</text>
<polygon fill="none" stroke="black" points="46.2,-46.2 46.2,-77 885.07,-77 885.07,-46.2 46.2,-46.2"/>
<text text-anchor="start" x="53.2" y="-58.4" font-family="Arial" font-size="14.00">value </text>
<text text-anchor="start" x="90.56" y="-58.4" font-family="Arial" font-size="14.00" fill="#666666">[TEXT]</text>
<polygon fill="none" stroke="black" stroke-width="3" points="44.7,-44.7 44.7,-155.3 886.57,-155.3 886.57,-44.7 44.7,-44.7"/>
</g>
</g>
</svg>
