<?xml version="1.0" encoding="UTF-8" standalone="no"?>
<!DOCTYPE svg PUBLIC "-//W3C//DTD SVG 1.1//EN"
 "http://www.w3.org/Graphics/SVG/1.1/DTD/svg11.dtd">
<!-- Generated by graphviz version 12.1.2 (20240928.0832)
 -->
<!-- Title: sync_events Pages: 1 -->
<svg width="1766pt" height="1054pt"
 viewBox="0.00 0.00 1766.49 1054.00" xmlns="http://www.w3.org/2000/svg" xmlns:xlink="http://www.w3.org/1999/xlink">
<g id="graph0" class="graph" transform="scale(1 1) rotate(0) translate(4 1050)">
<title>sync_events</title>
<polygon fill="white" stroke="none" points="-4,4 -4,-1050 1762.49,-1050 1762.49,4 -4,4"/>
<!-- sync_events -->
<g id="node1" class="node">
<title>sync_events</title>
<polygon fill="#efefef" stroke="none" points="151.85,-953.8 151.85,-999.8 1165.61,-999.8 1165.61,-953.8 151.85,-953.8"/>
<polygon fill="none" stroke="black" points="151.85,-953.8 151.85,-999.8 1165.61,-999.8 1165.61,-953.8 151.85,-953.8"/>
<text text-anchor="start" x="580.12" y="-977.6" font-family="Arial Bold" font-size="18.00">sync_events</text>
<text text-anchor="start" x="668.09" y="-977.6" font-family="Arial" font-size="14.00">    </text>
<text text-anchor="start" x="699.21" y="-977.6" font-family="Arial" font-size="14.00" fill="#666666">[table]</text>
<text text-anchor="start" x="241.62" y="-963.2" font-family="Arial" font-size="14.00" fill="#333333">Log of sync operations, feeding the timeline. repository_id is nullable — a NULL row is a portfolio&#45;wide sync rather than a per&#45;repo one.</text>
<polygon fill="none" stroke="black" points="151.85,-923 151.85,-953.8 1165.61,-953.8 1165.61,-923 151.85,-923"/>
<text text-anchor="start" x="158.85" y="-935.2" font-family="Arial" font-size="14.00">id </text>
<text text-anchor="start" x="173.64" y="-935.2" font-family="Arial" font-size="14.00" fill="#666666">[INTEGER]</text>
<polygon fill="none" stroke="black" points="151.85,-892.2 151.85,-923 1165.61,-923 1165.61,-892.2 151.85,-892.2"/>
<text text-anchor="start" x="158.85" y="-904.4" font-family="Arial" font-size="14.00">repository_id </text>
<text text-anchor="start" x="242.89" y="-904.4" font-family="Arial" font-size="14.00" fill="#666666">[INTEGER]</text>
<polygon fill="none" stroke="black" points="151.85,-861.4 151.85,-892.2 1165.61,-892.2 1165.61,-861.4 151.85,-861.4"/>
<text text-anchor="start" x="158.85" y="-873.6" font-family="Arial" font-size="14.00">sync_type </text>
<text text-anchor="start" x="225.77" y="-873.6" font-family="Arial" font-size="14.00" fill="#666666">[TEXT]</text>
<text text-anchor="start" x="269.33" y="-873.6" font-family="Arial" font-size="14.00"> project_sync / tasks / secret / requirements / migration. &#39;migration&#39; was added in v25 to record deploy&#45;config conflicts resolved by first&#45;env&#45;wins.</text>
<polygon fill="none" stroke="black" points="151.85,-830.6 151.85,-861.4 1165.61,-861.4 1165.61,-830.6 151.85,-830.6"/>
<text text-anchor="start" x="158.85" y="-842.8" font-family="Arial" font-size="14.00">ts </text>
<text text-anchor="start" x="173.63" y="-842.8" font-family="Arial" font-size="14.00" fill="#666666">[TEXT]</text>
<polygon fill="none" stroke="black" points="151.85,-799.8 151.85,-830.6 1165.61,-830.6 1165.61,-799.8 151.85,-799.8"/>
<text text-anchor="start" x="158.85" y="-812" font-family="Arial" font-size="14.00">change_count </text>
<text text-anchor="start" x="250.7" y="-812" font-family="Arial" font-size="14.00" fill="#666666">[INTEGER]</text>
<polygon fill="none" stroke="black" points="151.85,-769 151.85,-799.8 1165.61,-799.8 1165.61,-769 151.85,-769"/>
<text text-anchor="start" x="158.85" y="-781.2" font-family="Arial" font-size="14.00">details </text>
<text text-anchor="start" x="203.21" y="-781.2" font-family="Arial" font-size="14.00" fill="#666666">[TEXT]</text>
<polygon fill="none" stroke="black" stroke-width="3" points="150.35,-767.5 150.35,-1001.3 1167.11,-1001.3 1167.11,-767.5 150.35,-767.5"/>
</g>
<!-- repositories -->
<g id="node2" class="node">
<title>repositories</title>
<polygon fill="#efefef" stroke="none" points="43.2,-597.6 43.2,-643.6 1274.26,-643.6 1274.26,-597.6 43.2,-597.6"/>
<polygon fill="none" stroke="black" points="43.2,-597.6 43.2,-643.6 1274.26,-643.6 1274.26,-597.6 43.2,-597.6"/>
<text text-anchor="start" x="582.11" y="-621.4" font-family="Arial Bold" font-size="18.00">repositories</text>
<text text-anchor="start" x="666.09" y="-621.4" font-family="Arial" font-size="14.00">    </text>
<text text-anchor="start" x="697.21" y="-621.4" font-family="Arial" font-size="14.00" fill="#666666">[table]</text>
<text text-anchor="start" x="402.71" y="-607" font-family="Arial" font-size="14.00" fill="#333333">A repository belonging to at most one project. May be GitHub&#45;backed or local&#45;only.</text>
<polygon fill="none" stroke="black" points="43.2,-566.8 43.2,-597.6 1274.26,-597.6 1274.26,-566.8 43.2,-566.8"/>
<text text-anchor="start" x="50.2" y="-579" font-family="Arial" font-size="14.00">id </text>
<text text-anchor="start" x="64.99" y="-579" font-family="Arial" font-size="14.00" fill="#666666">[INTEGER]</text>
<polygon fill="none" stroke="black" points="43.2,-536 43.2,-566.8 1274.26,-566.8 1274.26,-536 43.2,-536"/>
<text text-anchor="start" x="50.2" y="-548.2" font-family="Arial" font-size="14.00">project_id </text>
<text text-anchor="start" x="114.79" y="-548.2" font-family="Arial" font-size="14.00" fill="#666666">[INTEGER]</text>
<text text-anchor="start" x="184.8" y="-548.2" font-family="Arial" font-size="14.00"> ON DELETE SET NULL — the only non&#45;cascading FK in the schema. Deleting a project orphans its repositories rather than destroying them.</text>
<polygon fill="none" stroke="black" points="43.2,-505.2 43.2,-536 1274.26,-536 1274.26,-505.2 43.2,-505.2"/>
<text text-anchor="start" x="50.2" y="-517.4" font-family="Arial" font-size="14.00">github_name </text>
<text text-anchor="start" x="135.04" y="-517.4" font-family="Arial" font-size="14.00" fill="#666666">[TEXT]</text>
<text text-anchor="start" x="178.6" y="-517.4" font-family="Arial" font-size="14.00"> UNIQUE, and nullable since v13 so local&#45;only repos (never pushed to GitHub) can exist. The last path segment is the canonical folder name used for all cross&#45;repo doc folders.</text>
<polygon fill="none" stroke="black" points="43.2,-474.4 43.2,-505.2 1274.26,-505.2 1274.26,-474.4 43.2,-474.4"/>
<text text-anchor="start" x="50.2" y="-486.6" font-family="Arial" font-size="14.00">github_url </text>
<text text-anchor="start" x="115.58" y="-486.6" font-family="Arial" font-size="14.00" fill="#666666">[TEXT]</text>
<polygon fill="none" stroke="black" points="43.2,-443.6 43.2,-474.4 1274.26,-474.4 1274.26,-443.6 43.2,-443.6"/>
<text text-anchor="start" x="50.2" y="-455.8" font-family="Arial" font-size="14.00">role </text>
<text text-anchor="start" x="77.43" y="-455.8" font-family="Arial" font-size="14.00" fill="#666666">[TEXT]</text>
<text text-anchor="start" x="120.99" y="-455.8" font-family="Arial" font-size="14.00"> &#39;microservice&#39; is still legal here but is legacy: v12 NULLed every such row when microservice became a project type rather than a repo role.</text>
<polygon fill="none" stroke="black" points="43.2,-412.8 43.2,-443.6 1274.26,-443.6 1274.26,-412.8 43.2,-412.8"/>
<text text-anchor="start" x="50.2" y="-425" font-family="Arial" font-size="14.00">description </text>
<text text-anchor="start" x="121.79" y="-425" font-family="Arial" font-size="14.00" fill="#666666">[TEXT]</text>
<polygon fill="none" stroke="black" points="43.2,-382 43.2,-412.8 1274.26,-412.8 1274.26,-382 43.2,-382"/>
<text text-anchor="start" x="50.2" y="-394.2" font-family="Arial" font-size="14.00">language </text>
<text text-anchor="start" x="111.7" y="-394.2" font-family="Arial" font-size="14.00" fill="#666666">[TEXT]</text>
<polygon fill="none" stroke="black" points="43.2,-351.2 43.2,-382 1274.26,-382 1274.26,-351.2 43.2,-351.2"/>
<text text-anchor="start" x="50.2" y="-363.4" font-family="Arial" font-size="14.00">last_pushed_at </text>
<text text-anchor="start" x="149.05" y="-363.4" font-family="Arial" font-size="14.00" fill="#666666">[DATETIME]</text>
<polygon fill="none" stroke="black" points="43.2,-320.4 43.2,-351.2 1274.26,-351.2 1274.26,-320.4 43.2,-320.4"/>
<text text-anchor="start" x="50.2" y="-332.6" font-family="Arial" font-size="14.00">added_at </text>
<text text-anchor="start" x="112.48" y="-332.6" font-family="Arial" font-size="14.00" fill="#666666">[DATETIME]</text>
<polygon fill="none" stroke="black" points="43.2,-289.6 43.2,-320.4 1274.26,-320.4 1274.26,-289.6 43.2,-289.6"/>
<text text-anchor="start" x="50.2" y="-301.8" font-family="Arial" font-size="14.00">updated_at </text>
<text text-anchor="start" x="124.16" y="-301.8" font-family="Arial" font-size="14.00" fill="#666666">[DATETIME]</text>
<polygon fill="none" stroke="black" points="43.2,-258.8 43.2,-289.6 1274.26,-289.6 1274.26,-258.8 43.2,-258.8"/>
<text text-anchor="start" x="50.2" y="-271" font-family="Arial" font-size="14.00">local_path </text>
<text text-anchor="start" x="117.92" y="-271" font-family="Arial" font-size="14.00" fill="#666666">[TEXT]</text>
<polygon fill="none" stroke="black" points="43.2,-228 43.2,-258.8 1274.26,-258.8 1274.26,-228 43.2,-228"/>
<text text-anchor="start" x="50.2" y="-240.2" font-family="Arial" font-size="14.00">github_id </text>
<text text-anchor="start" x="110.92" y="-240.2" font-family="Arial" font-size="14.00" fill="#666666">[INTEGER]</text>
<text text-anchor="start" x="180.92" y="-240.2" font-family="Arial" font-size="14.00"> Stable GitHub identifier — the basis of rename detection.</text>
<polygon fill="none" stroke="black" points="43.2,-197.2 43.2,-228 1274.26,-228 1274.26,-197.2 43.2,-197.2"/>
<text text-anchor="start" x="50.2" y="-209.4" font-family="Arial" font-size="14.00">deploy_target </text>
<text text-anchor="start" x="138.93" y="-209.4" font-family="Arial" font-size="14.00" fill="#666666">[TEXT]</text>
<text text-anchor="start" x="182.49" y="-209.4" font-family="Arial" font-size="14.00"> Matches templates.language_key.</text>
<polygon fill="none" stroke="black" points="43.2,-166.4 43.2,-197.2 1274.26,-197.2 1274.26,-166.4 43.2,-166.4"/>
<text text-anchor="start" x="50.2" y="-178.6" font-family="Arial" font-size="14.00">sort_order </text>
<text text-anchor="start" x="117.9" y="-178.6" font-family="Arial" font-size="14.00" fill="#666666">[INTEGER]</text>
<polygon fill="none" stroke="black" points="43.2,-135.6 43.2,-166.4 1274.26,-166.4 1274.26,-135.6 43.2,-135.6"/>
<text text-anchor="start" x="50.2" y="-147.8" font-family="Arial" font-size="14.00">bugs_migrated_at </text>
<text text-anchor="start" x="166.16" y="-147.8" font-family="Arial" font-size="14.00" fill="#666666">[TEXT]</text>
<text text-anchor="start" x="209.72" y="-147.8" font-family="Arial" font-size="14.00"> Lazy&#45;migration marker (v18); NULL means the repo&#39;s MD has never been imported.</text>
<polygon fill="none" stroke="black" points="43.2,-104.8 43.2,-135.6 1274.26,-135.6 1274.26,-104.8 43.2,-104.8"/>
<text text-anchor="start" x="50.2" y="-117" font-family="Arial" font-size="14.00">tasks_migrated_at </text>
<text text-anchor="start" x="168.48" y="-117" font-family="Arial" font-size="14.00" fill="#666666">[TEXT]</text>
<text text-anchor="start" x="212.04" y="-117" font-family="Arial" font-size="14.00"> Lazy&#45;migration marker (v21). While NULL, the first task sync suppresses &#39;created&#39; events so backfilling legacy files doesn&#39;t flood the timeline.</text>
<polygon fill="none" stroke="black" points="43.2,-74 43.2,-104.8 1274.26,-104.8 1274.26,-74 43.2,-74"/>
<text text-anchor="start" x="50.2" y="-86.2" font-family="Arial" font-size="14.00">deploy_repo_config </text>
<text text-anchor="start" x="176.3" y="-86.2" font-family="Arial" font-size="14.00" fill="#666666">[TEXT]</text>
<text text-anchor="start" x="219.85" y="-86.2" font-family="Arial" font-size="14.00"> v25 — JSON map of repo&#45;wide (not per&#45;environment) deploy placeholder values.</text>
<polygon fill="none" stroke="black" points="43.2,-43.2 43.2,-74 1274.26,-74 1274.26,-43.2 43.2,-43.2"/>
<text text-anchor="start" x="50.2" y="-55.4" font-family="Arial" font-size="14.00">autocommit_branch </text>
<text text-anchor="start" x="177.04" y="-55.4" font-family="Arial" font-size="14.00" fill="#666666">[TEXT]</text>
<text text-anchor="start" x="220.6" y="-55.4" font-family="Arial" font-size="14.00"> v28 — NULL means auto&#45;commit is off for this repo.</text>
</g>
<!-- sync_events&#45;&gt;repositories -->
<g id="edge1" class="edge">
<title>sync_events:repository_id&#45;&gt;repositories:id</title>
<path fill="none" stroke="black" d="M1176.6,-905.85C1251.84,-880.24 1348.22,-582.2 1275.26,-582.2"/>
<polygon fill="black" stroke="black" points="1176.79,-905.82 1166.17,-903.11 1171.54,-906.74 1167.27,-907.48 1167.27,-907.48 1167.27,-907.48 1171.54,-906.74 1167.72,-911.97 1176.79,-905.82"/>
<text text-anchor="start" x="1173.61" y="-917.6" font-family="Arial" font-size="10.00">FOREIGN KEY (repository_id) REFERENCES repositories (id) ON UPDATE NO ACTION ON DELETE CASCADE MATCH NONE</text>
</g>
</g>
</svg>
