<?xml version="1.0" encoding="UTF-8" standalone="no"?>
<!DOCTYPE svg PUBLIC "-//W3C//DTD SVG 1.1//EN"
 "http://www.w3.org/Graphics/SVG/1.1/DTD/svg11.dtd">
<!-- Generated by graphviz version 12.1.2 (20240928.0832)
 -->
<!-- Title: task_events Pages: 1 -->
<svg width="1544pt" height="869pt"
 viewBox="0.00 0.00 1544.16 869.20" xmlns="http://www.w3.org/2000/svg" xmlns:xlink="http://www.w3.org/1999/xlink">
<g id="graph0" class="graph" transform="scale(1 1) rotate(0) translate(4 865.2)">
<title>task_events</title>
<polygon fill="white" stroke="none" points="-4,4 -4,-865.2 1540.16,-865.2 1540.16,4 -4,4"/>
<!-- task_events -->
<g id="node1" class="node">
<title>task_events</title>
<polygon fill="#efefef" stroke="none" points="402.78,-769 402.78,-815 997.19,-815 997.19,-769 402.78,-769"/>
<polygon fill="none" stroke="black" points="402.78,-769 402.78,-815 997.19,-815 997.19,-769 402.78,-769"/>
<text text-anchor="start" x="623.37" y="-792.8" font-family="Arial Bold" font-size="18.00">task_events</text>
<text text-anchor="start" x="707.35" y="-792.8" font-family="Arial" font-size="14.00">    </text>
<text text-anchor="start" x="738.47" y="-792.8" font-family="Arial" font-size="14.00" fill="#666666">[table]</text>
<text text-anchor="start" x="501.93" y="-778.4" font-family="Arial" font-size="14.00" fill="#333333">Append&#45;only task lifecycle log, the task&#45;side twin of bug_events.</text>
<polygon fill="none" stroke="black" points="402.78,-738.2 402.78,-769 997.19,-769 997.19,-738.2 402.78,-738.2"/>
<text text-anchor="start" x="409.78" y="-750.4" font-family="Arial" font-size="14.00">id </text>
<text text-anchor="start" x="424.57" y="-750.4" font-family="Arial" font-size="14.00" fill="#666666">[INTEGER]</text>
<polygon fill="none" stroke="black" points="402.78,-707.4 402.78,-738.2 997.19,-738.2 997.19,-707.4 402.78,-707.4"/>
<text text-anchor="start" x="409.78" y="-719.6" font-family="Arial" font-size="14.00">task_id </text>
<text text-anchor="start" x="458.03" y="-719.6" font-family="Arial" font-size="14.00" fill="#666666">[INTEGER]</text>
<text text-anchor="start" x="528.04" y="-719.6" font-family="Arial" font-size="14.00"> INTEGER FK to tasks.id — not the display id (that is tasks.task_id, TEXT).</text>
<polygon fill="none" stroke="black" points="402.78,-676.6 402.78,-707.4 997.19,-707.4 997.19,-676.6 402.78,-676.6"/>
<text text-anchor="start" x="409.78" y="-688.8" font-family="Arial" font-size="14.00">event_type </text>
<text text-anchor="start" x="482.17" y="-688.8" font-family="Arial" font-size="14.00" fill="#666666">[TEXT]</text>
<polygon fill="none" stroke="black" points="402.78,-645.8 402.78,-676.6 997.19,-676.6 997.19,-645.8 402.78,-645.8"/>
<text text-anchor="start" x="409.78" y="-658" font-family="Arial" font-size="14.00">ts </text>
<text text-anchor="start" x="424.56" y="-658" font-family="Arial" font-size="14.00" fill="#666666">[TEXT]</text>
<polygon fill="none" stroke="black" points="402.78,-615 402.78,-645.8 997.19,-645.8 997.19,-615 402.78,-615"/>
<text text-anchor="start" x="409.78" y="-627.2" font-family="Arial" font-size="14.00">from_status </text>
<text text-anchor="start" x="486.81" y="-627.2" font-family="Arial" font-size="14.00" fill="#666666">[TEXT]</text>
<polygon fill="none" stroke="black" points="402.78,-584.2 402.78,-615 997.19,-615 997.19,-584.2 402.78,-584.2"/>
<text text-anchor="start" x="409.78" y="-596.4" font-family="Arial" font-size="14.00">to_status </text>
<text text-anchor="start" x="470.48" y="-596.4" font-family="Arial" font-size="14.00" fill="#666666">[TEXT]</text>
<polygon fill="none" stroke="black" stroke-width="3" points="401.28,-582.7 401.28,-816.5 998.69,-816.5 998.69,-582.7 401.28,-582.7"/>
</g>
<!-- tasks -->
<g id="node2" class="node">
<title>tasks</title>
<polygon fill="#efefef" stroke="none" points="43.2,-412.8 43.2,-458.8 1356.77,-458.8 1356.77,-412.8 43.2,-412.8"/>
<polygon fill="none" stroke="black" points="43.2,-412.8 43.2,-458.8 1356.77,-458.8 1356.77,-412.8 43.2,-412.8"/>
<text text-anchor="start" x="647.36" y="-436.6" font-family="Arial Bold" font-size="18.00">tasks</text>
<text text-anchor="start" x="683.36" y="-436.6" font-family="Arial" font-size="14.00">    </text>
<text text-anchor="start" x="714.48" y="-436.6" font-family="Arial" font-size="14.00" fill="#666666">[table]</text>
<text text-anchor="start" x="50.2" y="-422.2" font-family="Arial" font-size="14.00" fill="#333333">Mirror of docs/todo.md and docs/done.md. Polarity is the reverse of bugs — here the Markdown is canonical and this table is rebuilt from it on each sync, because tasks are hand&#45;edited far more often than bugs.</text>
<polygon fill="none" stroke="black" points="43.2,-382 43.2,-412.8 1356.77,-412.8 1356.77,-382 43.2,-382"/>
<text text-anchor="start" x="50.2" y="-394.2" font-family="Arial" font-size="14.00">id </text>
<text text-anchor="start" x="64.99" y="-394.2" font-family="Arial" font-size="14.00" fill="#666666">[INTEGER]</text>
<polygon fill="none" stroke="black" points="43.2,-351.2 43.2,-382 1356.77,-382 1356.77,-351.2 43.2,-351.2"/>
<text text-anchor="start" x="50.2" y="-363.4" font-family="Arial" font-size="14.00">repository_id </text>
<text text-anchor="start" x="134.24" y="-363.4" font-family="Arial" font-size="14.00" fill="#666666">[INTEGER]</text>
<polygon fill="none" stroke="black" points="43.2,-320.4 43.2,-351.2 1356.77,-351.2 1356.77,-320.4 43.2,-320.4"/>
<text text-anchor="start" x="50.2" y="-332.6" font-family="Arial" font-size="14.00">task_id </text>
<text text-anchor="start" x="98.45" y="-332.6" font-family="Arial" font-size="14.00" fill="#666666">[TEXT]</text>
<text text-anchor="start" x="142.01" y="-332.6" font-family="Arial" font-size="14.00"> The display id as written in Markdown (T&#45;000042 / F&#45;000013 / D&#45;000001) — TEXT, not a foreign key. Note task_events.task_id is a different thing: an INTEGER FK to tasks.id.</text>
<polygon fill="none" stroke="black" points="43.2,-289.6 43.2,-320.4 1356.77,-320.4 1356.77,-289.6 43.2,-289.6"/>
<text text-anchor="start" x="50.2" y="-301.8" font-family="Arial" font-size="14.00">prefix </text>
<text text-anchor="start" x="88.32" y="-301.8" font-family="Arial" font-size="14.00" fill="#666666">[TEXT]</text>
<polygon fill="none" stroke="black" points="43.2,-258.8 43.2,-289.6 1356.77,-289.6 1356.77,-258.8 43.2,-258.8"/>
<text text-anchor="start" x="50.2" y="-271" font-family="Arial" font-size="14.00">description </text>
<text text-anchor="start" x="121.79" y="-271" font-family="Arial" font-size="14.00" fill="#666666">[TEXT]</text>
<polygon fill="none" stroke="black" points="43.2,-228 43.2,-258.8 1356.77,-258.8 1356.77,-228 43.2,-228"/>
<text text-anchor="start" x="50.2" y="-240.2" font-family="Arial" font-size="14.00">effort </text>
<text text-anchor="start" x="85.99" y="-240.2" font-family="Arial" font-size="14.00" fill="#666666">[REAL]</text>
<polygon fill="none" stroke="black" points="43.2,-197.2 43.2,-228 1356.77,-228 1356.77,-197.2 43.2,-197.2"/>
<text text-anchor="start" x="50.2" y="-209.4" font-family="Arial" font-size="14.00">priority </text>
<text text-anchor="start" x="96.1" y="-209.4" font-family="Arial" font-size="14.00" fill="#666666">[TEXT]</text>
<text text-anchor="start" x="139.66" y="-209.4" font-family="Arial" font-size="14.00"> No SQL CHECK — critical / high / medium / low are enforced in Rust.</text>
<polygon fill="none" stroke="black" points="43.2,-166.4 43.2,-197.2 1356.77,-197.2 1356.77,-166.4 43.2,-166.4"/>
<text text-anchor="start" x="50.2" y="-178.6" font-family="Arial" font-size="14.00">status </text>
<text text-anchor="start" x="91.44" y="-178.6" font-family="Arial" font-size="14.00" fill="#666666">[TEXT]</text>
<text text-anchor="start" x="135" y="-178.6" font-family="Arial" font-size="14.00"> No SQL CHECK — open / in&#45;progress / review are enforced in Rust.</text>
<polygon fill="none" stroke="black" points="43.2,-135.6 43.2,-166.4 1356.77,-166.4 1356.77,-135.6 43.2,-135.6"/>
<text text-anchor="start" x="50.2" y="-147.8" font-family="Arial" font-size="14.00">version </text>
<text text-anchor="start" x="99.22" y="-147.8" font-family="Arial" font-size="14.00" fill="#666666">[TEXT]</text>
<text text-anchor="start" x="142.78" y="-147.8" font-family="Arial" font-size="14.00"> Inherited from the nearest preceding &#39;## vX.Y.Z&#39; header in todo.md.</text>
<polygon fill="none" stroke="black" points="43.2,-104.8 43.2,-135.6 1356.77,-135.6 1356.77,-104.8 43.2,-104.8"/>
<text text-anchor="start" x="50.2" y="-117" font-family="Arial" font-size="14.00">source </text>
<text text-anchor="start" x="96.11" y="-117" font-family="Arial" font-size="14.00" fill="#666666">[TEXT]</text>
<text text-anchor="start" x="139.67" y="-117" font-family="Arial" font-size="14.00"> &#39;todo&#39; or &#39;done&#39;. Part of the uniqueness key, so the same id may exist once per source during a transition.</text>
<polygon fill="none" stroke="black" points="43.2,-74 43.2,-104.8 1356.77,-104.8 1356.77,-74 43.2,-74"/>
<text text-anchor="start" x="50.2" y="-86.2" font-family="Arial" font-size="14.00">created_at </text>
<text text-anchor="start" x="120.25" y="-86.2" font-family="Arial" font-size="14.00" fill="#666666">[TEXT]</text>
<polygon fill="none" stroke="black" points="43.2,-43.2 43.2,-74 1356.77,-74 1356.77,-43.2 43.2,-43.2"/>
<text text-anchor="start" x="50.2" y="-55.4" font-family="Arial" font-size="14.00">updated_at </text>
<text text-anchor="start" x="124.16" y="-55.4" font-family="Arial" font-size="14.00" fill="#666666">[TEXT]</text>
</g>
<!-- task_events&#45;&gt;tasks -->
<g id="edge1" class="edge">
<title>task_events:task_id&#45;&gt;tasks:id</title>
<path fill="none" stroke="black" d="M1008.5,-722.74C1188.3,-720.62 1266.43,-661.93 1356.77,-502 1379.64,-461.52 1404.26,-397.4 1357.77,-397.4"/>
<polygon fill="black" stroke="black" points="1008.53,-722.74 998.5,-718.3 1003.19,-722.77 998.86,-722.8 998.86,-722.8 998.86,-722.8 1003.19,-722.77 998.55,-727.3 1008.53,-722.74"/>
<text text-anchor="start" x="1005.19" y="-732.8" font-family="Arial" font-size="10.00">FOREIGN KEY (task_id) REFERENCES tasks (id) ON UPDATE NO ACTION ON DELETE CASCADE MATCH NONE</text>
</g>
</g>
</svg>
