<?xml version="1.0" encoding="UTF-8" standalone="no"?>
<!DOCTYPE svg PUBLIC "-//W3C//DTD SVG 1.1//EN"
 "http://www.w3.org/Graphics/SVG/1.1/DTD/svg11.dtd">
<!-- Generated by graphviz version 12.1.2 (20240928.0832)
 -->
<!-- Title: tasks Pages: 1 -->
<svg width="1961pt" height="1592pt"
 viewBox="0.00 0.00 1960.65 1592.00" xmlns="http://www.w3.org/2000/svg" xmlns:xlink="http://www.w3.org/1999/xlink">
<g id="graph0" class="graph" transform="scale(1 1) rotate(0) translate(4 1588)">
<title>tasks</title>
<polygon fill="white" stroke="none" points="-4,4 -4,-1588 1956.65,-1588 1956.65,4 -4,4"/>
<!-- tasks -->
<g id="node1" class="node">
<title>tasks</title>
<polygon fill="#efefef" stroke="none" points="46.2,-1138.6 46.2,-1184.6 1359.77,-1184.6 1359.77,-1138.6 46.2,-1138.6"/>
<polygon fill="none" stroke="black" points="46.2,-1138.6 46.2,-1184.6 1359.77,-1184.6 1359.77,-1138.6 46.2,-1138.6"/>
<text text-anchor="start" x="650.36" y="-1162.4" font-family="Arial Bold" font-size="18.00">tasks</text>
<text text-anchor="start" x="686.36" y="-1162.4" font-family="Arial" font-size="14.00">    </text>
<text text-anchor="start" x="717.48" y="-1162.4" font-family="Arial" font-size="14.00" fill="#666666">[table]</text>
<text text-anchor="start" x="53.2" y="-1148" font-family="Arial" font-size="14.00" fill="#333333">Mirror of docs/todo.md and docs/done.md. Polarity is the reverse of bugs — here the Markdown is canonical and this table is rebuilt from it on each sync, because tasks are hand&#45;edited far more often than bugs.</text>
<polygon fill="none" stroke="black" points="46.2,-1107.8 46.2,-1138.6 1359.77,-1138.6 1359.77,-1107.8 46.2,-1107.8"/>
<text text-anchor="start" x="53.2" y="-1120" font-family="Arial" font-size="14.00">id </text>
<text text-anchor="start" x="67.99" y="-1120" font-family="Arial" font-size="14.00" fill="#666666">[INTEGER]</text>
<polygon fill="none" stroke="black" points="46.2,-1077 46.2,-1107.8 1359.77,-1107.8 1359.77,-1077 46.2,-1077"/>
<text text-anchor="start" x="53.2" y="-1089.2" font-family="Arial" font-size="14.00">repository_id </text>
<text text-anchor="start" x="137.24" y="-1089.2" font-family="Arial" font-size="14.00" fill="#666666">[INTEGER]</text>
<polygon fill="none" stroke="black" points="46.2,-1046.2 46.2,-1077 1359.77,-1077 1359.77,-1046.2 46.2,-1046.2"/>
<text text-anchor="start" x="53.2" y="-1058.4" font-family="Arial" font-size="14.00">task_id </text>
<text text-anchor="start" x="101.45" y="-1058.4" font-family="Arial" font-size="14.00" fill="#666666">[TEXT]</text>
<text text-anchor="start" x="145.01" y="-1058.4" font-family="Arial" font-size="14.00"> The display id as written in Markdown (T&#45;000042 / F&#45;000013 / D&#45;000001) — TEXT, not a foreign key. Note task_events.task_id is a different thing: an INTEGER FK to tasks.id.</text>
<polygon fill="none" stroke="black" points="46.2,-1015.4 46.2,-1046.2 1359.77,-1046.2 1359.77,-1015.4 46.2,-1015.4"/>
<text text-anchor="start" x="53.2" y="-1027.6" font-family="Arial" font-size="14.00">prefix </text>
<text text-anchor="start" x="91.32" y="-1027.6" font-family="Arial" font-size="14.00" fill="#666666">[TEXT]</text>
<polygon fill="none" stroke="black" points="46.2,-984.6 46.2,-1015.4 1359.77,-1015.4 1359.77,-984.6 46.2,-984.6"/>
<text text-anchor="start" x="53.2" y="-996.8" font-family="Arial" font-size="14.00">description </text>
<text text-anchor="start" x="124.79" y="-996.8" font-family="Arial" font-size="14.00" fill="#666666">[TEXT]</text>
<polygon fill="none" stroke="black" points="46.2,-953.8 46.2,-984.6 1359.77,-984.6 1359.77,-953.8 46.2,-953.8"/>
<text text-anchor="start" x="53.2" y="-966" font-family="Arial" font-size="14.00">effort </text>
<text text-anchor="start" x="88.99" y="-966" font-family="Arial" font-size="14.00" fill="#666666">[REAL]</text>
<polygon fill="none" stroke="black" points="46.2,-923 46.2,-953.8 1359.77,-953.8 1359.77,-923 46.2,-923"/>
<text text-anchor="start" x="53.2" y="-935.2" font-family="Arial" font-size="14.00">priority </text>
<text text-anchor="start" x="99.1" y="-935.2" font-family="Arial" font-size="14.00" fill="#666666">[TEXT]</text>
<text text-anchor="start" x="142.66" y="-935.2" font-family="Arial" font-size="14.00"> No SQL CHECK — critical / high / medium / low are enforced in Rust.</text>
<polygon fill="none" stroke="black" points="46.2,-892.2 46.2,-923 1359.77,-923 1359.77,-892.2 46.2,-892.2"/>
<text text-anchor="start" x="53.2" y="-904.4" font-family="Arial" font-size="14.00">status </text>
<text text-anchor="start" x="94.44" y="-904.4" font-family="Arial" font-size="14.00" fill="#666666">[TEXT]</text>
<text text-anchor="start" x="138" y="-904.4" font-family="Arial" font-size="14.00"> No SQL CHECK — open / in&#45;progress / review are enforced in Rust.</text>
<polygon fill="none" stroke="black" points="46.2,-861.4 46.2,-892.2 1359.77,-892.2 1359.77,-861.4 46.2,-861.4"/>
<text text-anchor="start" x="53.2" y="-873.6" font-family="Arial" font-size="14.00">version </text>
<text text-anchor="start" x="102.22" y="-873.6" font-family="Arial" font-size="14.00" fill="#666666">[TEXT]</text>
<text text-anchor="start" x="145.78" y="-873.6" font-family="Arial" font-size="14.00"> Inherited from the nearest preceding &#39;## vX.Y.Z&#39; header in todo.md.</text>
<polygon fill="none" stroke="black" points="46.2,-830.6 46.2,-861.4 1359.77,-861.4 1359.77,-830.6 46.2,-830.6"/>
<text text-anchor="start" x="53.2" y="-842.8" font-family="Arial" font-size="14.00">source </text>
<text text-anchor="start" x="99.11" y="-842.8" font-family="Arial" font-size="14.00" fill="#666666">[TEXT]</text>
<text text-anchor="start" x="142.67" y="-842.8" font-family="Arial" font-size="14.00"> &#39;todo&#39; or &#39;done&#39;. Part of the uniqueness key, so the same id may exist once per source during a transition.</text>
<polygon fill="none" stroke="black" points="46.2,-799.8 46.2,-830.6 1359.77,-830.6 1359.77,-799.8 46.2,-799.8"/>
<text text-anchor="start" x="53.2" y="-812" font-family="Arial" font-size="14.00">created_at </text>
<text text-anchor="start" x="123.25" y="-812" font-family="Arial" font-size="14.00" fill="#666666">[TEXT]</text>
<polygon fill="none" stroke="black" points="46.2,-769 46.2,-799.8 1359.77,-799.8 1359.77,-769 46.2,-769"/>
<text text-anchor="start" x="53.2" y="-781.2" font-family="Arial" font-size="14.00">updated_at </text>
<text text-anchor="start" x="127.16" y="-781.2" font-family="Arial" font-size="14.00" fill="#666666">[TEXT]</text>
<polygon fill="none" stroke="black" stroke-width="3" points="44.7,-767.5 44.7,-1186.1 1361.27,-1186.1 1361.27,-767.5 44.7,-767.5"/>
</g>
<!-- repositories -->
<g id="node3" class="node">
<title>repositories</title>
<polygon fill="#efefef" stroke="none" points="87.45,-597.6 87.45,-643.6 1318.52,-643.6 1318.52,-597.6 87.45,-597.6"/>
<polygon fill="none" stroke="black" points="87.45,-597.6 87.45,-643.6 1318.52,-643.6 1318.52,-597.6 87.45,-597.6"/>
<text text-anchor="start" x="626.37" y="-621.4" font-family="Arial Bold" font-size="18.00">repositories</text>
<text text-anchor="start" x="710.35" y="-621.4" font-family="Arial" font-size="14.00">    </text>
<text text-anchor="start" x="741.47" y="-621.4" font-family="Arial" font-size="14.00" fill="#666666">[table]</text>
<text text-anchor="start" x="446.97" y="-607" font-family="Arial" font-size="14.00" fill="#333333">A repository belonging to at most one project. May be GitHub&#45;backed or local&#45;only.</text>
<polygon fill="none" stroke="black" points="87.45,-566.8 87.45,-597.6 1318.52,-597.6 1318.52,-566.8 87.45,-566.8"/>
<text text-anchor="start" x="94.45" y="-579" font-family="Arial" font-size="14.00">id </text>
<text text-anchor="start" x="109.24" y="-579" font-family="Arial" font-size="14.00" fill="#666666">[INTEGER]</text>
<polygon fill="none" stroke="black" points="87.45,-536 87.45,-566.8 1318.52,-566.8 1318.52,-536 87.45,-536"/>
<text text-anchor="start" x="94.45" y="-548.2" font-family="Arial" font-size="14.00">project_id </text>
<text text-anchor="start" x="159.05" y="-548.2" font-family="Arial" font-size="14.00" fill="#666666">[INTEGER]</text>
<text text-anchor="start" x="229.05" y="-548.2" font-family="Arial" font-size="14.00"> ON DELETE SET NULL — the only non&#45;cascading FK in the schema. Deleting a project orphans its repositories rather than destroying them.</text>
<polygon fill="none" stroke="black" points="87.45,-505.2 87.45,-536 1318.52,-536 1318.52,-505.2 87.45,-505.2"/>
<text text-anchor="start" x="94.45" y="-517.4" font-family="Arial" font-size="14.00">github_name </text>
<text text-anchor="start" x="179.3" y="-517.4" font-family="Arial" font-size="14.00" fill="#666666">[TEXT]</text>
<text text-anchor="start" x="222.85" y="-517.4" font-family="Arial" font-size="14.00"> UNIQUE, and nullable since v13 so local&#45;only repos (never pushed to GitHub) can exist. The last path segment is the canonical folder name used for all cross&#45;repo doc folders.</text>
<polygon fill="none" stroke="black" points="87.45,-474.4 87.45,-505.2 1318.52,-505.2 1318.52,-474.4 87.45,-474.4"/>
<text text-anchor="start" x="94.45" y="-486.6" font-family="Arial" font-size="14.00">github_url </text>
<text text-anchor="start" x="159.83" y="-486.6" font-family="Arial" font-size="14.00" fill="#666666">[TEXT]</text>
<polygon fill="none" stroke="black" points="87.45,-443.6 87.45,-474.4 1318.52,-474.4 1318.52,-443.6 87.45,-443.6"/>
<text text-anchor="start" x="94.45" y="-455.8" font-family="Arial" font-size="14.00">role </text>
<text text-anchor="start" x="121.69" y="-455.8" font-family="Arial" font-size="14.00" fill="#666666">[TEXT]</text>
<text text-anchor="start" x="165.25" y="-455.8" font-family="Arial" font-size="14.00"> &#39;microservice&#39; is still legal here but is legacy: v12 NULLed every such row when microservice became a project type rather than a repo role.</text>
<polygon fill="none" stroke="black" points="87.45,-412.8 87.45,-443.6 1318.52,-443.6 1318.52,-412.8 87.45,-412.8"/>
<text text-anchor="start" x="94.45" y="-425" font-family="Arial" font-size="14.00">description </text>
<text text-anchor="start" x="166.05" y="-425" font-family="Arial" font-size="14.00" fill="#666666">[TEXT]</text>
<polygon fill="none" stroke="black" points="87.45,-382 87.45,-412.8 1318.52,-412.8 1318.52,-382 87.45,-382"/>
<text text-anchor="start" x="94.45" y="-394.2" font-family="Arial" font-size="14.00">language </text>
<text text-anchor="start" x="155.96" y="-394.2" font-family="Arial" font-size="14.00" fill="#666666">[TEXT]</text>
<polygon fill="none" stroke="black" points="87.45,-351.2 87.45,-382 1318.52,-382 1318.52,-351.2 87.45,-351.2"/>
<text text-anchor="start" x="94.45" y="-363.4" font-family="Arial" font-size="14.00">last_pushed_at </text>
<text text-anchor="start" x="193.31" y="-363.4" font-family="Arial" font-size="14.00" fill="#666666">[DATETIME]</text>
<polygon fill="none" stroke="black" points="87.45,-320.4 87.45,-351.2 1318.52,-351.2 1318.52,-320.4 87.45,-320.4"/>
<text text-anchor="start" x="94.45" y="-332.6" font-family="Arial" font-size="14.00">added_at </text>
<text text-anchor="start" x="156.74" y="-332.6" font-family="Arial" font-size="14.00" fill="#666666">[DATETIME]</text>
<polygon fill="none" stroke="black" points="87.45,-289.6 87.45,-320.4 1318.52,-320.4 1318.52,-289.6 87.45,-289.6"/>
<text text-anchor="start" x="94.45" y="-301.8" font-family="Arial" font-size="14.00">updated_at </text>
<text text-anchor="start" x="168.41" y="-301.8" font-family="Arial" font-size="14.00" fill="#666666">[DATETIME]</text>
<polygon fill="none" stroke="black" points="87.45,-258.8 87.45,-289.6 1318.52,-289.6 1318.52,-258.8 87.45,-258.8"/>
<text text-anchor="start" x="94.45" y="-271" font-family="Arial" font-size="14.00">local_path </text>
<text text-anchor="start" x="162.17" y="-271" font-family="Arial" font-size="14.00" fill="#666666">[TEXT]</text>
<polygon fill="none" stroke="black" points="87.45,-228 87.45,-258.8 1318.52,-258.8 1318.52,-228 87.45,-228"/>
<text text-anchor="start" x="94.45" y="-240.2" font-family="Arial" font-size="14.00">github_id </text>
<text text-anchor="start" x="155.17" y="-240.2" font-family="Arial" font-size="14.00" fill="#666666">[INTEGER]</text>
<text text-anchor="start" x="225.18" y="-240.2" font-family="Arial" font-size="14.00"> Stable GitHub identifier — the basis of rename detection.</text>
<polygon fill="none" stroke="black" points="87.45,-197.2 87.45,-228 1318.52,-228 1318.52,-197.2 87.45,-197.2"/>
<text text-anchor="start" x="94.45" y="-209.4" font-family="Arial" font-size="14.00">deploy_target </text>
<text text-anchor="start" x="183.19" y="-209.4" font-family="Arial" font-size="14.00" fill="#666666">[TEXT]</text>
<text text-anchor="start" x="226.74" y="-209.4" font-family="Arial" font-size="14.00"> Matches templates.language_key.</text>
<polygon fill="none" stroke="black" points="87.45,-166.4 87.45,-197.2 1318.52,-197.2 1318.52,-166.4 87.45,-166.4"/>
<text text-anchor="start" x="94.45" y="-178.6" font-family="Arial" font-size="14.00">sort_order </text>
<text text-anchor="start" x="162.15" y="-178.6" font-family="Arial" font-size="14.00" fill="#666666">[INTEGER]</text>
<polygon fill="none" stroke="black" points="87.45,-135.6 87.45,-166.4 1318.52,-166.4 1318.52,-135.6 87.45,-135.6"/>
<text text-anchor="start" x="94.45" y="-147.8" font-family="Arial" font-size="14.00">bugs_migrated_at </text>
<text text-anchor="start" x="210.42" y="-147.8" font-family="Arial" font-size="14.00" fill="#666666">[TEXT]</text>
<text text-anchor="start" x="253.98" y="-147.8" font-family="Arial" font-size="14.00"> Lazy&#45;migration marker (v18); NULL means the repo&#39;s MD has never been imported.</text>
<polygon fill="none" stroke="black" points="87.45,-104.8 87.45,-135.6 1318.52,-135.6 1318.52,-104.8 87.45,-104.8"/>
<text text-anchor="start" x="94.45" y="-117" font-family="Arial" font-size="14.00">tasks_migrated_at </text>
<text text-anchor="start" x="212.74" y="-117" font-family="Arial" font-size="14.00" fill="#666666">[TEXT]</text>
<text text-anchor="start" x="256.3" y="-117" font-family="Arial" font-size="14.00"> Lazy&#45;migration marker (v21). While NULL, the first task sync suppresses &#39;created&#39; events so backfilling legacy files doesn&#39;t flood the timeline.</text>
<polygon fill="none" stroke="black" points="87.45,-74 87.45,-104.8 1318.52,-104.8 1318.52,-74 87.45,-74"/>
<text text-anchor="start" x="94.45" y="-86.2" font-family="Arial" font-size="14.00">deploy_repo_config </text>
<text text-anchor="start" x="220.55" y="-86.2" font-family="Arial" font-size="14.00" fill="#666666">[TEXT]</text>
<text text-anchor="start" x="264.11" y="-86.2" font-family="Arial" font-size="14.00"> v25 — JSON map of repo&#45;wide (not per&#45;environment) deploy placeholder values.</text>
<polygon fill="none" stroke="black" points="87.45,-43.2 87.45,-74 1318.52,-74 1318.52,-43.2 87.45,-43.2"/>
<text text-anchor="start" x="94.45" y="-55.4" font-family="Arial" font-size="14.00">autocommit_branch </text>
<text text-anchor="start" x="221.3" y="-55.4" font-family="Arial" font-size="14.00" fill="#666666">[TEXT]</text>
<text text-anchor="start" x="264.85" y="-55.4" font-family="Arial" font-size="14.00"> v28 — NULL means auto&#45;commit is off for this repo.</text>
</g>
<!-- tasks&#45;&gt;repositories -->
<g id="edge2" class="edge">
<title>tasks:repository_id&#45;&gt;repositories:id</title>
<path fill="none" stroke="black" d="M1370.99,-1090.94C1471.87,-1061.01 1429.71,-582.2 1319.52,-582.2"/>
<polygon fill="black" stroke="black" points="1371,-1090.93 1360.47,-1087.9 1365.72,-1091.69 1361.44,-1092.31 1361.44,-1092.31 1361.44,-1092.31 1365.72,-1091.69 1361.74,-1096.81 1371,-1090.93"/>
<text text-anchor="start" x="1367.77" y="-1102.4" font-family="Arial" font-size="10.00">FOREIGN KEY (repository_id) REFERENCES repositories (id) ON UPDATE NO ACTION ON DELETE CASCADE MATCH NONE</text>
</g>
<!-- task_events -->
<g id="node2" class="node">
<title>task_events</title>
<polygon fill="#efefef" stroke="none" points="405.78,-1494.8 405.78,-1540.8 1000.19,-1540.8 1000.19,-1494.8 405.78,-1494.8"/>
<polygon fill="none" stroke="black" points="405.78,-1494.8 405.78,-1540.8 1000.19,-1540.8 1000.19,-1494.8 405.78,-1494.8"/>
<text text-anchor="start" x="626.37" y="-1518.6" font-family="Arial Bold" font-size="18.00">task_events</text>
<text text-anchor="start" x="710.35" y="-1518.6" font-family="Arial" font-size="14.00">    </text>
<text text-anchor="start" x="741.47" y="-1518.6" font-family="Arial" font-size="14.00" fill="#666666">[table]</text>
<text text-anchor="start" x="504.93" y="-1504.2" font-family="Arial" font-size="14.00" fill="#333333">Append&#45;only task lifecycle log, the task&#45;side twin of bug_events.</text>
<polygon fill="none" stroke="black" points="405.78,-1464 405.78,-1494.8 1000.19,-1494.8 1000.19,-1464 405.78,-1464"/>
<text text-anchor="start" x="412.78" y="-1476.2" font-family="Arial" font-size="14.00">id </text>
<text text-anchor="start" x="427.57" y="-1476.2" font-family="Arial" font-size="14.00" fill="#666666">[INTEGER]</text>
<polygon fill="none" stroke="black" points="405.78,-1433.2 405.78,-1464 1000.19,-1464 1000.19,-1433.2 405.78,-1433.2"/>
<text text-anchor="start" x="412.78" y="-1445.4" font-family="Arial" font-size="14.00">task_id </text>
<text text-anchor="start" x="461.03" y="-1445.4" font-family="Arial" font-size="14.00" fill="#666666">[INTEGER]</text>
<text text-anchor="start" x="531.04" y="-1445.4" font-family="Arial" font-size="14.00"> INTEGER FK to tasks.id — not the display id (that is tasks.task_id, TEXT).</text>
<polygon fill="none" stroke="black" points="405.78,-1402.4 405.78,-1433.2 1000.19,-1433.2 1000.19,-1402.4 405.78,-1402.4"/>
<text text-anchor="start" x="412.78" y="-1414.6" font-family="Arial" font-size="14.00">event_type </text>
<text text-anchor="start" x="485.17" y="-1414.6" font-family="Arial" font-size="14.00" fill="#666666">[TEXT]</text>
<polygon fill="none" stroke="black" points="405.78,-1371.6 405.78,-1402.4 1000.19,-1402.4 1000.19,-1371.6 405.78,-1371.6"/>
<text text-anchor="start" x="412.78" y="-1383.8" font-family="Arial" font-size="14.00">ts </text>
<text text-anchor="start" x="427.56" y="-1383.8" font-family="Arial" font-size="14.00" fill="#666666">[TEXT]</text>
<polygon fill="none" stroke="black" points="405.78,-1340.8 405.78,-1371.6 1000.19,-1371.6 1000.19,-1340.8 405.78,-1340.8"/>
<text text-anchor="start" x="412.78" y="-1353" font-family="Arial" font-size="14.00">from_status </text>
<text text-anchor="start" x="489.81" y="-1353" font-family="Arial" font-size="14.00" fill="#666666">[TEXT]</text>
<polygon fill="none" stroke="black" points="405.78,-1310 405.78,-1340.8 1000.19,-1340.8 1000.19,-1310 405.78,-1310"/>
<text text-anchor="start" x="412.78" y="-1322.2" font-family="Arial" font-size="14.00">to_status </text>
<text text-anchor="start" x="473.48" y="-1322.2" font-family="Arial" font-size="14.00" fill="#666666">[TEXT]</text>
</g>
<!-- task_events&#45;&gt;tasks -->
<g id="edge1" class="edge">
<title>task_events:task_id&#45;&gt;tasks:id</title>
<path fill="none" stroke="black" d="M1011.4,-1448.36C1227.83,-1438.51 1572.94,-1123.2 1360.77,-1123.2"/>
<polygon fill="black" stroke="black" points="1011.52,-1448.36 1001.42,-1444.09 1006.19,-1448.48 1001.86,-1448.58 1001.86,-1448.58 1001.86,-1448.58 1006.19,-1448.48 1001.63,-1453.09 1011.52,-1448.36"/>
<text text-anchor="start" x="1008.19" y="-1458.6" font-family="Arial" font-size="10.00">FOREIGN KEY (task_id) REFERENCES tasks (id) ON UPDATE NO ACTION ON DELETE CASCADE MATCH NONE</text>
</g>
</g>
</svg>
