<?xml version="1.0" encoding="UTF-8" standalone="no"?>
<!DOCTYPE svg PUBLIC "-//W3C//DTD SVG 1.1//EN"
 "http://www.w3.org/Graphics/SVG/1.1/DTD/svg11.dtd">
<!-- Generated by graphviz version 12.1.2 (20240928.0832)
 -->
<!-- Title: templates Pages: 1 -->
<svg width="987pt" height="331pt"
 viewBox="0.00 0.00 987.10 331.20" xmlns="http://www.w3.org/2000/svg" xmlns:xlink="http://www.w3.org/1999/xlink">
<g id="graph0" class="graph" transform="scale(1 1) rotate(0) translate(4 327.2)">
<title>templates</title>
<polygon fill="white" stroke="none" points="-4,4 -4,-327.2 983.1,-327.2 983.1,4 -4,4"/>
<!-- templates -->
<g id="node1" class="node">
<title>templates</title>
<polygon fill="#efefef" stroke="none" points="46.2,-231 46.2,-277 932.9,-277 932.9,-231 46.2,-231"/>
<polygon fill="none" stroke="black" points="46.2,-231 46.2,-277 932.9,-277 932.9,-231 46.2,-231"/>
<text text-anchor="start" x="420.44" y="-254.8" font-family="Arial Bold" font-size="18.00">templates</text>
<text text-anchor="start" x="489.41" y="-254.8" font-family="Arial" font-size="14.00">    </text>
<text text-anchor="start" x="520.53" y="-254.8" font-family="Arial" font-size="14.00" fill="#666666">[table]</text>
<text text-anchor="start" x="53.2" y="-240.4" font-family="Arial" font-size="14.00" fill="#333333">Deploy/scaffold template files per language key, including each stack&#39;s meta.json (v25 reads it to decide which placeholders are repo&#45;scope).</text>
<polygon fill="none" stroke="black" points="46.2,-200.2 46.2,-231 932.9,-231 932.9,-200.2 46.2,-200.2"/>
<text text-anchor="start" x="53.2" y="-212.4" font-family="Arial" font-size="14.00">id </text>
<text text-anchor="start" x="67.99" y="-212.4" font-family="Arial" font-size="14.00" fill="#666666">[INTEGER]</text>
<polygon fill="none" stroke="black" points="46.2,-169.4 46.2,-200.2 932.9,-200.2 932.9,-169.4 46.2,-169.4"/>
<text text-anchor="start" x="53.2" y="-181.6" font-family="Arial" font-size="14.00">language_key </text>
<text text-anchor="start" x="144.28" y="-181.6" font-family="Arial" font-size="14.00" fill="#666666">[TEXT]</text>
<polygon fill="none" stroke="black" points="46.2,-138.6 46.2,-169.4 932.9,-169.4 932.9,-138.6 46.2,-138.6"/>
<text text-anchor="start" x="53.2" y="-150.8" font-family="Arial" font-size="14.00">file_name </text>
<text text-anchor="start" x="117.79" y="-150.8" font-family="Arial" font-size="14.00" fill="#666666">[TEXT]</text>
<polygon fill="none" stroke="black" points="46.2,-107.8 46.2,-138.6 932.9,-138.6 932.9,-107.8 46.2,-107.8"/>
<text text-anchor="start" x="53.2" y="-120" font-family="Arial" font-size="14.00">content </text>
<text text-anchor="start" x="103.01" y="-120" font-family="Arial" font-size="14.00" fill="#666666">[TEXT]</text>
<polygon fill="none" stroke="black" points="46.2,-77 46.2,-107.8 932.9,-107.8 932.9,-77 46.2,-77"/>
<text text-anchor="start" x="53.2" y="-89.2" font-family="Arial" font-size="14.00">is_custom </text>
<text text-anchor="start" x="120.11" y="-89.2" font-family="Arial" font-size="14.00" fill="#666666">[INTEGER]</text>
<text text-anchor="start" x="190.12" y="-89.2" font-family="Arial" font-size="14.00"> 0 = seeded from the bundled templates, 1 = edited by the user (never overwritten by re&#45;seeding).</text>
<polygon fill="none" stroke="black" points="46.2,-46.2 46.2,-77 932.9,-77 932.9,-46.2 46.2,-46.2"/>
<text text-anchor="start" x="53.2" y="-58.4" font-family="Arial" font-size="14.00">updated_at </text>
<text text-anchor="start" x="127.16" y="-58.4" font-family="Arial" font-size="14.00" fill="#666666">[TEXT]</text>
<polygon fill="none" stroke="black" stroke-width="3" points="44.7,-44.7 44.7,-278.5 934.4,-278.5 934.4,-44.7 44.7,-44.7"/>
</g>
</g>
</svg>
